<svg xmlns="http://www.w3.org/2000/svg" viewBox="0 0 187.41 35.72"><defs><style>.cls-1{fill:#fff;}</style></defs><title>aardman-white</title><g id="Layer_2" data-name="Layer 2"><g id="Layer_1-2" data-name="Layer 1"><g id="layer1"><g id="g843"><path id="path1105" class="cls-1" d="M7.45,14.67,5.7,10.21a.5.5,0,0,0-.44-.32L.48,9.6A.51.51,0,0,1,0,9.06.54.54,0,0,1,.18,8.7l3.69-3A.51.51,0,0,0,4,5.13L2.6.66A.51.51,0,0,1,2.93,0a.47.47,0,0,1,.4.05l4.32,2.5a.52.52,0,0,0,.51,0L12.35.08a.5.5,0,0,1,.7.17.49.49,0,0,1,.06.41L11.79,5.14a.54.54,0,0,0,.17.54l3.68,3a.53.53,0,0,1,.07.72.45.45,0,0,1-.36.18l-4.76.29a.5.5,0,0,0-.45.32L8.39,14.68a.49.49,0,0,1-.65.28A.55.55,0,0,1,7.45,14.67Z"/><path id="path819" class="cls-1" d="M162.6,34.28l-6.8-17.4a1.5,1.5,0,0,0-1.4-.95h-5.18a1.53,1.53,0,0,0-1.4.95L141,34.28a.94.94,0,0,0,.52,1.21.8.8,0,0,0,.36.07h3.86a1.42,1.42,0,0,0,1.33-.91l.63-1.6a1,1,0,0,1,.88-.61H155a.94.94,0,0,1,.88.61l.62,1.6a1.44,1.44,0,0,0,1.35.91h3.85a1,1,0,0,0,1-.92A.83.83,0,0,0,162.6,34.28Zm-12.25-7.94,1-2.54a.52.52,0,0,1,.66-.29.55.55,0,0,1,.29.29l1,2.54A.51.51,0,0,1,153,27a.48.48,0,0,1-.18,0h-2a.51.51,0,0,1-.51-.5A.25.25,0,0,1,150.35,26.34Z"/><path id="path821" class="cls-1" d="M54.88,34.28l-6.8-17.4a1.51,1.51,0,0,0-1.4-.95H41.5a1.52,1.52,0,0,0-1.4.95l-6.8,17.4a.92.92,0,0,0,.52,1.21.77.77,0,0,0,.36.07H38a1.42,1.42,0,0,0,1.33-.91l.63-1.6a.93.93,0,0,1,.87-.61h6.42a.93.93,0,0,1,.88.61l.63,1.6a1.43,1.43,0,0,0,1.33.91H54a.93.93,0,0,0,.95-.92.72.72,0,0,0-.06-.36ZM42.63,26.34l1-2.54a.5.5,0,0,1,.65-.29.57.57,0,0,1,.28.29l1,2.54a.51.51,0,0,1-.29.66l-.18,0h-2a.5.5,0,0,1-.51-.5A.38.38,0,0,1,42.63,26.34Z"/><path id="path823" class="cls-1" d="M28,34.28l-6.8-17.4a1.5,1.5,0,0,0-1.4-.95H14.61a1.53,1.53,0,0,0-1.4.95l-6.8,17.4a.93.93,0,0,0,.52,1.21.89.89,0,0,0,.36.07h3.85a1.42,1.42,0,0,0,1.33-.91l.63-1.6a.93.93,0,0,1,.88-.61H20.4a.92.92,0,0,1,.87.61l.63,1.6a1.44,1.44,0,0,0,1.35.91H27.1a1,1,0,0,0,1-.92,1,1,0,0,0-.07-.36ZM15.73,26.34l1-2.54a.52.52,0,0,1,.66-.29.53.53,0,0,1,.28.29l1,2.54a.51.51,0,0,1-.29.66.52.52,0,0,1-.18,0h-2a.5.5,0,0,1-.5-.51A.36.36,0,0,1,15.73,26.34Z"/><path id="path825" class="cls-1" d="M94.37,15.93h-7a1.44,1.44,0,0,0-1.44,1.43h0V34.12a1.45,1.45,0,0,0,1.44,1.44h7a9.82,9.82,0,1,0,0-19.63Zm-.1,13.41H92.61a.5.5,0,0,1-.51-.5h0V22.65a.49.49,0,0,1,.5-.49h1.74a3.6,3.6,0,0,1,3.59,3.61v.11a3.62,3.62,0,0,1-3.66,3.46Z"/><path id="path827" class="cls-1" d="M186,15.93h-3.34a1.43,1.43,0,0,0-1.44,1.44v8.45a.25.25,0,0,1-.24.25.24.24,0,0,1-.22-.15L177,17.11a1.93,1.93,0,0,0-1.78-1.18H170a1.44,1.44,0,0,0-1.44,1.43h0V34.12A1.45,1.45,0,0,0,170,35.56h3.35a1.45,1.45,0,0,0,1.44-1.44V26.4a.24.24,0,0,1,.46-.09l3.41,8.06a1.93,1.93,0,0,0,1.78,1.19H186a1.45,1.45,0,0,0,1.45-1.44V17.36A1.43,1.43,0,0,0,186,15.93Z"/><path id="path829" class="cls-1" d="M78.65,34.29,75.5,28.12a.49.49,0,0,1,.13-.62,6.42,6.42,0,0,0,2.44-5.07,6.49,6.49,0,0,0-6.52-6.38h-9a1.44,1.44,0,0,0-1.44,1.44h0V34.26a1.44,1.44,0,0,0,1.43,1.44h3.34a1.45,1.45,0,0,0,1.45-1.43h0V29.4a.49.49,0,0,1,.49-.49h1.29a1,1,0,0,1,.84.51l2.8,5.45a1.56,1.56,0,0,0,1.39.85H77.8a1,1,0,0,0,1-1,.86.86,0,0,0-.1-.47ZM71.83,22.45a1.71,1.71,0,0,1-1.71,1.72H67.79a.5.5,0,0,1-.49-.51V21.22a.5.5,0,0,1,.49-.48h2.34a1.7,1.7,0,0,1,1.7,1.71Z"/><path id="path831" class="cls-1" d="M133.65,15.93h-5.8a1.42,1.42,0,0,0-1.33.91l-3.17,8.09a.49.49,0,0,1-.64.29.52.52,0,0,1-.29-.29l-3.17-8.09a1.42,1.42,0,0,0-1.34-.91h-5.8a1.44,1.44,0,0,0-1.44,1.43h0V34.12a1.45,1.45,0,0,0,1.44,1.44h3.36a1.44,1.44,0,0,0,1.44-1.43h0V28a.24.24,0,0,1,.24-.24.25.25,0,0,1,.23.15L120,34.65a1.45,1.45,0,0,0,1.34.91h3.09a1.45,1.45,0,0,0,1.35-.91l2.64-6.75a.22.22,0,0,1,.3-.14.24.24,0,0,1,.16.23v6.14a1.45,1.45,0,0,0,1.44,1.44h3.35a1.44,1.44,0,0,0,1.44-1.44V17.36A1.48,1.48,0,0,0,133.65,15.93Z"/></g></g></g></g></svg>