<svg xmlns="http://www.w3.org/2000/svg" viewBox="0 0 133.24 89.84"><defs><style>.cls-1{fill:#fff;}</style></defs><title>adidas-white</title><g id="Layer_2" data-name="Layer 2"><g id="Layer_1-2" data-name="Layer 1"><path id="layer1" class="cls-1" d="M87.16,58.92,59.8,11.32,79.48,0l34,58.92H87.16m-73-6.64L33.88,40.92l10.4,18H18l-3.8-6.68m38.64,37h5.6V66.68h-5.6Zm70.16.52c-6.24,0-10-3.24-10.24-7.76h5.92c0,1.44.92,3.48,4.68,3.6,2.56,0,3.72-1.48,3.72-2.64-.16-1.8-2.4-2-4.8-2.32a19.32,19.32,0,0,1-5.88-1.6,6.05,6.05,0,0,1-3.16-5.44c0-4,3.48-7.24,9.36-7.24,5.68,0,9.28,3,9.64,7.4H126.6c-.08-1.2-.28-3.08-3.64-3.08-2.28,0-3.76.44-3.88,2,0,2.32,4.68,2.16,8.4,3.16,3.48.92,5.76,3.08,5.76,6.12,0,5.6-4.6,7.76-10.24,7.76M37.28,32,57,20.72,79,59H58.48v5.6h-5.6V58.92L37.28,32m.52,57.8A11.85,11.85,0,0,1,26,78.08,11.7,11.7,0,0,1,37.8,66.4a11.52,11.52,0,0,1,6.68,2V58.92h5.6V89.28h-5.6V87.8a12.17,12.17,0,0,1-6.68,2ZM31.36,78.08A6.56,6.56,0,1,0,38,71.56a6.6,6.6,0,0,0-6.6,6.52m47.8-19.16h5.52V89.28H79.16V87.8a11.81,11.81,0,0,1-18.44-9.72A11.68,11.68,0,0,1,72.44,66.4a11.3,11.3,0,0,1,6.72,2V58.92Zm-13,19.16a6.52,6.52,0,0,0,13,0,6.52,6.52,0,1,0-13,0M98.32,89.84A11.82,11.82,0,0,1,86.6,78.08,11.7,11.7,0,0,1,98.32,66.4a11.26,11.26,0,0,1,6.68,2V66.6h5.6V89.28H105V87.8a11.69,11.69,0,0,1-6.68,2ZM92,78.08a6.58,6.58,0,0,0,6.52,6.44A6.49,6.49,0,0,0,105,78.08a6.48,6.48,0,1,0-13,0m-86.68,0a6.54,6.54,0,0,0,13.08,0,6.66,6.66,0,0,0-6.56-6.52A6.65,6.65,0,0,0,5.36,78.08Zm6.4,11.76A11.83,11.83,0,0,1,0,78.08,11.71,11.71,0,0,1,11.76,66.4a11.47,11.47,0,0,1,6.72,2V66.6H24V89.28H18.48V87.8a11.91,11.91,0,0,1-6.72,2"/></g></g></svg>