<svg xmlns="http://www.w3.org/2000/svg" viewBox="0 0 203.92 58.44"><defs><style>.cls-1{fill:#fff;}</style></defs><title>audible-white</title><g id="Layer_2" data-name="Layer 2"><g id="Layer_1-2" data-name="Layer 1"><polygon class="cls-1" points="173.76 32.2 203.92 13.4 203.92 18.48 173.76 37.36 143.6 18.48 143.6 13.4 173.76 32.2"/><path class="cls-1" d="M173.76,8.6a19.19,19.19,0,0,0-16.2,8.72h0a5.18,5.18,0,0,1,.72-.64,18.82,18.82,0,0,1,27.36,3.44l4.4-2.84h0A19.79,19.79,0,0,0,173.76,8.6"/><path class="cls-1" d="M173.76,17.32a11.09,11.09,0,0,0-8.92,4.56,9.05,9.05,0,0,1,5.36-1.76,9.86,9.86,0,0,1,8.12,4.48L182.56,22h0a10.31,10.31,0,0,0-8.8-4.64"/><path class="cls-1" d="M153.4,9.68c12.44-9.8,30-7.12,39.32,5.88l.08.08,4.56-2.84h0a28.16,28.16,0,0,0-47.2,0,26.71,26.71,0,0,1,3.24-3.12"/><path class="cls-1" d="M27.52,47.76v-18H33.4v17.8c0,4.32,3.64,5.36,5.64,5.36,4.4,0,5.88-2.64,5.88-4.16v-19H50.8v28H47.36L45,54.52a10.15,10.15,0,0,1-8.12,3.72C31.36,58.28,27.52,54.56,27.52,47.76Z"/><path class="cls-1" d="M94.52,19.92V57.76h3.36l2.2-3.2a10.19,10.19,0,0,0,8.12,3.8c5.2,0,9.6-3.2,9.6-10.24V39.48c0-7-4.4-10.24-9.88-10.24a9.61,9.61,0,0,0-7.68,3.36V19.88l-5.72,0Zm12,33c-3.64,0-6.24-1.76-6.16-5.56h0V39.72c0-3,2.4-5.28,6.24-5.28A5.3,5.3,0,0,1,112,39.72v7.84A5.32,5.32,0,0,1,106.48,53Z"/><path class="cls-1" d="M72.44,19.92V32.64a9.55,9.55,0,0,0-7.68-3.36c-5.44,0-9.88,3.2-9.88,10.24v8.64c0,7,4.4,10.24,9.6,10.24a10.31,10.31,0,0,0,8.12-3.8l2.2,3.2h3.36V20l-5.72,0ZM60.64,47.68V39.84a5.33,5.33,0,0,1,5.44-5.28c3.88,0,6.24,2.2,6.24,5.28v7.68h0c.08,3.8-2.56,5.56-6.16,5.56A5.53,5.53,0,0,1,60.64,47.68Z"/><path class="cls-1" d="M121.76,19.92h5.88V57.76h-5.88Z"/><rect class="cls-1" x="83.48" y="29.8" width="5.88" height="27.96"/><circle class="cls-1" cx="86.48" cy="23.08" r="3.36"/><path class="cls-1" d="M143.88,53c-4.08,0-6-2.12-6-5V45.64h17.44V39.4c0-6.44-4.48-10.24-11.48-10.24-7.24,0-11.92,4.08-11.92,10.4V48.2c0,6.44,4.64,10.24,11.92,10.24,5.36,0,9.36-2.2,11-5.88l-4.24-2.64C149.08,51.92,147,53,143.88,53Zm-6-13.48c0-2.92,2-4.92,5.8-4.92s5.8,2,5.8,4.92v1.76H137.92l0-1.76Z"/><path class="cls-1" d="M12.32,29.16c-5.72,0-9.44,2.32-10.84,5.72L6,37.72c2-3.12,3.8-3.28,6.24-3.28,3.64,0,5.2,1.68,5.2,4.4V41h-5C8.88,41,0,42.28,0,50c0,5.44,4.16,8.2,9.16,8.2a11.24,11.24,0,0,0,8.56-3.8L20,57.56h3.44V38.4C23.44,33.16,19.72,29.16,12.32,29.16Zm5.2,19.68a3.06,3.06,0,0,1-.64,1.68A7.53,7.53,0,0,1,11.08,53c-2.84,0-4.84-1.16-4.84-3.44,0-3.36,5.36-4.08,8.8-4.24H17.6l-.08,3.52Z"/></g></g></svg>