<svg xmlns="http://www.w3.org/2000/svg" viewBox="0 0 173.12 79.76"><defs><style>.cls-1,.cls-2{fill:#fff;}.cls-1{fill-opacity:0;}</style></defs><title>lego-white</title><g id="Layer_2" data-name="Layer 2"><g id="Layer_1-2" data-name="Layer 1"><path class="cls-1" d="M163.64,25.68a70.2,70.2,0,0,1-3.72,17.48c-6.36,19-13.8,30.76-31,30.76-5,0-14-1.32-17.32-10.32l-.8-2.12-1.4,1.8A28,28,0,0,1,87.56,74c-6.56,0-11.8-2.16-15.23-6.32l-.92-1.16-1,1.08c-3.64,4-10,6.32-17.4,6.32-5.84,0-10.84-2-14.16-5.6l-.88-1-.92.92c-3.68,3.72-9.48,5.6-16.76,5.4-8.84-.2-14.24-5.16-14.36-13.16C5.69,48.12,17.65,22,22.65,14.08,25.89,8.8,30.33,6.2,36.21,6.2c4,0,6.76.84,8.4,2.56,1.48,1.6,1.76,2.92,1.92,6.08L46.69,19l2.2-3.52C54.13,7,62.89,5.8,71.57,5.8c6,0,11.27,2.2,13.39,5.64l.8,1.28,1.12-1C91.36,8,97.64,5.88,104.6,5.88c7.6,0,13.16,1.92,16.4,5.6a10.6,10.6,0,0,1,2,2.88l.88,1.76,1.28-1.52C130,8.88,136.52,6,144.72,6c6.48,0,11.36,1.72,14.6,5.12,4,4.28,4.52,10.28,4.32,14.56Z"/><path class="cls-1" d="M168.76,32.64c-.84,6.64-5.28,18.88-7.68,23.8-6.36,13.12-14.92,23.24-31.32,23.24-8.8,0-16-2.8-20.2-8.16a33.16,33.16,0,0,1-22.08,8.24,26,26,0,0,1-16.23-5.2c-4.72,3.32-11.08,5.2-18.16,5.2a25.75,25.75,0,0,1-15.32-4.6c-4.56,3-10.64,4.56-17.68,4.4C8.37,79.28.21,71.8,0,61c-.32-14.36,11.8-40.68,17.48-49.8C21.77,4.2,28.29.4,36.25.4,44.93.4,48.05,2.88,49.61,6,56.29.32,65.17,0,71.45,0c7,0,11.35,1.84,15,4.84a34.12,34.12,0,0,1,18-4.68c9,0,15.64,2.08,20.28,6.68C130.24,2.36,137,.28,144.6.28c10,0,16.68,3.64,20.56,9,5.6,7.56,4.6,15.24,3.6,23.32Z"/><path class="cls-2" d="M167.88,4.12V2.88h.88c.6,0,.92.2.92.6s-.2.64-.84.64ZM171,6.76l-.52-.92c-.48-.8-.56-.92-1-1.08v0c.8-.12,1.24-.56,1.24-1.28a1.27,1.27,0,0,0-1.44-1.28H167V6.72h.92V4.84h.2a1,1,0,0,1,.76.2,2.85,2.85,0,0,1,.6.88l.36.76,1.12.08ZM168.68.88a3.54,3.54,0,1,1-3.52,3.52A3.53,3.53,0,0,1,168.68.88Zm0-.84a4.44,4.44,0,1,0,4.44,4.48v0A4.43,4.43,0,0,0,168.68,0Zm-24,4.72c-9.56,0-16.08,3.76-20.56,9A11.05,11.05,0,0,0,122,10.64c-3.64-4.12-9.52-6-17.4-6C96.84,4.6,90.44,7,86,10.8,83.68,7,78.2,4.52,71.53,4.52c-8.68,0-18.16,1.24-23.76,10.28-.16-3.24-.44-5-2.28-6.92-2.24-2.36-5.84-3-9.32-3-6.36,0-11.2,2.8-14.64,8.48-5,8-17.16,34.36-16.92,47.16.2,8.24,5.72,14.2,15.64,14.44,7.76.16,13.84-1.88,17.68-5.8,3.44,3.8,8.76,6,15.08,6,7,0,14.16-2.12,18.32-6.72,3.51,4.32,9.07,6.84,16.19,6.8A29.22,29.22,0,0,0,110.4,64c3,8,10.36,11.16,18.52,11.16,17.84,0,25.68-12.28,32.2-31.64a75.58,75.58,0,0,0,3.76-17.8c.56-10.12-3.72-20.92-20.24-20.92ZM26,53.48c9.2-1.64,11.56,1.72,11.28,4.84-.88,9.24-9.36,11.32-16.72,11.12-5.32-.16-10.16-2.6-10.28-8.8-.24-10.84,10.84-36,16-44.28,2.4-4,5.32-5.92,10-5.92,4.44,0,5.56,2.28,5.48,5-.2,7.36-11.92,29.44-15.8,38ZM56.09,45c-.6,1.64-1.76,5.12-2.72,8.8a30.37,30.37,0,0,1,9.2-1.2c4.44.12,7.28,2,7.28,5.6C69.85,67,60,69.64,53.21,69.64c-7.48,0-14-4.24-14-12.44,0-9.56,5.2-24.12,10.08-33.8C55.21,11.56,61.33,10,71.89,10c4.63,0,10,2,10,6.36,0,6-5.16,8.4-10.23,8.68-2.16.12-5.52.24-7.52.12a44.11,44.11,0,0,0-3.48,7.2C70.05,31,74,33.16,72.45,38.6c-2.2,7.28-8.56,7.76-16.36,6.36Zm46.35-22.88c-2.56,0-4.2,1.64-5.48,3.36C94.24,29.28,88.32,44.68,87.4,51c-.64,4.32,1.24,5.2,3.28,5.2,3.28,0,7-3.44,8.2-9.16,0,0-6.24-.16-4.52-5.68C96,36,99.2,34.8,104.44,34.6c10.36-.44,9.32,7.24,8.48,11.32C110.2,59.16,100.84,69.8,87.48,69.8c-9.12,0-14.79-5-14.79-14.36,0-6.64,3.27-17,5.91-23.12,5.56-13,11.36-22,26.2-22,8.88,0,15.92,3.2,14.88,11.52-.76,6.12-3.8,9.72-9.36,10.16-1.56.12-7.92,0-5.8-6,.76-2.24,1-3.84-2.08-3.84Zm56,10.88a90.21,90.21,0,0,1-8.92,23.92c-6.24,11.24-13.84,12.8-20.44,12.72S115,67.08,114.92,56.84c0-7.36,3.12-17.68,5.8-24.48C125.4,20,130.2,10,145.32,10.24,163,10.48,159.84,26.16,158.44,33Zm-15-10.64a4.14,4.14,0,0,0-4,2.12c-2.68,3.44-10.48,24.76-10.32,29a2.67,2.67,0,0,0,2.76,2.88c2.16,0,3.36-1.48,4.44-3.28,2.44-4.16,9.36-23,9.56-27.68,0-1.44-.16-3-2.4-3Z"/></g></g></svg>