<svg xmlns="http://www.w3.org/2000/svg" viewBox="0 0 204.8 50.48"><defs><style>.cls-1{fill:#fff;}</style></defs><title>nintendo-white</title><g id="Layer_2" data-name="Layer 2"><g id="Layer_1-2" data-name="Layer 1"><path id="path29" class="cls-1" d="M26.8,50.48c-16,0-26.8-11.4-26.8-25.2H0C0,11.48,10.76,0,26.76,0H178c16,0,26.76,11.48,26.76,25.28h0c0,13.8-10.72,25.16-26.8,25.2Zm0-44.28c-12.72,0-20.52,8.52-20.52,19h0c0,10.52,7.76,19.08,20.52,19H178c12.76,0,20.52-8.52,20.52-19h0c0-10.52-7.8-19-20.52-19Zm159.24,8.88c1.16,0,1.72.4,1.72,1.16a1.1,1.1,0,0,1-.88,1.08l.92,1.8h-1.08L186,17.48h-.48v1.64h-1v-4ZM186,13.52a3.64,3.64,0,1,0,3.64,3.64A3.65,3.65,0,0,0,186,13.52Zm3,3.64a3,3,0,1,1-3-3A3,3,0,0,1,189,17.16Zm-3.48-.28H186c.56,0,.84-.16.84-.56s-.28-.6-.88-.6h-.44Zm-82.6,9.92a5.66,5.66,0,0,1,.48-3.08,3,3,0,0,1,2.52-1.44h0a3,3,0,0,1,2.52,1.44,6.32,6.32,0,0,1,.48,3.12Zm5.92,4.76v1c0,2.88-1.92,3.52-3,3.52s-3-.64-3-3.52V29.24h13.44c0-4.88-4.72-9-10.52-9s-10.52,4-10.52,8.88S100,38,105.76,38c4.8,0,8.88-2.76,10.12-6.48Zm22.48-11c2.68-.08,8.08,1.68,8,7.92v8.6h-7.08V26.72A3.19,3.19,0,0,0,129,23.8a3.28,3.28,0,0,0-3.4,2.92V37.08h-7.08V21.28h7.08V23a8.54,8.54,0,0,1,5.72-2.4Zm-58,0c2.68-.08,8.08,1.68,8,7.92v8.6H74.2V26.72a3.19,3.19,0,0,0-3.28-2.92,3.28,3.28,0,0,0-3.4,2.92V37.08H60.44V21.28h7.08V23a8.54,8.54,0,0,1,5.72-2.4Zm81.48-7.24h7V37.08h-7.08v-.92a8.53,8.53,0,0,1-8.2.6,8.39,8.39,0,0,1-4.88-7.84,8.6,8.6,0,0,1,9.08-8.28,9.85,9.85,0,0,1,4,1.4V13.32Zm.08,15.76V26.24a2.81,2.81,0,1,0-5.6,0v5.6a2.81,2.81,0,1,0,5.6,0V29.08Zm22.6,0V32.4c0,2.52-1.48,3.56-2.92,3.56s-2.92-1-2.92-3.56V25.72c0-2.52,1.48-3.52,2.92-3.52s2.92,1,2.92,3.52V29Zm-2.84-8.84c-5.76,0-10.44,4-10.44,8.88S168.8,38,174.56,38,185,34,185,29.08,180.32,20.2,174.56,20.2Zm-125.2-2V13.32h7.16v4.84Zm0,18.92V21.28h7.16v15.8Zm35.84,0V21.32H81.32V19H85.2v-3.2h7.16V19h3.88v2.36H92.36V37.08Zm-64.88,0V13.32h7.4L38,29.88V13.32h7.36V37.08H38L27.72,20.52V37.08Z"/></g></g></svg>