<svg xmlns="http://www.w3.org/2000/svg" viewBox="0 0 223.36 66.96"><defs><style>.cls-1{fill:#fff;}</style></defs><title>spotify-white</title><g id="Layer_2" data-name="Layer 2"><g id="Layer_1-2" data-name="Layer 1"><path class="cls-1" d="M33.48,0A33.48,33.48,0,1,0,67,33.48,33.49,33.49,0,0,0,33.48,0ZM48.84,48.28A2.08,2.08,0,0,1,46,49c-7.88-4.8-17.76-5.88-29.44-3.24a2.07,2.07,0,1,1-.92-4C28.36,38.76,39.32,40,48.12,45.4A2.11,2.11,0,0,1,48.84,48.28ZM53,39.16a2.65,2.65,0,0,1-3.6.88c-9-5.52-22.72-7.12-33.36-3.92a2.59,2.59,0,1,1-1.48-5c12.16-3.68,27.28-1.92,37.64,4.44a2.61,2.61,0,0,1,.8,3.56Zm.32-9.48c-10.8-6.4-28.6-7-38.92-3.88a3.14,3.14,0,0,1-1.84-6C24.36,16.2,44,16.92,56.44,24.28a3.12,3.12,0,0,1,1.08,4.28,3,3,0,0,1-4.24,1.12Zm37.84,1.24c-5.8-1.36-6.8-2.36-6.8-4.4s1.8-3.2,4.48-3.2a13.36,13.36,0,0,1,7.92,3,.38.38,0,0,0,.28.08.27.27,0,0,0,.24-.16l2.84-4a.38.38,0,0,0-.08-.52,17,17,0,0,0-11.12-3.84c-6.24,0-10.6,3.76-10.6,9.12,0,5.76,3.76,7.8,10.28,9.36C94.08,37.64,95,38.72,95,40.6,95,42.72,93.16,44,90.12,44c-3.36,0-6.12-1.12-9.2-3.8a.34.34,0,0,0-.28-.08.24.24,0,0,0-.24.12L77.24,44a.37.37,0,0,0,0,.52A18.92,18.92,0,0,0,90,49.44c6.72,0,11.08-3.68,11.08-9.36-.08-4.8-3-7.44-10-9.16Zm25.16-5.72A9,9,0,0,0,109,28.72V26a.36.36,0,0,0-.36-.36h-5.2a.36.36,0,0,0-.36.36V55.48a.39.39,0,0,0,.36.4h5.2a.37.37,0,0,0,.36-.4V46.2a9.3,9.3,0,0,0,7.28,3.28c5.4,0,10.92-4.16,10.92-12.16S121.68,25.2,116.28,25.2Zm4.88,12.16c0,4-2.48,6.88-6.08,6.88s-6.2-3-6.2-6.88,2.68-6.88,6.2-6.88,6.08,2.88,6.08,6.88ZM141.24,25.2a12.18,12.18,0,1,0,12.4,12.16,12.18,12.18,0,0,0-12.4-12.16Zm0,19.08a6.59,6.59,0,0,1-6.52-6.92c0-4,2.72-6.84,6.44-6.84a6.64,6.64,0,0,1,6.56,7A6.44,6.44,0,0,1,141.24,44.28Zm27.32-18.6h-5.68V19.84a.36.36,0,0,0-.36-.36h-5.2a.39.39,0,0,0-.4.36v5.84h-2.48a.36.36,0,0,0-.36.36v4.44a.36.36,0,0,0,.36.36h2.48V42.36c0,4.64,2.32,7,6.88,7a9.65,9.65,0,0,0,4.84-1.2.41.41,0,0,0,.2-.32v-4.2a.41.41,0,0,0-.2-.32.3.3,0,0,0-.36,0,6.79,6.79,0,0,1-3,.72c-1.64,0-2.4-.76-2.4-2.44V30.88h5.68a.36.36,0,0,0,.36-.36V26a.31.31,0,0,0-.32-.36Zm19.84,0V25c0-2.12.8-3,2.6-3a8.79,8.79,0,0,1,2.92.52.43.43,0,0,0,.32,0,.49.49,0,0,0,.16-.32V17.72a.38.38,0,0,0-.28-.36,13.87,13.87,0,0,0-4.32-.6c-4.8,0-7.32,2.68-7.32,7.8v1.08H180a.39.39,0,0,0-.4.36v4.48a.37.37,0,0,0,.4.36h2.48V48.6a.37.37,0,0,0,.4.36H188a.39.39,0,0,0,.4-.36V30.84h4.84l7.4,17.76c-.84,1.88-1.68,2.24-2.8,2.24A6,6,0,0,1,195,50a.78.78,0,0,0-.32,0,.59.59,0,0,0-.24.2L192.72,54a.37.37,0,0,0,.16.48,10.8,10.8,0,0,0,5.52,1.4c3.84,0,5.92-1.8,7.8-6.56l9-23.2a.39.39,0,0,0,0-.36.36.36,0,0,0-.32-.16h-5.4a.41.41,0,0,0-.36.24l-5.52,15.76-6-15.8a.35.35,0,0,0-.36-.24l-8.76.08Zm-11.52,0h-5.2a.39.39,0,0,0-.4.36v22.6a.37.37,0,0,0,.4.36h5.2a.39.39,0,0,0,.4-.36V26a.39.39,0,0,0-.4-.36ZM174.32,15.4A3.72,3.72,0,1,0,178,19.12,3.74,3.74,0,0,0,174.32,15.4Zm45.36,17.52A3.63,3.63,0,0,1,216,29.28a3.67,3.67,0,0,1,3.68-3.68,3.6,3.6,0,0,1,3.64,3.64A3.65,3.65,0,0,1,219.68,32.92Zm0-6.92A3.3,3.3,0,1,0,223,29.28,3.25,3.25,0,0,0,219.72,26Zm.8,3.64,1,1.44h-.88l-.92-1.32H219v1.32h-.72V27.24H220c.88,0,1.48.44,1.48,1.24a1.21,1.21,0,0,1-.92,1.16Zm-.6-1.72h-1v1.2h1c.48,0,.76-.24.76-.6S220.36,27.92,219.92,27.92Z"/></g></g></svg>