<svg xmlns="http://www.w3.org/2000/svg" viewBox="0 0 72.13 58.58"><defs><style>.cls-1{fill:#213052;}</style></defs><title>twitter-logo</title><g id="Layer_2" data-name="Layer 2"><g id="Layer_1-2" data-name="Layer 1"><path class="cls-1" d="M64.72,14.6c0,.64,0,1.28,0,1.92,0,19.55-14.87,42.06-42.06,42.06A41.77,41.77,0,0,1,0,52a32.2,32.2,0,0,0,3.57.18,29.55,29.55,0,0,0,18.35-6.32A14.8,14.8,0,0,1,8.1,35.56a18.32,18.32,0,0,0,2.79.23,15.59,15.59,0,0,0,3.89-.5A14.8,14.8,0,0,1,2.93,20.78V20.6a15,15,0,0,0,6.68,1.87A14.81,14.81,0,0,1,5,2.7,42,42,0,0,0,35.52,18.17a16.6,16.6,0,0,1-.37-3.39A14.79,14.79,0,0,1,60.73,4.67,29.15,29.15,0,0,0,70.12,1.1a14.83,14.83,0,0,1-6.5,8.15A30.08,30.08,0,0,0,72.13,7a31.81,31.81,0,0,1-7.41,7.64Z"/></g></g></svg>