<svg xmlns="http://www.w3.org/2000/svg" viewBox="0 0 89.3 98.84"><defs><style>.cls-1{fill:#fff;}</style></defs><title>unilever-white</title><g id="Layer_2" data-name="Layer 2"><g id="Layer_1-2" data-name="Layer 1"><path class="cls-1" d="M11.46,86.88a15.86,15.86,0,0,1-.68-2.28,2.65,2.65,0,0,1,1.48-3.08c.92-.24,1.28.2,1.64,1.28a21.77,21.77,0,0,1,.36,6.88c-.2,4.2-2.32,9.28-7.52,9.16C2.22,98.76.22,95.8,0,91.36A20.51,20.51,0,0,1,.94,84.2c.48-1.6.88-2.16,2.32-2.48,1.12-.2,1,1,.76,2.36a26.31,26.31,0,0,0-.6,8c.2,3.68,1.88,5.12,3.76,5.12,2.76,0,4-2.24,4.52-5.6A10.14,10.14,0,0,0,11.46,86.88Zm59,3.64c1.08,0,1.4,1.28,1.12,2A3.2,3.2,0,0,1,69,94.44C68.66,93.68,68.5,90.52,70.46,90.52Zm-20,1.72c0-.88-.48-1.6-1-1.6s-1.52.52-1.52,2.16A3.07,3.07,0,0,0,48.54,95,2.65,2.65,0,0,0,50.42,92.24ZM34.5,81.8a1.52,1.52,0,0,0-1.6-1.4,2.08,2.08,0,0,0-1.8,2.32,1.53,1.53,0,0,0,1.52,1.56A2.25,2.25,0,0,0,34.5,81.8Zm8.32,3c-.08-1.44-.44-2.08-1.2-2-1,.08-1.48,3.28-1.28,6.64.12,2.2.48,2.56.76,2.52C41.66,91.92,43,88,42.82,84.8Zm34,5.4c-.64,2.64-2.56,6.52-5.44,6.52-.68,0-1.84-.24-1.84-.92s4.52-.8,4.52-4.24a3.18,3.18,0,0,0-2.92-3.08c-2.32,0-4.56,2.52-4.56,6,0,3.12,2,4.16,3.88,4.16,3.4,0,5.44-2.76,6.52-5.08.52,1.52.8,5.08,2.12,5.08.52,0,.88-.24,1.48-1.64,1.52-3.44,3-7.4,5.08-7.4.76,0,.32,1.4,2.16,1.4a1.5,1.5,0,0,0,1.48-1.56c0-1.16-1.08-2.08-2.72-2.08-4.8,0-5.84,7.24-6.6,7.24-1.28,0-.88-5.8-1.8-5.8S76.94,89.72,76.82,90.2Zm-41,6.16a3.57,3.57,0,0,0,3.12-1.92,19.89,19.89,0,0,1-1.08-5c-.32-5,1.6-9.64,3.72-9.76,1.52-.08,2.76,1.36,2.92,3.72.36,6.2-1.68,8.76-2.72,11a3.61,3.61,0,0,0,3,2.32,1.81,1.81,0,0,0,1.28-.48,4.52,4.52,0,0,1-.2-1.48c0-3.6,2.32-6.6,4.32-6.6,1.6,0,2.52,2.12,2.52,3.48,0,1.64-1.4,3-3.44,4.24a2.46,2.46,0,0,0,1.6.6c2.92,0,4.44-3.52,5.6-6.76.2-.6.56-1.48,1.28-1.48,1.24,0,1.76,8.08,3.8,8.08.88,0,1.6-1.8,1.6-3.16,0-1-.36-1.12-.36-2.6,0-1.64.88-3,2-3,.72,0,1,.72,1,1.6,0,3.28-2.36,9.36-5.84,9.36-2.6,0-2.4-4.52-3.32-4.52s-2.48,4.56-7.52,4.56a3.17,3.17,0,0,1-2.4-1.24,5.8,5.8,0,0,1-3.44,1.2c-1.88,0-2.72-2-3.48-2-.92,0-2,2-5,2-2.44,0-2.88-3.28-3.72-3.28s-2,3.28-3.24,3.28c-2.16,0-2.6-5.68-4.52-5.68-1.48,0-6.2,5.76-7.44,5.64-.52,0-.72-.44-.68-1,.08-.72.68-2.6.92-3.52.4-1.56.8-3.28,1-3.8a1.25,1.25,0,0,1,1.24-.88c.24,0,.28.44.36.8.24,1.28.64,2.56,1,2.56.72,0,3.08-4.56,4.48-4.56,1.68,0,1.88,7.16,4.2,7.16.76,0,1.32-.92,1.84-2,0-1.88.56-4.6,2.12-4.6,1.08,0,1.6,2.4.8,4.52-.08,2.52,1.56,3.16,2.64,3.16"/><path class="cls-1" d="M71.5,16a1.2,1.2,0,0,1-1.24-.6c-.24-.48-.16-1.28-.64-1.64a5.38,5.38,0,0,0,1.32.12c1.24,0,2.4-.84,3.28-.84a.72.72,0,0,1,.8.76C75.06,15,72.66,16,71.5,16Zm.6,3c2.84,0,5.4-2.24,5.4-4.24A1.69,1.69,0,0,0,75.94,13a1.17,1.17,0,0,1,.28.88c0,1.48-2.28,3.16-4.76,3.16a1.05,1.05,0,0,0-1.16,1C70.34,18.72,71.06,19,72.1,19Zm-.2,1.16c.36,2.6,4.28,6.08,5.32,6,.72,0,1-3.36,1-6,0-1.48.08-2.68-.72-2.92-1.24,2.52-4.52,3-5.6,2.92"/><path class="cls-1" d="M10.7,37.32c.92,0,.72-5.64,2.24-5.64.36,0,.48.36.48.8,0,1.28-.64,3.16-.64,4.2,0,.52.12.68.4.68.64,0,1.8-6.24,2.92-6.24.36,0,.52.36.52.72,0,1.32-1.64,5-1.64,6.12,0,.16,0,.28.2.28.68,0,2-2.92,2.48-4.4.24-.76.56-1.16.88-1.16s.52.28.52.92c0,1.48-1.36,4.92-2.56,7.24-.92,1.8-2.36,4.36-2.36,5.8a2.92,2.92,0,0,0,1.2,2.44c-1.76-.12-2.44-.28-3.08-1.64-2.92,5.8,5.36,5.24,2.52,10.36-.52-.92-4.6-1.88-4.6-7.24,0-4.64,4.08-7.36,4.08-9.28a1.16,1.16,0,0,0-.48-1c-.88-.76-.92-1.4-1.64-1.4-.52,0-1.16,1.2-.48,2.24.2.36.4.56.4.88,0,.76-1.2,2.8-2,2.8s-1.48-2.08-1.48-5.48c0-3,.68-6,1.52-6,.24,0,.32.16.32.4s-.12,1-.12,2.24.2,1.36.44,1.36"/><path class="cls-1" d="M17.62,45.28c1.16,0,2.08-.84,2.08-2.72V39.8a4.77,4.77,0,0,1,.8-3.12,4.91,4.91,0,0,0-.08,1.08c0,2.32,1.32,4,1.32,6.2,0,.84-.24,1.32-.88,1.32s-.56-.56-.72-.56-.28.36-.28.72a1.48,1.48,0,0,0,1.56,1.48A1.87,1.87,0,0,0,23.18,45c0-2.44-1.92-5.16-1.92-7.76a5.59,5.59,0,0,1,.56-2.52c0,5.4,4.6,9.36,4.6,11.6a.92.92,0,0,1-1,.92.87.87,0,0,1-.92-.88c0-.2,0-.24-.12-.24a1.41,1.41,0,0,0-.64,1.24,2,2,0,0,0,2.08,2,2.42,2.42,0,0,0,2.4-2.48c0-2.84-5.56-7.16-5.56-11.8a6,6,0,0,1,.72-3,9.38,9.38,0,0,0-4.72,8.08c0,2.32-.08,3.52-1.28,3.52-.64,0-.8-.56-1-.56s-.24.48-.24.64a1.49,1.49,0,0,0,1.44,1.56"/><path class="cls-1" d="M58.82,14.64c.36-.24,1.88.12,3.84-.84a1.63,1.63,0,0,1,.72-.2c1,0,.72,1.08,1.56,1.08.68,0,1.56-.56,2.08-.56.8,0,2,2.56,2,3.76,0,1.4-2.08,2.24-4.56,2.24a5.83,5.83,0,0,1-5.8-5.2C58.66,14.76,58.74,14.72,58.82,14.64Zm5.92,3.48c1.2,0,2.08-.56,2.08-.88,0-.12-.16-.2-.52-.2a17,17,0,0,1-2.4-.24c-1.16-.2-2-.64-2.36-.64-.12,0-.16,0-.16.12,0,.72,1.36,1.84,3.36,1.84"/><path class="cls-1" d="M18.22,55.52A4,4,0,0,0,15.9,59.4c0,2.68,2.84,6.76,7.56,6.76,4,0,5-2.76,5-4.6,0-4.12-2.52-7-5.8-7a3.29,3.29,0,0,0-3.4,3.24,4.49,4.49,0,0,0,4.6,4.48A2.27,2.27,0,0,0,26.22,60,3,3,0,0,0,23.46,57a.8.8,0,0,0-.84.84c0,.64.88,1.32,2,1.32a1.12,1.12,0,0,0,.6-.12.75.75,0,0,1,.08.32c0,.64-.6,1-1.52,1a2.66,2.66,0,0,1-2.72-2.68c0-1,.84-1.68,2.08-1.68A4,4,0,0,1,27,60.32c0,1.92-1,3-3.24,3-4.36,0-6.48-3.88-5.52-7.84"/><path class="cls-1" d="M49.22,71.44a11.09,11.09,0,0,0,1.64-.12c.4,0,.44.24.44.4,0,.6-1.32,1.32-3.68,1.32a2.37,2.37,0,0,1-2.48-1.56,10.67,10.67,0,0,1-5.48,1.64c-5.56,0-7-2.44-8.72-3.2-1.32-.6-3.36.56-6.24-2.6a7,7,0,0,0,1.32.12c2.48,0,3.84-1.24,3.84-3.2,0-.24,0-.52,0-.76a5.34,5.34,0,0,1,2.92,3.92c0,.28,1.16.52,1.88.52a2.24,2.24,0,0,0,2.44-2c3.28-.28,5.48-2.2,5.92-4.64a6.81,6.81,0,0,1,2.84,2A5.06,5.06,0,0,1,47.46,63a10.06,10.06,0,0,1,3,.52c0-.36.12-.8.64-.8.8,0,.6.88.88,1.4.12.28.8.44.8,1a.71.71,0,0,1-.72.72c-.12,0-.24,0-.32,0-.56.2-.56,4.12-2.84,4.12A4.61,4.61,0,0,1,45,66.8,1.17,1.17,0,0,0,44,66c-.44,0-.68.08-1.2.64a9.49,9.49,0,0,1-6.92,3c-.92,0-1.64-.08-1.84-.08s-.12,0-.12,0c0,.2.92.92,2.92.92,4.8,0,6-2.68,6.72-2.68a.65.65,0,0,1,.64.44A5.23,5.23,0,0,0,49.22,71.44ZM47.14,66a1.08,1.08,0,1,0,1.08-1.08A1.08,1.08,0,0,0,47.14,66"/><path class="cls-1" d="M68.66,52.44c-.4,0-.8.28-.8,1a1.76,1.76,0,0,0,1,1.48,1.58,1.58,0,0,0,.8.2c.8,0,1.4-.2,1.4-.88S69.82,52.44,68.66,52.44Zm-2.92,1.68c-.56,0-3.72,4.2-5.76,4.2-.48,0-.88-.92-.88-1.64,0-.4.24-.64,1.12-.84,4.68-1.08,3.64-4.56,7.64-4.56a4.55,4.55,0,0,1,4.64,4.88c0,3.6-5.12,8-5.88,8a1.66,1.66,0,0,1-1.32-1.48c0-.2.08-.44.64-.64,2.6-1,4.12-3.44,4.12-4.64,0-.28-.12-.56-.48-.56s-2.44,4.52-4.64,4.52c-1.52,0-3.08-1.4-3.08-2,0-1.08,4.4-3.08,4.4-4.64,0-.56-.32-.6-.52-.6"/><path class="cls-1" d="M11.94,18.48a3.3,3.3,0,0,1-1.76.6A2,2,0,0,1,8.1,17a2.32,2.32,0,0,1,1.44-2.16,1.79,1.79,0,0,0,0,.48A3.08,3.08,0,0,0,11.94,18.48Zm5.8,5.24a5.24,5.24,0,0,0-1.24,3.12,2.41,2.41,0,0,0,2.28,2.68,2.08,2.08,0,0,0,2-2.32C20.74,25.4,19.1,24.12,17.74,23.72Zm-9,1.08a.74.74,0,0,0-.08.28.59.59,0,0,0,.52.52c.2,0,.36,0,.48,0,.64,0,1.4.48,2.44.48a5.36,5.36,0,0,0,2.28-.64,5.63,5.63,0,0,0,2.72-3.8c0-.52-.4-.44-.76-.92s-.2-.88-.44-1.12a3,3,0,0,0-1-.2c-.16,0-.4,0-.6,0a5.6,5.6,0,0,0-3.16.88C8.74,21.68,9.1,24.16,8.7,24.8Zm6.4-3.36c.2.24.72.56.72.76,0,.36-.2.88-.64.88-1,0-1.72-1.44-1.72-2.24,0-.52.28-.56.72-.56a.6.6,0,0,1,.4.12C14.82,20.48,14.82,21,15.1,21.44Zm-2.52,3.32a2.27,2.27,0,0,1-1.88-2.12c0-.56.4-1.24.72-1.24.12,0,.16.08.2.28a3.17,3.17,0,0,0,1.84,2.48q.12.06.12.12C13.62,24.48,13.1,24.76,12.58,24.76Zm2.32-6.88a5.81,5.81,0,0,0,.24-1.56c0-1.32-.6-3.28-2.44-3.28a1.84,1.84,0,0,0-1.84,1.84C10.9,17,13,17.88,14.9,17.88Zm-7,10.88c0,2.08.64,3,1.76,3,.88,0,2-.64,3.44-1.84a12.15,12.15,0,0,1-2.6.4C9.46,30.4,8.7,30,7.86,28.76Zm1-2.4a1.36,1.36,0,0,0,0,.4c0,1.28.68,2,1.56,2a2.82,2.82,0,0,0,2.16-1.32,7.17,7.17,0,0,1-1,.08A3.29,3.29,0,0,1,8.82,26.36ZM15.5,26a2.55,2.55,0,0,0-1.92,2.28,1.61,1.61,0,0,0,1.72,1.6,1.94,1.94,0,0,0,1.08-.28,3.17,3.17,0,0,1-1-2.36A2.74,2.74,0,0,1,15.5,26Zm1-7.44a1.08,1.08,0,1,0,1.08-1.08A1.08,1.08,0,0,0,16.46,18.52ZM17.86,21a1.08,1.08,0,1,0,1.08-1.08A1.1,1.1,0,0,0,17.86,21"/><path class="cls-1" d="M60.3,34.32a1,1,0,0,1,1-1,1.06,1.06,0,0,1,1.08,1,1.05,1.05,0,0,1-1.08,1.08A1.09,1.09,0,0,1,60.3,34.32Zm-9.56-8.4a1.08,1.08,0,1,0,1.08-1.08A1.08,1.08,0,0,0,50.74,25.92Zm-.92,3.84a1.56,1.56,0,1,0,1.56-1.56A1.59,1.59,0,0,0,49.82,29.76ZM53.26,28a1.62,1.62,0,0,0,1.64,1.64A1.66,1.66,0,0,0,56.58,28,1.63,1.63,0,0,0,54.9,26.4,1.6,1.6,0,0,0,53.26,28Zm.12-3.56a1,1,0,1,0,1-1A1.09,1.09,0,0,0,53.38,24.48Zm4.92-2.6a1,1,0,1,0,1-1A1.06,1.06,0,0,0,58.3,21.88Zm-2,3.36A1.74,1.74,0,0,0,58,27a1.74,1.74,0,1,0-1.76-1.72Zm-2.8,6.36a1.08,1.08,0,1,0,1.08-1.08A1.08,1.08,0,0,0,53.46,31.6ZM57,29.4a1.08,1.08,0,1,0,1.08-1.08A1.08,1.08,0,0,0,57,29.4Zm-1,3.84a1.88,1.88,0,1,0,1.88-1.88A1.88,1.88,0,0,0,56,33.24Zm3.92-2.32a1.28,1.28,0,1,0,1.28-1.28A1.32,1.32,0,0,0,59.94,30.92Zm-.08-3.4A1.14,1.14,0,1,0,61,26.36a1.15,1.15,0,0,0-1.12,1.16"/><path class="cls-1" d="M62.62,63.2A8,8,0,0,1,57.5,65a6.15,6.15,0,0,1-2.32-.48c-.28,0-.56.28-.88.64a6.12,6.12,0,0,0-1.48,3.72A2.22,2.22,0,0,0,55.22,71c5.08,0,8.88-3.16,8.88-5.76C64.14,63.8,63.26,63.2,62.62,63.2Zm-1.4-.32a1,1,0,0,0,.28-.8v-.64c0-.8-1.2-1.24-2.84-1.24-2,0-3,.88-3,1.28v1.24c0,.52,1.2,1,2.68,1A4.32,4.32,0,0,0,61.22,62.88ZM61,65.56c.12,0,.28.08.28.56a2.36,2.36,0,0,1-1.24,2,5.2,5.2,0,0,1-3,.88,6.84,6.84,0,0,0,.4-2c0-.2,0-.4,0-.64h.36a5.51,5.51,0,0,0,3.2-.8"/><path class="cls-1" d="M50.62,32.36c.28,2.32,3.4,1.16,3.4,4,0,.4-.12,1-.12,1.52s0,1.12.52,1.12.56-.32.56-.76-.12-1-.12-1.28a1,1,0,0,1,1.08-1.16c1,0,1.84,1.08,3.36,1.08-.36,1.76-4,1.28-4,3.2,0,1,1,1.16,1.56,1.16s.76-.08.76-.56c0-.28,0-.56,0-.76a.19.19,0,0,1,.2-.2c.6,0,3.52,2.24,3.52,2.92s-3.08,1.24-4,1.24a.28.28,0,0,1-.32-.28c0-.2.48-.76.48-1.08s-.4-.4-1.48-.4c-.52,0-.88,0-.88.48,0,.72,1.2,1.64,1.2,2.32s-.32.88-1.2.88c-.72,0-1.84-.56-1.84-1.52,0-.76.8-1.52.8-2a.41.41,0,0,0-.44-.36c-1,0-1.28,2.68-4.84,3a2.74,2.74,0,0,0,1-2.24c0-.56-.12-1-.12-1.64,0-.8.36-1.24.92-1.24,1,0,1.48,1.4,2.16,1.4a.76.76,0,0,0,.72-.8c0-2.08-4-1.76-4-4.68A7,7,0,0,1,50.62,32.36Zm13,8c0,.68.2,1.48.88,1.48s1.08-.88,1.08-1.84-.2-1.92-.2-2.36c0-.2.08-.28.2-.28.4,0,.8,1.16,1.24,1.16s1.2-.88,1.52-.88c.08,0,.12.12.12.12,0,.4-.64,1.32-.64,1.64s1.56.36,1.56.64-1.64.4-2.44.76-1.24.72-1.24,1.28.56.64,1.32.64c1.8,0,3.08-1,3.52-1a.11.11,0,0,1,.12.12c0,.28-.92,1.16-.92,1.56s1.68,1,1.64,1.28c0,.08-.12.12-.32.12s-.76-.08-1.12-.08a.77.77,0,0,0-.48.12c-.2.2,0,1.64-.32,1.64s-1.28-3.2-3.36-3.2c-.28,0-.52.24-.52.64a4.12,4.12,0,0,0,2.08,2.92c.44.28,1.2.6,1.2.76,0,.32-1.72,0-1.72.56s.2,1.24.2,1.64c0,.12,0,.28-.2.28-.32,0-1.12-1.48-1.48-1.48s-1,.88-1.32.88c-.08,0-.12-.08-.12-.16,0-.64,1-2,1-3.44,0-.64-.08-2.08-.88-2.08-.64,0-1.4,1-1.72,2.08-.2.6,0,2.92-.48,2.92s-.28-1.56-.84-1.56c-.4,0-1.28.72-1.56.72,0,0-.12,0-.12-.08,0-.32.8-1.4.8-1.6,0-.4-1.8-.48-1.8-.8s.72-.32,1.36-.44c1.4-.24,3.44-1.24,3.44-2.68s-1.52-2.24-2.52-2.92c-.52-.32-1.08-.6-1.08-.8s.64-.2.92-.2.8,0,.8-.36,0-.72,0-1.12,0-.48.12-.48c.4,0,1,1.32,1.24,1.32.44,0,1-1.08,1.44-1.08.12,0,.2.08.2.32,0,1.16-.56,2.32-.56,3.28"/><path class="cls-1" d="M51.38,47.84c1.24.16,1.56.6,1.56,1,0,.6-.56.8-1.08.8-.36,0-.8-.08-1.28-.08a2,2,0,0,0-1.68.72.9.9,0,0,1,.88.84c0,1.56-4.36.28-4.36,4.32,0,2.16,2.24,4.48,5.6,4.48,1.76,0,2.84-.56,2.84-1.24,0-.52-.92-.16-.92-.6,0-.2.32-.56.32-.84,0-.12-.12-.36-.32-.36-.48,0-1.4.8-3.28.8-1.48,0-2.92-.84-2.92-2,0-.24.12-.4.28-.4s.4.12.56.12.2-.12.2-.4,0-1.16.52-1.16,1.48,1.92,5.24,1.92c1.24,0,3.68-.24,4.56-1.08a7.06,7.06,0,0,1-7.28,6.92A7.67,7.67,0,0,1,43,53.72a8,8,0,0,1,8-7.92c1.2,0,2.2.4,2.2.92C53.3,47.44,51.54,47,51.38,47.84Zm8.36,1.44a1.52,1.52,0,0,1,.28.88c0,.76-.52,1.48-.52,2.24A1.64,1.64,0,0,0,61.22,54a1.87,1.87,0,0,0,1.88-2C63.1,50.64,61.78,49.44,59.74,49.28Zm-9,1.76a1.1,1.1,0,0,1,.36.8c0,.4-.2.84-.2,1.32a1.21,1.21,0,0,0,1.2,1.24,1.27,1.27,0,0,0,1.28-1.32C53.38,52,52.34,51,50.74,51Zm3.64-4.64a5,5,0,0,1,4.4,4.72,2.48,2.48,0,0,1-2.4,2.68A2.31,2.31,0,0,1,54,51.32c0-1.16.88-2.32.88-3.52A2.2,2.2,0,0,0,54.38,46.4ZM55.78,50a.64.64,0,0,0,.64.68.76.76,0,0,0,.72-.8c0-.56-.52-1.36-1-1.36-.2,0-.12.32-.2.68a5.66,5.66,0,0,0-.16.8"/><path class="cls-1" d="M25.78,22c.92,0,2-5,2-5.84,0-.2-.08-.4-.28-.4-.84,0-2,4.76-2,5.84C25.46,21.84,25.5,22,25.78,22Zm6.64,1.52c.68,0,1.44-2.6,1.44-4.24,0-.36,0-.72-.2-.72-.56,0-1.52,2.68-1.52,4.16C32.14,23.28,32.26,23.56,32.42,23.56ZM28,21.12c.28,0,.68-.32,1.4-1.12a9.39,9.39,0,0,0,0-1.08c0-.56-.2-1.16-.56-1.16-.8,0-1.24,2.16-1.24,2.76C27.66,20.84,27.82,21.12,28,21.12ZM31.7,20c0-.48-.12-.56-.2-.56-.28,0-.56.32-1,1.08,0,1,.2,1.4.48,1.4S31.7,21,31.7,20Zm2.12-3.2c1.8,0,2.6,1.56,2.6,3.28,0,.76-.2,1.88-.56,1.88s-.28-.64-.36-1.2c0-.72-.2-.88-.44-.88-.48,0-.76,1.08-.76,2.08,0,.64.12,1.32.6,1.32a1,1,0,0,0,.68-.28,2.43,2.43,0,0,1-2.32,2.32c-2.4,0-3.28-2.8-3.56-4.44-1.44,1.52-2.76,2.64-5.16,2.64a3.07,3.07,0,0,1-3.24-3.2c0-.48.16-1.64.72-1.64s.08,2.24,1.4,2.24c.32,0,.92-.28,1.24-1.16a4.82,4.82,0,0,0,.28-1.6c0-.72-.16-1.2-.72-1.2a2.11,2.11,0,0,0-1.24.56,4.09,4.09,0,0,1,4-3c2.16,0,3.28,1.92,3.28,4a7.14,7.14,0,0,1-.08.92c1-1.56,2.28-2.72,3.68-2.72"/><path class="cls-1" d="M28.74,24.12c-1.16,0-1.24,1.4-1.24,4.28-.88-1.88-2.32-3.88-4-3.88-1.16,0-1.56.76-1.56,2.08a6.57,6.57,0,0,0,.08.92c.12-.48.56-.64,1.12-.64A4.94,4.94,0,0,1,26.66,29a16.82,16.82,0,0,0-3-.4,3.21,3.21,0,0,0-1.44.24,3.59,3.59,0,0,0-1.84,3.28,7.18,7.18,0,0,0,.08.88,5.88,5.88,0,0,1,5.12-3.08c.32,0,.56,0,.76,0a4.35,4.35,0,0,0-1.08,3c0,.44-.2.48-.48.48,0,.88.72,2.24.72,2.92,0,.24-.12.48-.28.52,0,1.2,1.2,2.08,1.2,2.84a.64.64,0,0,1-.12.44c.08.48,1.4,1.32,1.56,1.72s.44.6.6.6c.48,0,1.2-.56,1.2-1a.61.61,0,0,0-.24-.44,3.76,3.76,0,0,1-1-1.72.5.5,0,0,1-.52-.4c-.16-.56-.16-1.6-.36-2.24-.36-.08-.52-.2-.52-1,0-.36.2-1.76.2-2.24a.41.41,0,0,1-.4-.44c0-.88.88-1.56,1.12-2.68a4,4,0,0,1,1.92,3.36,6.67,6.67,0,0,1-.2,1.56c1.16-.56,2.84-1.4,2.84-3.12,0-1-.48-2.12-3.52-2.56A9.57,9.57,0,0,1,32.18,29c1.76,0,2.76.56,3,1.76A3.38,3.38,0,0,0,35.78,29a2.3,2.3,0,0,0-2.52-2.2c-1.64,0-3.12.88-4.72,1.92.72-1.48,1.2-2.32,2.08-2.32.12,0,.28,0,.4,0-.44-1.2-1.64-2.36-2.28-2.36"/><path class="cls-1" d="M74.54,43.72c1.36,0,2.44,1.76,2.44,3.84A8.61,8.61,0,0,1,74.1,53.8c0-3.68-4.52-2.52-4.52-5.16a1.8,1.8,0,0,1,1.8-1.92,2.76,2.76,0,0,1,2,.72,2.48,2.48,0,0,1-.72-1.76,1.84,1.84,0,0,1,1.84-2"/><path class="cls-1" d="M50.26,17.88a2.86,2.86,0,0,0,2.08,1c.32,0,.64-.08.84-.08s.4.12.4.28a1.86,1.86,0,0,1-.6,1.08,3.05,3.05,0,0,0,1.08.2,3.19,3.19,0,0,0,3.32-3.44,3.71,3.71,0,0,1,.52,1.76,3.91,3.91,0,0,1-4.2,4.12,5.66,5.66,0,0,1-2.12-.44c-.52,0-.48,1-.84,1-.64-.12-1.2-1.48-1.2-3A4.4,4.4,0,0,1,50.26,17.88Zm4.12-2c-.2-.36-1-.56-1.4-.56A2.17,2.17,0,0,0,50.82,17a2.37,2.37,0,0,1-.2-.92,2.63,2.63,0,0,1,2.8-2.68,5.09,5.09,0,0,1,2.68.92c.28,0,.56-.28.76-.28s.28.48.28.8c0,1.08-.48,3-1.72,3.64a2.72,2.72,0,0,0-1.36-1.32.42.42,0,0,1-.28-.4,1,1,0,0,1,.6-.8"/><path class="cls-1" d="M31.38,10c0,1,3.4,5.6,4,5.6s1-1,1-1.76a1,1,0,0,0-.16-.6c-.48-.68-4-3.4-4.72-3.4C31.42,9.8,31.38,9.88,31.38,10Zm-20-2.8c0,.56-2.08,2.36-2.8,2.36-.28,0-.36-.32-.36-.64a2.3,2.3,0,0,1,.56-1.56,3.09,3.09,0,0,1,1.8-.48C10.94,6.88,11.38,7,11.38,7.16Zm24.84,1.6c0-1.64-4.4-4.6-4.48-5.88a.36.36,0,0,1,.16-.32c.76-.8,3.88-1.36,3.88-2,0-.36-.64-.36-1-.36-2.52,0-6.24.92-6.24,1.84S31.9,5.2,31.9,6.28c0,.28-.2.4-.48.4-.92,0-2.92-1.12-3.88-1.12-.44,0-.6.28-.6.72,0,1.32,1.56,3.76,1.56,4.52,0,.08,0,.2-.12.2-.48,0-2.8-2.72-3.6-2.72-.28,0-.32.4-.32,1v.92c0,.64,0,1-.32,1-.72,0-1-2-1.72-2s-.84,3.52-1.52,3.52S20.78,8.84,20,8.84s-1.8,2.6-2.4,2.6c-.2,0-.28-.2-.28-.4,0-.8.48-2.08.48-2.84,0-.4-.12-.6-.44-.6C16.54,7.6,14.7,9,14,9c-.12,0-.24,0-.24-.16,0-.64,3-2.72,3-3.64s-4.08-.28-4.08-1.32c0-.88,2.92-1.76,2.92-2.68S12.1,0,10.74,0C9.14,0,8.26.2,8.26.64c0,.72,3.64.92,3.64,1.56S8.1,4.4,8.1,5.32s5.32,0,5.32.88-4.64,4.92-4.64,6.24c0,.28.2.44.52.44,1.4,0,5.08-2.68,6.08-2.68.36,0,.4.44.4.8,0,.72-.24,1.8-.24,2.6,0,.64.16,1,.72,1,1,0,1.92-1.72,2.6-1.72.88,0,.36,5,1.64,5,1.12,0,1.56-5.44,2.28-5.44s1.28,1.56,1.92,1.56c.8,0,.44-2.76,1.32-2.76S29.7,14.6,30.9,14.6c.4,0,.52-.28.52-.68,0-1.44-2-4.72-2-5.72,0-.28.08-.36.36-.36,1.08,0,4.16,1.48,5.64,1.48C35.9,9.36,36.22,9.12,36.22,8.76Zm-2.84-5.4c0,.48,1.72,1.56,2.52,1.56.48,0,.6-.64.6-1.28,0-.8-.36-.84-1.08-.84C34.5,2.8,33.38,3,33.38,3.36ZM27,.6c0-.16-.8-.32-1.92-.32-1.76,0-1.52,1.48-2.88,1.48S21.1.24,19.34.24c-1.08,0-2.08.2-2.08.44s1.28.2,1.28,1.08S15.78,3,15.78,3.56c0,.2.2.28.48.28.6,0,1.56-.28,2.24-.28.4,0,.72.08.72.44,0,.68-1.48,1.92-1.48,2.44,0,.16.12.2.28.2.56,0,1.48-1.4,2.32-1.4,1.44,0,.48,3.08,1.28,3.08s.48-3,1.64-3c1,0,1.64,2.08,2.32,2.08a.29.29,0,0,0,.28-.32c0-.56-.8-1.76-.8-2.52,0-.48.32-.68.76-.68.64,0,1.48.4,1.92.4.16,0,.32,0,.32-.24,0-.64-2.4-1.36-2.4-2.2S27,1,27,.6"/><path class="cls-1" d="M75.18,5c0,2.4-1.76,4.28-5,4.8a8.7,8.7,0,0,0,1,0c3.72,0,5.08-1.68,5.08-3.08A1.66,1.66,0,0,0,75.18,5Zm-4.6,2.76c0-1.92-4.6-2.44-4.6-2.84s2.56-1,3.92-1c-2-2.6-5-2.32-5-2.8,0-.28,2.16-.8,4.2-.8,1.68,0,3.28.4,3.28,1.64,0,.72-.56,1.44-.56,2.52a1,1,0,0,0,1.08,1.12c.84,0,1-.88,1-1.84,0-.8-.12-1.4-.12-1.76A1.82,1.82,0,0,1,75.74.12c.92,0,1.16.4,2.52.4a2.14,2.14,0,0,0-1,1.6C77.26,3.28,78,4,78,6.4c0,4.28-4,5.8-9,5.8a30.15,30.15,0,0,1-4.2-.32c-.2,0-.28-.08-.28-.2,0-.36,1.92-.56,1.92-2.28a14.11,14.11,0,0,0-.2-1.56.21.21,0,0,1,.2-.2c.4,0,1.24,1.56,2.76,1.56A1.39,1.39,0,0,0,70.58,7.76Zm4.44-6a.67.67,0,0,0,.68.68.65.65,0,0,0,.68-.68A.65.65,0,0,0,75.7,1a.7.7,0,0,0-.68.68"/><path class="cls-1" d="M72.62,26.88c0-.56-1.44-.64-1.56-2.24,0-.24-.12-.68-.4-.68-.48,0-.12,1.48-.64,1.48-1.24,0-1.64-2.44-2.12-2.44-.12,0-.24.08-.24.4s0,.48,0,.84-.08.6-.4.6c-.72,0-1.4-1.72-2-1.72-.12,0-.28.08-.28.2,0,.32.56.92.56,1.24,0,.64-1.76.28-1.76.84,0,.24.24.32.56.32.56,0,1.48-.24,1.92-.24.28,0,.68,0,.68.4s-1,.88-1,1.24a.26.26,0,0,0,.28.24c.72,0,2-1.28,3-1.28.16,0,.56.08.56.32s-.92,1-.92,1.48a.26.26,0,0,0,.24.28c.48,0,1.12-1.28,2.08-1.28.36,0,.88.12,1.16.12S72.62,27,72.62,26.88ZM73.3,40a16.49,16.49,0,0,1,1.88-3.76c-.88-.48-3.24-1.44-3.24-3,0-1.88,2.32-3.36,2.84-3.36.2,0,.28.2.28.56,0,1-.48,2.56-.48,3.4s.48,1.48.92,1.48,1.76-1.64,1.76-3.24a3.67,3.67,0,0,0-3.32-3.76c-.72,0-2.08,1.2-5.2,1.2-5.84,0-7.16-5.8-7.16-8.32,0-.12,0-.12,0-.12a4.09,4.09,0,0,0,2.56.72c1,0,1.84-.24,3.2-.24,3.24,0,4.72,2.24,6.72,5.12,1.2.76,4.12,2,4.12,5.44,0,3-3.24,4.72-4,8,1.24-.12,2-2.36,3.24-2.36.64,0,1,.52,1,1.32a5.91,5.91,0,0,1-2,4.12,1.23,1.23,0,0,0,0-.4c0-.76-.28-1.84-1.16-1.84-1.36,0-1.8,1.48-2.56,2.68-.8-2.76-1.84-5.28-3.76-6.8s-5.24-.72-5.24-3.52c0-.76.48-1.84.48-2.72a1.41,1.41,0,0,0-.2-.8c2.6,1,1.68,2.72,3.28,4.52,1,1.16,3.76,2.24,5.4,6.92a3.67,3.67,0,0,0,0-.72c0-4-5.32-8-5.8-9.6C70,31.28,70.54,32,72,36.12A15,15,0,0,1,73.3,40"/><path class="cls-1" d="M58.46,11.28c-1.92,0-3.16-1-3.16-1.44a.38.38,0,0,1,.4-.4c.6,0,1.92.92,2.32.92.12,0,.2,0,.2-.2,0-.48-.48-1.32-.48-1.72,0-.12.08-.2.24-.2.72,0,1.84.28,2.4.28.2,0,.24-.12.24-.2,0-.6-1.76-1.76-1.76-2.12s2.2-.8,2.2-1.32-3-.16-3-.68.56-1,.56-1.32c0-.12-.12-.2-.28-.2s-1.56.52-2.08.52c-.28,0-.6,0-.6-.44,0-.64,1.08-1.32,2.72-1.32,2.68,0,4.28,1.84,4.28,5C62.66,10.32,59.9,11.28,58.46,11.28ZM53.14,6.12c0-.28-1.08-.88-1.08-1.2,0,0,0-.08.12-.08.32,0,.8.12,1.24.12s.4-1.52.68-1.52.52,1.44.8,1.44,1-.4,1.28-.4c0,0,.12,0,.12.08,0,.2-.68.92-.68,1.16s1.52.56,1.52.76-1.56.24-1.56.48.56,1,.56,1.2a.09.09,0,0,1-.08.08c-.2,0-1.08-.4-1.32-.4S53.94,9,53.7,9c-.08,0-.12-.12-.12-.24l0-1.08c0-.12,0-.2-.2-.2-.32,0-1,0-1.16,0s-.2,0-.2-.08C52.06,7.08,53.14,6.32,53.14,6.12Zm-.8,4.44c.44,0,.52,1.08.6,1.68,0,.32.12.36.24.36.32,0,.84-1.24,1.2-1.24.52,0,1.92,1.44,4.2,1.44A6.21,6.21,0,0,0,65,6.4c0-4-2.76-6.24-6.6-6.24C56.54.16,55.22,1,54.5,1c-.44,0-1.08-1-1.4-1-.12,0-.28.28-.28.72,0,.28,0,1.24-.32,1.24C51.86,2,49.3.08,49.3.76S51,3.28,51,3.76s-1.64,1-1.64,1.28c0,.6,1.76.72,1.76,1.48s-1.84,1.36-1.84,1.92,1.84.12,1.84.72-1.36,2.48-1.36,3c0,.12,0,.12.12.12.56.08,2.12-1.72,2.48-1.72"/><path class="cls-1" d="M40,58.32a1.39,1.39,0,0,1-.28.8,1.93,1.93,0,0,0-1.52-.8c-2.8,0-1.76,4-4.72,4a15.65,15.65,0,0,1-1.84-.16c-.2,0-.28.08-.28.24,0,.72,1,2.44,3.8,2.44s5.48-1.72,5.48-3.84a3,3,0,0,0-.24-1.12.87.87,0,0,1,.64-.28c.44,0,.68.48,1.08.48a.74.74,0,0,0,.76-.76.82.82,0,0,0-.52-.76,1,1,0,0,0,.4-.72A.84.84,0,0,0,41.9,57a.77.77,0,0,0-.6.28.93.93,0,0,0-.84-1,.7.7,0,0,0-.72.76c0,.44.28.76.28,1.24"/><path class="cls-1" d="M25.14,53.28c2.16.56,3.28,1.72,3.48,3.08a5.78,5.78,0,0,0,1,3,4.69,4.69,0,0,0,3.2,1.44c1,0,1.76-.32,1.76-1.24s-1.32-3.2-3.28-3.2c-.2,0-.44,0-.72,0a1.18,1.18,0,0,1-.8-.24c-.44-.4-.56-2.44-1.4-3.64a3.42,3.42,0,0,0-3.2-1.76c-1,0-2,.52-2,1.28C23.14,52.52,23.38,52.84,25.14,53.28Zm7.6,6.08c-.8,0-2-.88-2-1.36a.69.69,0,0,1,.68-.64c.68,0,1.92.84,1.92,1.56a.51.51,0,0,1-.56.44"/><path class="cls-1" d="M30.22,38.16c0-1.76,4.12-2.68,4.12-4.8a3.15,3.15,0,0,0-.4-1.44c1.44.8,2.52,2.12,2.52,3.2,0,1.88-2,2.76-2,3.92,0,1.36,2.08,1.56,2.08,3.28,0,1.4-2,3-2,4.8a2.7,2.7,0,0,0,2.48,2.72,5.63,5.63,0,0,1-1.4.2c-2.76,0-5.56-2.24-5.56-5a4.72,4.72,0,0,1,1.44-3.36,4,4,0,0,0,2,1.08c.44,0,.64-.2.64-.56C34.22,41.24,30.22,40.32,30.22,38.16ZM38.9,51.92c-.92.44-1.32.36-1.32,1.32,0,.36-.08.8-.08,1s0,.52.44.52c1,0,2.52-1.64,2.52-3.08,0-.4-.2-.56-.48-.56S39.54,51.6,38.9,51.92Zm-.12-2c0-1.24-2.52-1.24-2.52-3.08a4.06,4.06,0,0,1,.88-2.08,2.9,2.9,0,0,0,2,2.6c2.4.88,2.76,2.24,2.76,3.68,0,2.44-1.72,5.48-6.12,5.48a6.22,6.22,0,0,1-6.08-5.8c0-.72.2-1.56.64-1.56s.56.32.88.64a5.63,5.63,0,0,0,4.48,1.56c1.76,0,3-.72,3-1.44"/><path class="cls-1" d="M19.54,50.52a1,1,0,0,1-.92,1.16,1.06,1.06,0,0,1-1.16-.92,1,1,0,0,1,.92-1.16A1.1,1.1,0,0,1,19.54,50.52ZM14.46,51.6a1.78,1.78,0,0,0,2,1.52,1.76,1.76,0,0,0,.88-.28,1.62,1.62,0,0,0,1.92,1.28,1.7,1.7,0,0,0,1.56-1.92,2.49,2.49,0,0,0-.16-.64.86.86,0,0,0,.24,0A1.77,1.77,0,0,0,20.5,48a1.48,1.48,0,0,0-.88.36,1.84,1.84,0,0,0-2-1.36,1.76,1.76,0,0,0-1.48,2,1.57,1.57,0,0,0,.12.56,1.42,1.42,0,0,1-.28,0,1.94,1.94,0,0,0-1.48,2"/></g></g></svg>