<?xml version="1.0" encoding="utf-8"?>
<!-- Generator: Adobe Illustrator 27.2.0, SVG Export Plug-In . SVG Version: 6.00 Build 0)  -->
<svg version="1.1" id="Layer_3" xmlns="http://www.w3.org/2000/svg" xmlns:xlink="http://www.w3.org/1999/xlink" x="0px" y="0px"
	 viewBox="0 0 677.8 612.5" style="enable-background:new 0 0 677.8 612.5;" xml:space="preserve">
<style type="text/css">
	.st0{fill:#B6C7DB;}
	.st1{opacity:0.7;fill:#1C202E;}
	.st2{fill:#FFFFFF;}
	.st3{fill:#FFCC60;}
	.st4{fill:#1C202E;}
	.st5{fill:#3F4969;}
	.st6{fill:none;stroke:#1C202E;stroke-width:2.242;stroke-miterlimit:10;}
	.st7{fill:#00EEB3;}
	.st8{fill:none;stroke:#00EEB3;stroke-width:2.242;stroke-miterlimit:10;}
</style>
<polyline class="st0" points="386.7,1187.4 244.8,522.8 412,528 519,1161.1 "/>
<path class="st1" d="M424.9,987.7c9.5-47.2-19.9-92.6-29.9-139.8c-11.6-54.8,3.4-111.2,15.4-166c6.6-29.8,12.1-60.9,12.2-91.4
	L412,528l-96.8-3c-23.7,7.3-45.6,18.6-62.5,34l113.9,532.3"/>
<polyline class="st2" points="218.6,1170.5 388.8,525.2 211.9,529.6 105.1,1145.7 "/>
<path class="st3" d="M273.7,113.5l-67.4,49.1L217.4,390l-6.3,148.2l206-1.6l-53.6-325c-6.1-37.2-29.9-69.1-63.8-85.5L273.7,113.5z"
	/>
<path class="st4" d="M394.6,414.6c-1.2,1.9-111.9,122.1-111.9,122.1l-71.6,1.5c0,0,3.1-89.7,4.9-89
	C217.8,449.8,394.6,414.6,394.6,414.6z"/>
<path class="st4" d="M365.1,32.2c0,9.3-2.3,18.6-6.6,26.8c-13.5-0.8-27.1-9.5-31.6-22.3c-1.7-4.7-2.2-10.3,0.7-14.4
	c2.1-3,5.6-4.7,9.1-5.7c5.3-1.5,10.7-1.4,15.9-0.2C359.9,18.1,365.1,24.6,365.1,32.2z"/>
<path class="st5" d="M296.7,156c-18.4-9.3-28.7-29.3-25.5-49.7L281.3,41c0.1-0.7,0.3-1.3,0.5-2c1.8-5.7,11.2-30.4,38-26.1
	C350,17.8,354,38.4,354,38.4s6.5,19.9,4.2,49.8c-2.4,30-25,31.2-25,31.2l-0.6,26.3l0,0c0.9,13-12.7,22-24.3,16.1L296.7,156z"/>
<path class="st4" d="M333.1,119.4c-7.3,0.5-14-1.2-20.6-4.3c4.5,6.9,12.6,13,20.3,15.9L333.1,119.4z"/>
<g>
	<polyline class="st6" points="341.2,63.5 342.9,85.3 335.4,84.4 	"/>
	<path class="st6" d="M335.8,97.2c-4.4-1.4-8.1-4.7-10.2-8.8"/>
</g>
<path class="st4" d="M275.6,83.5c13.3-11.6,26.7-25.3,37.2-39.5c16.8-1.8,33.1-7.7,47.1-17c1.3-0.8,1.8-2.1,1.5-3.6
	c-0.3-1.5-1.4-2.7-2.4-3.7C347.4,8.4,329.9,4,314.1,7.6c-15.7,3.7-29.3,15-36.3,29.5C270.7,51.7,270.6,68.2,275.6,83.5z"/>
<circle class="st5" cx="290.7" cy="68.6" r="9"/>
<g>
	<circle class="st7" cx="295.1" cy="62.9" r="19.1"/>
	<path class="st8" d="M322.9,6.4c-15.5,6-27.1,20.9-29.3,37.4"/>
</g>
<path class="st4" d="M492.8,280.2l50.3-22.2c2.6-1.1,5.6,0.1,6.6,2.7l0,0c0.9,2.3-0.1,4.9-2.3,6.1l-72.9,38.3
	C476.8,302.5,492.8,280.2,492.8,280.2z"/>
<path class="st5" d="M275.6,83.5l-16.3,42.1l28.8,31.3c11.4,12.4,27.7,18.8,44.3,17.6c2.6-0.2,5.2-0.7,7.6-1.6l8.2-2.8l-16.5-23
	c0,0-45.4-33.2-45.9-35S275.6,83.5,275.6,83.5z"/>
<path class="st3" d="M291.1,334l-18-119.9c-4.8-32.3-34.4-55-66.9-51.5h0v0c-28.1,22.7-42.5,58.2-38.1,94.1l13.4,109L291.1,334z"/>
<line class="st6" x1="288.4" y1="337.1" x2="275" y2="229.6"/>
<g>
	<defs>
		<path id="SVGID_1_" d="M211.1,538.2l206-1.6l-53.6-325c-6.1-37.2-29.9-69.1-63.8-85.5l-26-12.6l-67.4,49.1c0,0,0,0,0,0h0v0
			c-28.1,22.7-42.5,58.2-38.1,94.1l13.4,109l34.1-9.9l1.7,34.2L211.1,538.2z"/>
	</defs>
	<clipPath id="SVGID_00000064318900184045038360000009809669699349453476_">
		<use xlink:href="#SVGID_1_"  style="overflow:visible;"/>
	</clipPath>
</g>
<path class="st5" d="M474.6,302.9l18-20.9c1-1.1,1.1-2.8,0.3-4.1c-1-1.5-3-2-4.6-1.1L297,388.8l-8-53.6l-106.4,30.2l8.1,65.8
	c3.9,32.1,27.5,58.3,58.9,65.6h0c22.8,5.4,46.9,0,65.3-14.5l185.3-145.8c8-6.3,14.6-14.3,19.4-23.3c2.5-4.8,5.1-10.5,7.4-16.9
	c7-20,5.3-22.5,5.3-22.5L474.6,302.9z"/>
<line class="st6" x1="298.3" y1="387.4" x2="278" y2="402.1"/>
<polygon class="st4" points="286.2,334.9 184.8,384.9 182.4,363 "/>
</svg>
