<svg xmlns="http://www.w3.org/2000/svg" viewBox="0 0 132.96 52.16"><defs><style>.cls-1{fill:#2470c7;}</style></defs><title>arc-1</title><g id="Layer_2" data-name="Layer 2"><g id="Layer_1-2" data-name="Layer 1"><path class="cls-1" d="M132.63,20.41a10.2,10.2,0,0,0-4.36-4.64,18.7,18.7,0,0,1-3.19-2.33c-1.84-1.67-2.8-2.49-3.73-3.29s-1.86-1.6-3.68-3.24A23.17,23.17,0,0,1,115,4.09,10.82,10.82,0,0,0,110,.28L109.32,0l-.47.52a61.13,61.13,0,0,1-7,6.64,61.28,61.28,0,0,1-8.08,5.38,60.6,60.6,0,0,1-8.72,4.24,61.82,61.82,0,0,1-9.37,2.54,61.44,61.44,0,0,1-9.59,1.43,63.52,63.52,0,0,1-9.71-.29,60.89,60.89,0,0,1-9.57-1.68,62.61,62.61,0,0,1-9.09-3.4,60.73,60.73,0,0,1-8.49-4.69A59.56,59.56,0,0,1,21.59,5l-.52-.47-.61.34a10.35,10.35,0,0,0-4.57,4.29,19.36,19.36,0,0,1-2.32,3.14c-1.63,1.81-2.49,2.62-3.4,3.49S8.34,17.54,6.66,19.4A28.62,28.62,0,0,1,4,21.94,11.52,11.52,0,0,0,.27,27.28L0,27.91l1.29,1.17A79.54,79.54,0,0,0,8.36,35a92,92,0,0,0,8.94,5.5c1,.54,1.87,1,2.74,1.5,2.45,1.31,4.57,2.32,6.64,3.19a94.08,94.08,0,0,0,9.93,3.37,94,94,0,0,0,10.18,2.51,79,79,0,0,0,9,.87l1.44.08A94.92,94.92,0,0,0,67.67,52c.89,0,1.78-.08,2.67-.11a60.8,60.8,0,0,0,7.79-.61,83,83,0,0,0,9-2.17l1.18-.34a89.93,89.93,0,0,0,9.89-3.42l1.28-.51a77.36,77.36,0,0,0,8.3-3.73,79.24,79.24,0,0,0,7.76-5l1-.71,1.49-1A74.66,74.66,0,0,0,125,29.1a98,98,0,0,0,7.54-7.57L133,21Z"/></g></g></svg>