<?xml version="1.0" encoding="UTF-8"?><svg id="Layer_2" xmlns="http://www.w3.org/2000/svg" xmlns:xlink="http://www.w3.org/1999/xlink" viewBox="0 0 195.77 372.63"><defs><style>.cls-1{fill:#995c4f;}.cls-1,.cls-2,.cls-3,.cls-4,.cls-5,.cls-6{fill-rule:evenodd;}.cls-7,.cls-6{fill:#744c4f;}.cls-8,.cls-2{fill:#fff;}.cls-9{stroke:#677a88;}.cls-9,.cls-10,.cls-11,.cls-12,.cls-13,.cls-14,.cls-15,.cls-16,.cls-17,.cls-18,.cls-19,.cls-20,.cls-21,.cls-22,.cls-23,.cls-24,.cls-25,.cls-26,.cls-27,.cls-28,.cls-29,.cls-30,.cls-31,.cls-32,.cls-33,.cls-34,.cls-35,.cls-36,.cls-37,.cls-38,.cls-39,.cls-40{fill:none;stroke-miterlimit:10;}.cls-9,.cls-13{stroke-width:37px;}.cls-41{fill:#e5a97c;}.cls-10,.cls-11,.cls-12,.cls-14,.cls-15,.cls-20,.cls-21,.cls-22,.cls-23,.cls-24,.cls-25,.cls-26,.cls-29,.cls-30,.cls-31,.cls-33,.cls-36,.cls-37,.cls-39,.cls-40{stroke-linecap:round;}.cls-10,.cls-14,.cls-19,.cls-31{stroke:#e5a97c;}.cls-10,.cls-23,.cls-25,.cls-32,.cls-35{stroke-width:29.5px;}.cls-11,.cls-12,.cls-20,.cls-39{stroke:#744c4f;}.cls-11,.cls-22{stroke-width:19.34px;}.cls-12{stroke-width:17.19px;}.cls-13{stroke:#41596a;}.cls-14{stroke-width:13.01px;}.cls-3,.cls-42{fill:#ebe7e8;}.cls-15{stroke-width:4.88px;}.cls-15,.cls-30,.cls-34,.cls-40{stroke:#30273b;}.cls-4{fill:#c88c69;}.cls-16,.cls-19,.cls-31,.cls-36{stroke-width:13.41px;}.cls-16,.cls-21,.cls-23,.cls-36{stroke:#eb9763;}.cls-17{stroke:#4f4756;}.cls-17,.cls-27,.cls-28,.cls-29,.cls-30,.cls-34{stroke-width:18.78px;}.cls-43,.cls-5{fill:#30273b;}.cls-18{stroke:#d18715;}.cls-18,.cls-26,.cls-39{stroke-width:23.63px;}.cls-44{fill:url(#radial-gradient);}.cls-20{stroke-width:10.74px;}.cls-45{fill:#ede9ea;}.cls-21{stroke-width:24.14px;}.cls-46{fill:#677a88;}.cls-22,.cls-26{stroke:#995c4f;}.cls-24{stroke:#c88c69;stroke-width:15.04px;}.cls-25,.cls-35{stroke:#335f77;}.cls-47{fill:#3d7898;}.cls-27,.cls-29{stroke:#231a2c;}.cls-28{stroke:#595262;}.cls-48{fill:url(#radial-gradient-2);}.cls-49{fill:#ffb446;}.cls-50{fill:#eb0a1e;}.cls-51{fill:#b87b5e;}.cls-32{stroke:#3d7898;}.cls-33{stroke:#a0acb4;}.cls-33,.cls-37{stroke-width:34.38px;}.cls-52{fill:#eb9763;}.cls-37{stroke:#ebe7e8;}.cls-38{stroke:#c9c6c7;stroke-width:16.09px;}.cls-40{stroke-width:3px;}</style><radialGradient id="radial-gradient" cx="58.49" cy="362.33" fx="58.49" fy="362.33" r="54.56" gradientTransform="translate(0 319.24) scale(1 .12)" gradientUnits="userSpaceOnUse"><stop offset=".25" stop-color="#282830" stop-opacity=".5"/><stop offset=".61" stop-color="#282830" stop-opacity=".31"/><stop offset="1" stop-color="#282830" stop-opacity="0"/></radialGradient><radialGradient id="radial-gradient-2" cx="135.12" cy="365.49" fx="135.12" fy="365.49" r="50.75" gradientTransform="translate(0 322.03) scale(1 .12)" xlink:href="#radial-gradient"/></defs><g id="Artwork"><g><ellipse class="cls-44" cx="58.49" cy="362.33" rx="58.49" ry="7.67"/><g><g><line class="cls-31" x1="134.07" y1="107.97" x2="138.4" y2="98.29"/><line class="cls-31" x1="141.78" y1="113.78" x2="149.57" y2="103.58"/><line class="cls-31" x1="143.8" y1="121" x2="153.97" y2="116.88"/><line class="cls-10" x1="132.51" y1="122.52" x2="138.43" y2="114.4"/><line class="cls-14" x1="123.59" y1="113.67" x2="119.97" y2="104.21"/></g><g><line class="cls-36" x1="28.99" y1="236.2" x2="28.99" y2="246.44"/><line class="cls-23" x1="21.68" y1="182.4" x2="21.68" y2="233.57"/><line class="cls-35" x1="21.68" y1="164.92" x2="21.68" y2="226.5"/></g><path class="cls-32" d="M132.34,128c0,.42,0,.85-.02,1.27-.78,23.03-30.45,31.92-44.29,13.49-6.74-8.96-17.46-14.76-29.54-14.76"/><path class="cls-25" d="M58.49,128c-20.39,0-36.93,16.53-36.93,36.93"/></g><g><g><line class="cls-16" x1="66.97" y1="339.28" x2="66.97" y2="363.62"/><line class="cls-38" x1="66.97" y1="349.02" x2="66.97" y2="363.62"/><line class="cls-29" x1="66.97" y1="205.73" x2="66.97" y2="266.6"/><line class="cls-27" x1="66.97" y1="266.6" x2="66.97" y2="339.28"/><line class="cls-17" x1="66.97" y1="329.54" x2="66.97" y2="339.28"/><path class="cls-45" d="M70.76,353.89c7.4,0,13.4,4.36,13.4,9.74h-26.8c0-5.38,6-9.74,13.4-9.74Z"/></g><line class="cls-19" x1="50" y1="339.28" x2="50" y2="363.62"/><line class="cls-38" x1="50" y1="349.02" x2="50" y2="363.62"/><g><line class="cls-30" x1="50" y1="205.73" x2="50" y2="266.6"/><line class="cls-34" x1="50" y1="266.6" x2="50" y2="339.28"/><line class="cls-28" x1="50" y1="329.54" x2="50" y2="339.28"/><path class="cls-45" d="M46.04,353.89c-7.4,0-13.4,4.36-13.4,9.74h26.8c0-5.38-6-9.74-13.4-9.74Z"/></g></g><path class="cls-43" d="M30.49,192.45c0,12.74,12.53,23.06,28,23.06s28-10.33,28-23.06H30.49Z"/><path class="cls-8" d="M58.49,114.59c-15.46,0-28,12.97-28,28.96v48.9h55.99v-48.9c0-15.99-12.53-28.96-28-28.96Z"/><g><path class="cls-50" d="M58.49,114.59h0Z"/><path class="cls-47" d="M87.7,143.81v65.86c0,2.39-1.94,4.33-4.33,4.33h0c-2.39,0-4.33-1.94-4.33-4.33v-74.53c0-10.99-8.63-19.97-19.49-20.52,15.64,.56,28.16,13.41,28.16,29.19Z"/><path class="cls-47" d="M57.43,114.62c-15.64,.56-28.16,13.41-28.16,29.19v65.86c0,2.39,1.94,4.33,4.33,4.33h0c2.39,0,4.33-1.94,4.33-4.33v-74.53c0-10.99,8.63-19.97,19.49-20.52Z"/></g><g><line class="cls-21" x1="58.71" y1="108.62" x2="58.71" y2="118.12"/><g><rect class="cls-43" x="36.67" y="0" width="48.69" height="73.04" rx="24.34" ry="24.34"/><rect class="cls-43" x="22.07" y="13.31" width="38.95" height="58.43" rx="19.47" ry="19.47"/></g><g><circle class="cls-52" cx="29.4" cy="75.65" r="9.86"/><circle class="cls-52" cx="87.58" cy="75.65" r="9.86"/></g><rect class="cls-41" x="25.85" y="49.12" width="65.73" height="69.01" rx="32.86" ry="32.86"/><rect class="cls-41" x="27.07" y="23.97" width="63.3" height="85.21" rx="31.65" ry="31.65"/><rect class="cls-43" x="57.62" y="7.3" width="26.78" height="32.87" rx="13.39" ry="13.39"/><g><line class="cls-15" x1="55.35" y1="57.69" x2="62.24" y2="54.2"/><line class="cls-15" x1="82.08" y1="57.34" x2="74.58" y2="55.5"/></g><path class="cls-2" d="M82.5,79.31c-.28,7.38-6.4,13.27-13.78,13.27s-13.5-5.89-13.78-13.27c-.03-.64,.24-1.21,.76-1.6,.51-.39,1.13-.5,1.75-.3,3.61,1.14,7.5,1.64,11.28,1.64s7.67-.5,11.28-1.64c.62-.2,1.23-.09,1.75,.3,.51,.39,.78,.96,.76,1.6Z"/><path class="cls-5" d="M59.28,67.81c-1.34,0-2.43-1.09-2.43-2.43s1.09-2.43,2.43-2.43,2.43,1.09,2.43,2.43-1.09,2.43-2.43,2.43Zm21.31-2.43c0-1.34-1.09-2.43-2.43-2.43s-2.43,1.09-2.43,2.43,1.09,2.43,2.43,2.43,2.43-1.09,2.43-2.43Z"/></g></g><g><g><circle class="cls-43" cx="135.04" cy="131.61" r="45.29"/><g><line class="cls-39" x1="183.95" y1="198.94" x2="183.95" y2="236.8"/><line class="cls-20" x1="177.83" y1="239" x2="177.83" y2="247.57"/><path class="cls-18" d="M183.95,198.94c0-33.06-21.86-53.74-48.83-53.74"/></g><path class="cls-18" d="M86.21,198.94c0-33.06,21.86-53.74,48.83-53.74"/><ellipse class="cls-48" cx="135.12" cy="365.49" rx="54.41" ry="7.14"/><g><line class="cls-22" x1="116.52" y1="321.63" x2="116.52" y2="355.7"/><line class="cls-9" x1="116.52" y1="213.86" x2="116.52" y2="345.57"/><path class="cls-42" d="M112.35,351.12c-8.6,0-15.58,6.98-15.58,15.58h31.16c0-8.6-6.98-15.58-15.58-15.58Z"/></g><g><line class="cls-11" x1="153.48" y1="321.63" x2="153.48" y2="355.7"/><line class="cls-13" x1="153.48" y1="213.86" x2="153.48" y2="345.57"/><path class="cls-42" d="M157.65,351.12c8.6,0,15.58,6.98,15.58,15.58h-31.16c0-8.6,6.98-15.58,15.58-15.58Z"/></g><ellipse class="cls-46" cx="135.12" cy="213.86" rx="43.03" ry="39.94"/><path class="cls-49" d="M171.35,167.46c0-20.01-16.22-36.23-36.23-36.23s-36.23,16.22-36.23,36.23v24.41h72.46v-24.41Z"/><line class="cls-37" x1="135.12" y1="146.22" x2="135.12" y2="158.5"/><g><line class="cls-12" x1="135.12" y1="128.46" x2="135.12" y2="140.94"/><g><circle class="cls-7" cx="102.99" cy="102.76" r="9.87"/><circle class="cls-7" cx="166.8" cy="102.76" r="9.87"/></g><g><path class="cls-43" d="M107.02,51.27h33.85c8.3,0,15.05,6.74,15.05,15.05h0c0,8.3-6.74,15.05-15.04,15.05h-33.85c-8.3,0-15.05-6.74-15.05-15.05h0c0-8.3,6.74-15.05,15.04-15.05Z" transform="translate(11.46 150.62) rotate(-65)"/><path class="cls-5" d="M135.12,54.09h0c19.27,0,35.03,16.02,35.03,35.59v3.55c0,19.57-15.76,35.59-35.03,35.59h0c-19.27,0-35.03-16.02-35.03-35.59v-3.55c0-19.57,15.76-35.59,35.03-35.59Z"/></g><path class="cls-1" d="M135.12,58.77h0c18.68,0,33.97,15.53,33.97,34.51v3.44c0,18.98-15.29,34.51-33.97,34.51h0c-18.68,0-33.97-15.53-33.97-34.51v-3.44c0-18.98,15.29-34.51,33.97-34.51Z"/><line class="cls-40" x1="117.53" y1="76.37" x2="124.46" y2="73.73"/><line class="cls-40" x1="152.55" y1="75.71" x2="145.61" y2="73.07"/><g><circle class="cls-43" cx="121.97" cy="85.19" r="2.44"/><path class="cls-5" d="M118.57,86.15c0-1.88,1.52-3.4,3.4-3.4s3.4,1.52,3.4,3.4"/></g><g><circle class="cls-43" cx="148.28" cy="85.19" r="2.44"/><path class="cls-5" d="M151.68,86.15c0-1.88-1.52-3.4-3.4-3.4s-3.4,1.52-3.4,3.4"/></g><g><path class="cls-6" d="M135.22,113.5c3.61,0,6.53-2.92,6.53-6.53h-13.06c0,3.61,2.92,6.53,6.53,6.53Z"/><g><path class="cls-6" d="M132.28,96.64c-2.07,0-3.74,1.67-3.74,3.74h7.48c0-2.07-1.67-3.74-3.74-3.74Z"/><path class="cls-6" d="M137.67,96.64c-2.07,0-3.74,1.67-3.74,3.74h7.48c0-2.07-1.67-3.74-3.74-3.74Z"/></g><path class="cls-3" d="M125.64,99.34c-1.53,0-2.57,1.49-2.14,2.95,1.49,5.03,6.16,8.7,11.63,8.7s10.14-3.67,11.63-8.7c.43-1.47-.61-2.95-2.14-2.95h-18.97Z"/></g></g></g><g><line class="cls-33" x1="99.06" y1="159.23" x2="89.48" y2="172.05"/><path class="cls-24" d="M100.3,158.22c8.28,8.28,21.69,8.28,29.97,0"/><path class="cls-42" d="M71.37,172.07c0,10.01,8.11,18.12,18.12,18.12s18.12-8.11,18.12-18.12h-36.23Z"/><g><g><circle class="cls-51" cx="77.2" cy="135.72" r="5.7"/><circle class="cls-51" cx="113.49" cy="129.25" r="5.7"/></g><rect class="cls-43" x="86.04" y="102.12" width="10.31" height="12.65" rx="5.15" ry="5.15" transform="translate(-17.62 17.69) rotate(-10.11)"/><path class="cls-4" d="M91.01,107.44h0c10.63-1.89,20.89,5.39,22.82,16.18l.35,1.96c1.92,10.8-5.19,21.18-15.82,23.07h0c-10.63,1.89-20.89-5.39-22.82-16.18l-.35-1.96c-1.92-10.8,5.19-21.18,15.82-23.07Z"/><circle class="cls-43" cx="86.21" cy="123.8" r="2.11"/><circle class="cls-43" cx="101.17" cy="121.13" r="2.11"/><path class="cls-3" d="M89.73,131.47c-.87,.16-1.31,1.11-.92,1.9,1.36,2.71,4.39,4.33,7.5,3.77,3.11-.55,5.4-3.12,5.73-6.13,.1-.88-.65-1.62-1.52-1.46l-10.79,1.92Z"/></g><line class="cls-24" x1="95.21" y1="181.53" x2="112.03" y2="181.53"/><line class="cls-24" x1="100.14" y1="193.42" x2="112.03" y2="181.53"/><line class="cls-26" x1="86.21" y1="198.94" x2="124.07" y2="198.94"/></g></g></g></svg>