<svg xmlns="http://www.w3.org/2000/svg" viewBox="0 0 100.38 99.66"><defs><style>.cls-1{fill:#2470c7;}</style></defs><title>blue-circle</title><g id="Layer_2" data-name="Layer 2"><g id="Layer_1-2" data-name="Layer 1"><path class="cls-1" d="M99,38.63a49.07,49.07,0,0,0-9.87-19.89,50.23,50.23,0,0,0-7.78-8A51,51,0,0,0,71.75,5a49.65,49.65,0,0,0-10.5-3.79A50.7,50.7,0,0,0,50.15,0,50.88,50.88,0,0,0,39,1a50.45,50.45,0,0,0-10.6,3.71,47.8,47.8,0,0,0-8.87,6l-.38.3A50.56,50.56,0,0,0,11,18.58,50.76,50.76,0,0,0,5,28.09,49.45,49.45,0,0,0,1.17,38.61,49.79,49.79,0,0,0,0,49.75,49.25,49.25,0,0,0,1.29,60.87,48.45,48.45,0,0,0,5.15,71.36a50.76,50.76,0,0,0,5.79,9.57,51.23,51.23,0,0,0,7.94,7.92,50.8,50.8,0,0,0,9.65,5.67A49.38,49.38,0,0,0,39.06,98.2a50.76,50.76,0,0,0,11.09,1.46,50.2,50.2,0,0,0,11.1-1.4,49.44,49.44,0,0,0,10.49-3.81,49.25,49.25,0,0,0,9.55-5.77A50.67,50.67,0,0,0,89.4,81a50,50,0,0,0,6-9.49A48.79,48.79,0,0,0,99,60.87a48.82,48.82,0,0,0,1.36-11.12A49.15,49.15,0,0,0,99,38.63"/></g></g></svg>