<svg xmlns="http://www.w3.org/2000/svg" viewBox="0 0 85.72 85.1"><defs><style>.cls-1{fill:#ffabc9;}</style></defs><title>c-2</title><g id="Layer_2" data-name="Layer 2"><g id="Layer_1-2" data-name="Layer 1"><path class="cls-1" d="M84.57,33a42,42,0,0,0-8.43-17A43.33,43.33,0,0,0,69.5,9.13,43.75,43.75,0,0,0,61.27,4.3a41.55,41.55,0,0,0-9-3.24A43.41,43.41,0,0,0,42.82,0a43.26,43.26,0,0,0-9.53.82A43,43,0,0,0,24.23,4a40.9,40.9,0,0,0-7.57,5.12l-.32.26a42.33,42.33,0,0,0-7,6.5A43,43,0,0,0,4.29,24,41.94,41.94,0,0,0,1,33a42.93,42.93,0,0,0-1,9.52A42.29,42.29,0,0,0,1.1,52a41.18,41.18,0,0,0,3.3,9,42,42,0,0,0,4.95,8.18,43.69,43.69,0,0,0,6.77,6.76,43.35,43.35,0,0,0,8.24,4.84,43,43,0,0,0,9,3.15,43.55,43.55,0,0,0,9.47,1.24,42.79,42.79,0,0,0,9.48-1.19,42,42,0,0,0,9-3.25,42.36,42.36,0,0,0,8.16-4.93,43.47,43.47,0,0,0,6.92-6.59A42.13,42.13,0,0,0,81.45,61,41.41,41.41,0,0,0,84.56,52a42,42,0,0,0,1.16-9.49A41.77,41.77,0,0,0,84.57,33"/></g></g></svg>