<svg xmlns="http://www.w3.org/2000/svg" viewBox="0 0 100.4 82.59"><defs><style>.cls-1{fill:#fff;}</style></defs><title>dk-white</title><g id="Layer_2" data-name="Layer 2"><g id="Layer_1-2" data-name="Layer 1"><g id="g848"><path id="path844" class="cls-1" d="M66.72,73.52a22,22,0,0,0-6.48.65,14.47,14.47,0,0,0-10.36,8.42,12.72,12.72,0,0,0-10.37-8.42A43,43,0,0,0,33,73.52H0V0H33.36a19.84,19.84,0,0,1,6.15.65,12.38,12.38,0,0,1,10.69,11c.65-5.83,4.86-9.72,10.69-11A38.91,38.91,0,0,1,67,0H100.4V73.52Zm0-66.72a44.46,44.46,0,0,0-6.48.65,14.5,14.5,0,0,0-10.69,9.07A13.44,13.44,0,0,0,39.19,7.45a44.46,44.46,0,0,0-6.48-.65H6.15V67H33a47,47,0,0,1,6.8.33c5.83,1,9.39,4.21,10,10.36,1-6.15,4.21-9.39,10-10.36a46.93,46.93,0,0,1,6.8-.33H93.28V6.8Z"/><path id="path846" class="cls-1" d="M47.29,33.68c-1-7.45-6.16-12.95-13-13.92a52.14,52.14,0,0,0-10-.65h-10a24.56,24.56,0,0,1,1,6.8V49.55a24.63,24.63,0,0,1-1,6.81h10l6.8-.33a16.91,16.91,0,0,0,13-6.48c3.56-4.85,3.88-10.36,3.24-15.87Zm-9.72,10c-3.24,5.19-8.1,4.54-13.28,4.54v-22c4.54,0,9.07-.64,12.63,3.57,2.59,3.56,2.92,10,.65,13.92ZM88.1,56l-1-1a30.54,30.54,0,0,1-4.85-6.48L73.52,35.63,85.18,21.38a19.17,19.17,0,0,1,2.59-2.59H76.11c0,3.23-1,4.21-2.27,6.47s-8.09,10-9.06,11V25.59a16.9,16.9,0,0,1,1.29-6.8h-11a24.51,24.51,0,0,1,1,6.8V49.23a24.56,24.56,0,0,1-1,6.8h11a24.56,24.56,0,0,1-1-6.8V37.57l9.39,14.25a10.19,10.19,0,0,0,3.89,3.56,12.32,12.32,0,0,0,4.86.33Z"/></g></g></g></svg>