<svg xmlns="http://www.w3.org/2000/svg" viewBox="0 0 125.28 157.05"><defs><style>.cls-1{fill:#ffc200;}</style></defs><title>m-extended</title><g id="Layer_2" data-name="Layer 2"><g id="Layer_1-2" data-name="Layer 1"><path class="cls-1" d="M125,128.89C123.9,126.42,99.69,74,98.55,71.45s-1.84-3.78-2.5-5-1.3-2.37-2.42-4.83-1.7-3.75-2.27-5-1.13-2.5-2.27-5-1.63-3.75-2.13-5-1-2.57-2.18-5.09-1.67-3.76-2.2-5-1.08-2.53-2.22-5l-2.25-5c-.57-1.26-1.13-2.51-2.27-5s-1.82-3.78-2.46-5S72.1,14.18,71,11.71s-1.56-3.69-2-5-1-2.62-2.11-5.16A2.66,2.66,0,0,0,64.07,0a2.82,2.82,0,0,0-2.5,2.19C61,4.82,60.65,6.13,60.31,7.4S59.6,10,59,12.7,58.18,16.64,57.9,18s-.57,2.64-1.15,5.29-.84,4-1.11,5.29-.54,2.63-1.11,5.27-.83,4-1.08,5.31-.5,2.63-1.07,5.26-.86,4-1.15,5.27-.59,2.63-1.16,5.26-.82,4-1.06,5.3c-.19,1-.37,2.06-.71,3.68-1-1.6-1.56-2.54-2.15-3.51s-1.35-2.25-2.7-4.43-2.09-3.42-2.78-4.56-1.39-2.29-2.8-4.57S35.71,43.38,35,42.27s-1.46-2.22-2.85-4.49-2.05-3.43-2.69-4.57-1.31-2.36-2.73-4.65S24.62,25.14,23.94,24s-1.38-2.3-2.79-4.58S19.07,16,18.38,14.86s-1.38-2.3-2.79-4.58a2.7,2.7,0,0,0-3-1.16,2.85,2.85,0,0,0-2.23,2.51c-.21,2.75-.28,4.15-.34,5.5s-.12,2.72-.33,5.44-.41,4-.63,5.36-.43,2.76-.64,5.53-.3,4.13-.38,5.48-.16,2.73-.37,5.45-.34,4.1-.47,5.43-.26,2.74-.47,5.48-.28,4.16-.33,5.51-.12,2.72-.33,5.43-.3,4.1-.39,5.47-.19,2.73-.4,5.46-.36,4.09-.51,5.42S1.08,140.35.87,143.1s-.32,4.09-.43,5.45S.22,151.29,0,154A2.72,2.72,0,0,0,1,156.25a3,3,0,0,0,2,.8,3.42,3.42,0,0,0,.45,0l5.24-.94,5.22-.94c2.6-.46,3.93-.66,5.21-.86s2.64-.4,5.27-.86,4-.76,5.25-1,2.57-.57,5.17-1l5.22-.91,5.24-.91c2.58-.46,3.91-.62,5.19-.78s2.67-.33,5.31-.8l5.23-.93,5.22-.94c2.66-.47,4-.81,5.28-1.13s2.54-.65,5.11-1.1,29.41-8.28,30.76-8.43,2.67-.3,5.32-.77,3.91-.67,5.22-.89,2.62-.42,5.25-.89a2.57,2.57,0,0,0,1.83-1.37,3,3,0,0,0,.09-2.6"/></g></g></svg>