<svg xmlns="http://www.w3.org/2000/svg" viewBox="0 0 184 49.6"><defs><style>.cls-1{fill:#fff;}</style></defs><title>hsbc-white</title><g id="Layer_2" data-name="Layer 2"><g id="Layer_1-2" data-name="Layer 1"><polygon class="cls-1" points="99.08 24.84 74.32 0 74.32 49.6 99.08 24.84"/><polygon class="cls-1" points="49.56 24.84 74.32 0 24.84 0 49.56 24.84"/><polygon class="cls-1" points="0 24.84 24.84 49.6 24.84 0 0 24.84"/><polygon class="cls-1" points="49.56 24.84 24.84 49.6 74.32 49.6 49.56 24.84"/><path class="cls-1" d="M120.8,26.28h-9v8.84h-4.48V14.4h4.48v8.52h9V14.4h4.48V35.12H120.8Z"/><path class="cls-1" d="M136.12,35.56c-4.48,0-8.16-1.8-8.2-6.76h4.48c0,2.2,1.32,3.56,3.8,3.56,1.8,0,3.92-.92,3.92-3,0-1.64-1.4-2.08-3.72-2.8l-1.52-.4c-3.28-.92-6.52-2.2-6.52-6,0-4.6,4.32-6.16,8.2-6.16s7.52,1.4,7.56,6H139.6a3,3,0,0,0-3.36-3c-1.68,0-3.32.88-3.32,2.72,0,1.52,1.4,2,4.32,2.92l1.76.52c3.56,1.12,5.84,2.32,5.84,5.84C144.76,33.72,140.2,35.56,136.12,35.56Z"/><path class="cls-1" d="M147.32,14.48h7.24a20.14,20.14,0,0,1,4.08.24c2.52.6,4.44,2.2,4.44,5s-1.68,4-4.12,4.64c2.8.52,4.88,1.92,4.88,5,0,4.72-4.64,5.76-8.28,5.76H147.4Zm7.2,8.6c2,0,4-.4,4-2.8,0-2.16-1.88-2.72-3.72-2.72h-3.16v5.52Zm.4,9c2.08,0,4.12-.48,4.12-3s-1.76-3-3.92-3H151.6v6h3.32Z"/><path class="cls-1" d="M175.44,35.56c-6.68,0-9.68-4.24-9.68-10.6s3.32-11,9.92-11c4.12,0,8.16,1.88,8.28,6.52h-4.64a3.34,3.34,0,0,0-3.6-3.16c-4.08,0-5.28,4.36-5.28,7.68s1.24,7.16,5.12,7.16A3.57,3.57,0,0,0,179.4,29H184C183.52,33.8,179.76,35.56,175.44,35.56Z"/></g></g></svg>