<svg xmlns="http://www.w3.org/2000/svg" viewBox="0 0 63.15 63.14"><defs><style>.cls-1{fill:#213052;}</style></defs><title>insta-logo</title><g id="Layer_2" data-name="Layer 2"><g id="Layer_1-2" data-name="Layer 1"><path class="cls-1" d="M31.58,15.38A16.19,16.19,0,1,0,47.77,31.57,16.17,16.17,0,0,0,31.58,15.38Zm0,26.71A10.53,10.53,0,1,1,42.11,31.57,10.54,10.54,0,0,1,31.58,42.09ZM52.21,14.72a3.78,3.78,0,1,1-3.78-3.78A3.76,3.76,0,0,1,52.21,14.72Zm10.72,3.83c-.24-5.06-1.4-9.54-5.1-13.23S49.66.48,44.6.22c-5.21-.29-20.84-.29-26,0C13.51.46,9,1.62,5.32,5.31S.48,13.48.22,18.54c-.29,5.21-.29,20.83,0,26.05.24,5,1.4,9.53,5.1,13.22s8.17,4.85,13.23,5.1c5.21.3,20.84.3,26.05,0,5.06-.24,9.54-1.39,13.23-5.1s4.84-8.17,5.1-13.22c.29-5.22.29-20.83,0-26ZM56.19,50.18a10.63,10.63,0,0,1-6,6c-4.15,1.65-14,1.27-18.61,1.27S17.11,57.81,13,56.18a10.66,10.66,0,0,1-6-6C5.32,46,5.7,36.16,5.7,31.57S5.34,17.1,7,13a10.66,10.66,0,0,1,6-6c4.16-1.65,14-1.27,18.61-1.27S46.05,5.32,50.19,7a10.6,10.6,0,0,1,6,6c1.65,4.15,1.27,14,1.27,18.61S57.84,46,56.19,50.18Z"/></g></g></svg>