<svg xmlns="http://www.w3.org/2000/svg" viewBox="0 0 169.16 62.88"><defs><style>.cls-1{fill:#fff;}</style></defs><title>kellogs-white</title><g id="Layer_2" data-name="Layer 2"><g id="Layer_1-2" data-name="Layer 1"><path class="cls-1" d="M44.24,27.52c-1.2,0-4.4,3.12-4.72,7.2,3.52-1.92,5.44-5,5.32-6.32C44.92,27.76,44.72,27.52,44.24,27.52Z"/><path class="cls-1" d="M67,15.08c-1.84,0-6.44,6.52-9.32,15.16,5.44-5.32,9.64-13,9.64-14.72C67.32,15.28,67.24,15.08,67,15.08Z"/><path class="cls-1" d="M85.68,11.68c-1.28,0-7.72,7.72-11,17.2C80.08,23.56,85.88,14.44,86,12.12,86,11.88,85.84,11.68,85.68,11.68Z"/><path class="cls-1" d="M95.8,53.72a.61.61,0,0,0,.64.64c2,0,6.52-5,7.72-7.12C101.32,48.32,95.8,51.24,95.8,53.72Z"/><path class="cls-1" d="M0,43.52a7.19,7.19,0,0,0,7.36,7.36c4,0,6.92-2.8,9-5.6v.4c0,6.64,5.72,9.64,9.64,9.64,2.8,0,6.44-1.2,7.52-4.6v-.08a3.87,3.87,0,0,0-2.4-4.72v-.4h.2a8.74,8.74,0,0,0,1.72-.2,11.58,11.58,0,0,0,7,2.2,17.34,17.34,0,0,0,9.64-3A10.68,10.68,0,0,0,57,47.16a15.87,15.87,0,0,0,8.36-2.84,8.87,8.87,0,0,0,7,3.4,13.27,13.27,0,0,0,6.92-2.2,8.29,8.29,0,0,0,5.44,2c4.32,0,7.84-2.4,10.52-5.52a6.1,6.1,0,0,0,1.12,1.6c-.64.4-1.28.72-1.84,1-4.8,2.92-7.52,7-7.52,11,0,3.52,2.92,7.24,8.32,7.24,5.72,0,9.92-2.92,13.72-8v.8c0,3.52,2.84,7.2,8.12,7.2,9.2,0,14.56-9.44,18-15.64.08-.2.2-.4.28-.56,1.28-.72,2.84-1.72,4.6-2.92a9.21,9.21,0,0,0,7.84,3.8,12.19,12.19,0,0,0,9-3.4c2.48-2.48,3.8-6.32,3.68-11a29.6,29.6,0,0,0-.28-3.4v-.08a4.85,4.85,0,0,0,4.32-2.84c.2-.2,1.84-5.12-2.2-7.24a6.9,6.9,0,0,0-3.68-.92,9.91,9.91,0,0,0-3.88.8,4.94,4.94,0,0,0,.28-1.68,6.68,6.68,0,0,0-1.68-5.24,6.24,6.24,0,0,0-4.88-2.12A8,8,0,0,0,141,17.2a5.6,5.6,0,0,0,.92,3.68,2.53,2.53,0,0,0-.48.92,2.84,2.84,0,0,0-.64-.72,5.55,5.55,0,0,0-4-1.48c-3.88,0-8.36,2-12.16,5a6.45,6.45,0,0,0-.72-1.68,4.94,4.94,0,0,0-4.12-2,7.28,7.28,0,0,0-2.92.64,5.89,5.89,0,0,0-4.12-1.72,8.37,8.37,0,0,0-3.12.64c-.56.2-1,.48-1.48.64-2.12.92-3,1.4-4.52,1.4A6.44,6.44,0,0,1,101,22l-.28-.08a7.13,7.13,0,0,0-4.88-.28h-.08a5.19,5.19,0,0,0-3.6-1.2,6.74,6.74,0,0,0-1.6.2c2.8-4.12,4.8-8.64,4.88-12.72A6.25,6.25,0,0,0,93.72,3,5.67,5.67,0,0,0,89.4,1.28C85,1.28,80.2,5.2,76.52,9.2a4.89,4.89,0,0,0-1.2-2,6,6,0,0,0-4.6-1.72c-6,0-12.44,5.92-16.16,11a36.69,36.69,0,0,0-3.6,5.8,7.25,7.25,0,0,0-4.88-2.48c3.4-2.92,6.08-5.72,6.92-7.12,2.68-4.24,2.2-9-1.12-11.44A6.37,6.37,0,0,0,48.28,0c-3.6,0-6.8,2.8-8.56,5.32-1.6,2.2-2.92,4.12-4.24,5.92A5,5,0,0,0,35,9.56,4.83,4.83,0,0,0,30.6,7a8.57,8.57,0,0,0-4.72,1.6,100.22,100.22,0,0,1-10.52,6.32c-9.84,5-14.24,8.2-14.24,13.52a6.48,6.48,0,0,0,4.24,6.08C2.28,37.28,0,39.8,0,43.52ZM148.48,13.6c2.2,0,3.4,1.72,3.2,3.8-.4,3.92-4.8,6.52-6.44,6.52-.64,0-1-.4-.92-.8.08-.8,1.2-1.28,1.28-2.32s-1.72-1.6-1.6-3.32A5,5,0,0,1,148.48,13.6Zm-99,13.64c0,5.8-6.08,9.56-8.72,11.12a2.51,2.51,0,0,0,2.12,1.12c1.84,0,4-.56,7.12-3.2a38.47,38.47,0,0,1,7.36-17.76c4-5.52,9.56-9.64,13.52-9.64,1.84,0,2.92.8,2.84,2.68-.2,6.16-10.24,18.68-16,23.92a2.54,2.54,0,0,0,2.8,2.68c1.6,0,2.92-.2,6.32-3.12a46.48,46.48,0,0,1,8.56-18.88c3.8-5,9.84-11.32,14.24-11.32,1.72,0,2.8,1,2.68,3.12C91.88,16.8,80.12,29.24,74,34.84c-.2,1.72.48,3.92,2.84,3.92a4.4,4.4,0,0,0,2.84-1.48C80.4,31,87.2,23.84,92.32,23.84c1.6,0,2,.8,1.92,1.68s-1.84,1.6-2.68,2.4-4.72,5-5,8.2c-.28,1.84.64,2.12,1.48,2.12,2.48,0,5.72-6.72,6.32-10.52A3.82,3.82,0,0,1,95.24,26a4.56,4.56,0,0,1,1.68-1.2,3.05,3.05,0,0,1,2.6.2,8.91,8.91,0,0,0,4.12.92c2.6,0,4.12-.92,7.24-2.32,2.32-1,3.92,0,3.92,1.4,0,.92-.56,1.12-1.2,1.48a19.22,19.22,0,0,0-7.44,7.72c-1.6,3.4.64,3.68,2.84,1.92a13,13,0,0,0,3.52-4.88c.72-1.36,2.48-5,5-6.32s5-.72,3.32,3.88c-1.48,3.92-4.4,7.72-7.72,12.52a22.88,22.88,0,0,0,6.64-4.52C121,30.8,130,23,136.72,23c2.12,0,2.12,1.2,2.12,1.4,0,.56-.48,1.2-1.48,1.68-6.8,2.68-10.56,7.52-10.56,9.92a1.09,1.09,0,0,0,1.2,1.2c3.92,0,6.72-8.32,9.44-10s4.4-.64,3.88,1.92-4.24,7.64-5.8,10C141,35.56,147,29.44,150,26.92c3.2-2.68,5.8-5,8.64-5,1.92,0,3.2.8,3.52,3.12,0,1.4-1.12,1.68-2.68,1.68s-2.2.92-2.12,2.68a26.48,26.48,0,0,1,.4,4c.08,5.72-2.12,11-9.4,11-3.68,0-5.92-2.32-5.92-4.8a5.14,5.14,0,0,1,.2-1.4,60.88,60.88,0,0,1-9.12,6.16c-3.2,5.52-8.12,15.36-16,15.36-3.68,0-4.88-2.48-4.88-3.88,0-2.32,1.2-5.24,6.64-8.44a83.9,83.9,0,0,1,9.32-4.4,9.44,9.44,0,0,0,1.28-2.4,8.37,8.37,0,0,1-5.44,1.92,4.37,4.37,0,0,1-3.88-2,36.88,36.88,0,0,1-9.2,5.24c-5.6,10.12-9.76,14-15.64,14-3.6,0-5-2.12-5-3.92,0-3.4,2.92-6.32,6-8.2a49.53,49.53,0,0,1,10-4.24,11,11,0,0,0,1.92-3.12,9.79,9.79,0,0,1-6.08,2.8A4.49,4.49,0,0,1,98,38.72c0-2.92,2.8-7.12,5.8-9.44a7.17,7.17,0,0,1-4.12-.56c-.4-.08-.92,0-1,.56C97.52,33.4,93,44.72,85,44.72a4.87,4.87,0,0,1-4.8-3.6c-1.92,2-4.4,3.88-7.52,3.88a6.12,6.12,0,0,1-5.8-5c-2.8,2.12-6.16,4.4-9.56,4.4a7.08,7.08,0,0,1-6.64-3.92c-2.68,2.32-6,4.32-10.32,4.32-3.2,0-5.44-1.68-6-2.68-2.32.8-4.12.92-4.4-.56s1.2-2.4,3.4-3.12a2.86,2.86,0,0,1-.08-.8c-.08-8.32,7.52-14.36,12.44-14.36C47.56,23,49.48,24.36,49.48,27.24Zm-29-6.64c-.64,0-2.4,1.48-3.12,2.2-1.92,1.72-5.8,8.72-9.76,8.72A3,3,0,0,1,4.64,28.4c0-3.12,2.4-5.52,12.44-10.64a96.21,96.21,0,0,0,10.84-6.52c2.92-2,6-.8,3.52,2.4-2,2.68-7.52,11.68-7.52,11.68,1.48-.2,2.84-.28,5.92-2.84C33.64,19.16,37,15.24,42.6,7.2c2-2.92,5.44-4.88,7.52-3.4s1.84,4.6.28,7S37,24.24,29,27.44c2.12,2.2,1.84,6,1.28,8.32s-2,7.2-2,9.44c0,1.92.72,3.68,2.12,3.8a.53.53,0,0,1,.48.72C30.28,51.4,28,52,26.44,52c-1.84,0-6.32-1.6-6.32-6.44,0-6,3.12-10.32,3.68-13.84.28-1.92-.28-2.92-1.12-3.4-.8,1.6-4.8,9-5.52,10.24-1.84,2.92-4.88,9-9.4,9a4,4,0,0,1-4.12-4c0-4,4.8-6.64,10.64-12.88,4-4.32,6.64-8.2,6.64-9.44C20.76,20.72,20.64,20.6,20.44,20.6Z"/><path class="cls-1" d="M117.88,53.92c0,.4.2.64.56.64,1.68,0,5.8-4.72,7.24-7.24C122.8,48.32,117.88,51.72,117.88,53.92Z"/><path class="cls-1" d="M147.6,37.52c0,1.2.48,1.28.8,1.28,2.68,0,4-4.4,4.6-10-2.32,1.84-4.8,4.6-7.92,7.12a1.87,1.87,0,0,1,.64-.08A1.6,1.6,0,0,1,147.6,37.52Z"/><path class="cls-1" d="M165,17h.4l.8,1.6h.92l-.92-1.68a1,1,0,0,0,.92-1c0-.8-.64-1.12-1.6-1.12H164.2v3.8h.8V17Zm0-1.56h.56c.4,0,.72.08.72.48s-.2.48-.56.48H165Z"/><path class="cls-1" d="M165.64,20.24a3.4,3.4,0,0,0,3.52-3.52,3.52,3.52,0,0,0-7,0A3.38,3.38,0,0,0,165.64,20.24Zm0-6.16a2.52,2.52,0,0,1,2.48,2.68,2.49,2.49,0,1,1-5,0A2.52,2.52,0,0,1,165.64,14.08Z"/></g></g></svg>