<svg xmlns="http://www.w3.org/2000/svg" viewBox="0 0 63.11 63.11"><defs><style>.cls-1{fill:#213052;}</style></defs><title>indd-logo</title><g id="Layer_2" data-name="Layer 2"><g id="Layer_1-2" data-name="Layer 1"><path class="cls-1" d="M58.61,0H4.49A4.52,4.52,0,0,0,0,4.55v54a4.52,4.52,0,0,0,4.49,4.55H58.61a4.53,4.53,0,0,0,4.5-4.55v-54A4.53,4.53,0,0,0,58.61,0ZM19.08,54.1H9.72V24h9.37V54.1ZM14.4,19.86a5.42,5.42,0,1,1,5.42-5.42A5.43,5.43,0,0,1,14.4,19.86ZM54.14,54.1H44.79V39.45c0-3.5-.07-8-4.86-8s-5.63,3.8-5.63,7.73V54.1H25V24h9v4.11h.13a9.84,9.84,0,0,1,8.86-4.86c9.47,0,11.23,6.24,11.23,14.36Z"/></g></g></svg>