<?xml version="1.0" encoding="UTF-8"?>
<svg id="Layer_2" data-name="Layer 2" xmlns="http://www.w3.org/2000/svg" viewBox="0 0 1392.49 2240.54">
  <defs>
    <style>
      .cls-1 {
        fill: #ff4761;
      }

      .cls-2 {
        fill: #00a07f;
      }
    </style>
  </defs>
  <g id="Layer_1-2" data-name="Layer 1">
    <g>
      <g id="Layer_2-2" data-name="Layer 2">
        <g id="a">
          <path class="cls-2" d="M564.99,308.71c4.87,17.67,8.59,35.63,11.12,53.78,.81,5.35,2.53,9.6,5,12.73,.49,.62,1.03,1.2,1.62,1.72l31,2.32c4-.5,8.19-1,16.38-2.22,11.52-1.72,23.35-13.44,21.42-26-4.14-27.69-6.26-41.54-8.38-55.39s-4.16-27.67-8.35-55.37c-4.25-28.1-7.38-42.15-10.41-55.79-3.14-13.85-6.07-27-10.11-54.28s-5.26-40.74-6.57-55c-1.22-13.95-2.43-28.3-6.67-56.3-.91-6.06-5-11.62-11-15.16-5.03-3.05-10.96-4.3-16.8-3.53-4.77,.79-9.61,1.13-14.45,1-6.06-.11-12.11,.3-18.1,1.22-5.76,.91-11.52,4.75-15.77,10.71-4.25,5.96-6.06,12.43-5.15,18.09,4.25,27.8,6.37,41.65,8.49,55.5s4.25,27.59,8.49,55.18,6.27,41.55,8.29,55.39,4.14,27.7,8.29,55.39c2.67,18.94,6.56,37.68,11.66,56.11"/>
          <path class="cls-2" d="M1204.17,344.19c7.27-11,14.75-22.44,28-45.69,5.87-10.31,1.62-23.75-9.3-29.92-7-3.94-10.41-6-13.84-8s-7.08-4.25-14.25-8.29c-10.42-5.86-26.59-4.24-32.75,6.67-9.07,15.64-17.04,31.88-23.86,48.62-5.15,12.33-10.11,24-22.74,46.39-13,22.95-19.51,34.47-26.08,45.89s-13,23-26.08,46c-6,10.52-3.23,19.92,7.38,26,7.18,4,10.82,6,14.46,8s7.07,3.74,14.05,7.68c3,1.72,7.78,3.94,13.14,3.74,.54,.03,1.09-.04,1.61-.2,3.64-.51,9.1-2.53,12.94-9.3,13.14-23.15,19.31-35.18,25.37-46.8,5.86-11.42,12-23.35,25-46.09s19.81-33.26,27.19-44.48"/>
          <path class="cls-2" d="M870.41,1931.92c-4.52-17.76-7.9-35.8-10.11-54-.71-5.36-2.33-9.6-4.85-12.84-.51-.6-1-1.21-1.52-1.71l-30.94-2.92c-4.14,.41-8.19,.91-16.37,1.93h0c-11.53,1.51-23.65,13-21.94,25.57,3.64,27.79,5.46,41.64,7.28,55.59s3.64,27.8,7.28,55.49c3.64,28.1,6.57,42.35,9.3,56,2.83,13.95,5.46,27.09,9,54.48s4.45,40.84,5.36,55.09c.91,14,1.82,28.3,5.56,56.5,.81,6.06,4.75,11.72,10.71,15.36,4.97,3.13,10.84,4.52,16.68,3.95,4.79-.67,9.63-.91,14.46-.71,6.04,.25,12.09-.02,18.09-.81,5.76-.71,11.62-4.55,16-10.41s6.27-12.33,5.56-18c-3.64-27.8-5.46-41.75-7.38-55.6s-3.74-27.69-7.38-55.39-5.36-41.64-7.18-55.49-3.53-27.79-7.17-55.59c-2.33-18.97-5.84-37.77-10.51-56.3"/>
          <path class="cls-2" d="M252.52,1928.78c-8.39,10.21-17.08,20.72-32.75,42.46-6.87,9.6-4.24,23.45,6.07,30.82,6.47,4.65,9.7,7.08,12.83,9.51,3.34,2.52,6.57,5,13.35,9.8,9.7,7,26,7.08,33.25-3,10.7-14.58,20.39-29.88,29-45.79,8.25-15.14,17.46-29.72,27.59-43.67,15.37-21.42,23.15-32.14,30.83-42.85s15.47-21.43,30.83-42.86c7.08-9.8,5.36-19.51-4.55-26.58-6.67-4.85-10.11-7.18-13.54-9.5s-6.57-4.55-13.14-9.2c-2.83-2-7.28-4.85-12.64-5.16h-1.61c-3.74,.1-9.3,1.52-13.85,7.89-15.57,21.63-23,32.95-30.22,43.86-7.08,10.72-14.46,21.84-29.72,43.16-15.16,21.13-23.25,30.93-31.84,41.24"/>
          <path class="cls-2" d="M98.99,417.07c-8.28-10.31-16.88-20.93-35.07-40.53-8.09-8.7-22.14-8.8-31.33-.21-5.87,5.46-8.9,8.09-11.83,10.72-3.13,2.73-6.17,5.46-12.23,11.12-8.69,8.08-12.13,23.95-3.64,33.15,12.17,13.37,25.24,25.9,39.1,37.5,13.19,11.08,25.62,23.03,37.2,35.78,17.89,19.31,26.89,29,35.89,38.81s17.91,19.41,35.91,38.82c8.19,8.79,18,9.2,27,.91,6.06-5.56,9-8.49,11.92-11.32s5.77-5.56,11.63-11c2.52-2.43,6.16-6.17,7.58-11.42,.1-.51,.2-1,.3-1.62,.61-3.64,.3-9.4-4.95-15.16-18.09-19.51-27.7-29.11-36.89-38.31s-18.5-18.5-36.39-37.8c-17.69-19.11-25.68-28.91-34.07-39.42"/>
          <path class="cls-2" d="M1293.52,1825.28c8.19,10.31,16.68,21,34.67,40.83,8,8.8,22,9,31.33,.51,5.86-5.36,8.9-8,11.93-10.61s6.27-5.46,12.33-11c8.79-8,12.33-23.85,3.94-33.15-12.04-13.49-24.98-26.14-38.73-37.88-13.11-11.17-25.43-23.22-36.89-36.08-17.79-19.51-26.59-29.31-35.48-39.12s-17.69-19.61-35.48-39.12c-8.09-8.89-17.89-9.3-27-1.11-6.06,5.56-9.09,8.39-12,11.22s-5.76,5.56-11.72,10.92c-2.63,2.32-6.27,6.06-7.68,11.32-.1,.5-.31,1-.41,1.62-.6,3.63-.4,9.4,4.75,15.16,17.89,19.71,27.4,29.31,36.59,38.71,9,9.2,18.4,18.7,36,38.11s25.37,29.21,33.76,39.72"/>
        </g>
      </g>
      <circle class="cls-1" cx="716.22" cy="1124.34" r="507.31"/>
    </g>
  </g>
</svg>