<svg xmlns="http://www.w3.org/2000/svg" viewBox="0 0 94.04 102.16"><defs><style>.cls-1{fill:#ffabc9;}</style></defs><title>logo-v</title><g id="Layer_2" data-name="Layer 2"><g id="a"><path class="cls-1" d="M93.82,17.86a2.49,2.49,0,0,0-1.89-1.54c-2.8-.51-4.23-.72-5.61-.91s-2.77-.39-5.53-.9l-5.56-1c-1.39-.25-2.77-.49-5.54-1s-4.14-.82-5.48-1.12-2.78-.63-5.57-1.14S54.41,9.54,53,9.34,50.26,9,47.5,8.44,43.37,7.61,42,7.3s-2.78-.65-5.57-1.16-4.15-.78-5.53-1-2.77-.54-5.55-1L19.84,3c-1.39-.27-2.77-.53-5.55-1s-4.21-.74-5.58-1S5.94.55,3.18,0A2.62,2.62,0,0,0,.73.89,2.83,2.83,0,0,0,.11,3.57c.78,2.67,1.15,4,1.5,5.36s.73,2.71,1.52,5.41,1.21,4.06,1.62,5.38.83,2.66,1.61,5.34,1.13,4,1.48,5.36.71,2.72,1.49,5.43,1.23,4.06,1.65,5.38.86,2.65,1.64,5.32l1.56,5.37,1.56,5.38c.78,2.69,1.2,4.06,1.61,5.37S18.17,65.33,19,68s1.14,4,1.48,5.36.71,2.72,1.5,5.42,1.16,4,1.54,5.37.76,2.7,1.55,5.38,1.26,4.07,1.71,5.38.9,2.62,1.68,5.28a2.65,2.65,0,0,0,2,1.92,2.28,2.28,0,0,0,.45,0A2.6,2.6,0,0,0,33,101.07c1.66-2.21,2.54-3.23,3.46-4.32s1.84-2.16,3.54-4.42,2.49-3.49,3.24-4.67,1.49-2.33,3.14-4.53,2.54-3.23,3.46-4.31,1.84-2.16,3.55-4.42,2.52-3.41,3.33-4.53S58.31,67.6,60,65.38,62.53,62,63.37,61s1.72-2.21,3.41-4.46,2.52-3.4,3.33-4.52,1.62-2.26,3.3-4.49,2.55-3.34,3.4-4.41,1.74-2.21,3.43-4.45,2.51-3.43,3.3-4.58,1.58-2.29,3.24-4.5,2.53-3.4,3.34-4.51,1.64-2.26,3.31-4.48a2.86,2.86,0,0,0,.43-2.73"/></g></g></svg>