<svg xmlns="http://www.w3.org/2000/svg" viewBox="0 0 98.96 98.76"><defs><style>.cls-1{fill:#fff;}</style></defs><title>mattel-white</title><g id="Layer_2" data-name="Layer 2"><g id="Layer_1-2" data-name="Layer 1"><path class="cls-1" d="M34.72,47.4l-.48,8.28,5.12-1.4L34.8,47.36Zm58.08,5L99,48.68,96.68,47.4h0l-11.08,3-5.08-19,3.4-.92L88.2,46.4l4.56-1.2,5.48-4.64-6.76-2.44,4.64-5.48L89,31.36l3.68-6.16-7.16-.08,2.6-6.68-7.08,1.12,1.48-7-6.8,2.24L76,7.6l-6.36,3.32L68.8,3.8,63.08,8.12,61,1.24l-4.92,5.2L53,0,49,6,44.68.12l-3,6.52L36.64,1.56,34.76,8.48,28.92,4.36l-.68,7.16L21.8,8.36l.52,7.16-6.88-2,1.68,7L10,19.56l2.8,6.6-7.16.28,3.84,6.08L2.44,34l4.8,5.36L.56,42l5.6,4.48L0,50.12,6.28,53.6.8,58.24l6.76,2.44L2.92,66.16,10,67.44,6.28,73.56l7.16.08-2.6,6.68,7.08-1.12-1.48,7L23.24,84,23,91.16l6.36-3.32L30.2,95l5.72-4.32,2,6.88,4.92-5.2L46,98.76l4-6,4.2,5.84,3-6.52,5.08,5.08,1.88-6.92L70,94.44l.68-7.16,6.44,3.16-.48-7.16,6.88,2-1.68-7,7.12.88-2.8-6.6,7.16-.28-3.84-6.08,7-1.48-4.8-5.36,6.68-2.6Zm-67,14L21.84,51.8,21.4,67.56l-2.92.8L10.24,54.92l3.92,14.6-3.4.92-5.08-19,5.12-1.36,7.72,12.56L18.92,48,24,46.6l5.08,19Zm18.36-4.92-2.88-4.4L34,59l-.32,5.24-3.4.92L31.8,44.44l4-1.08,11.64,17.2Zm15.56-21.2,4.24,15.88-3.4.92L56.28,41.2,49.36,43,53.6,58.92l-3.4.92L46,44,40.56,45.4l-.84-3.08,24.56-6.56.84,3.08Zm11.4,14L66,35.32l12.16-3.24L79,35.16l-8.8,2.36L71.4,42l8.08-2.16.8,3-8,2.16,1.4,5.24,9-2.4L83.44,51ZM86.92,84H86.6V82h.76a1.11,1.11,0,0,1,.52.12.64.64,0,0,1,.2.44.51.51,0,0,1-.16.4,1.42,1.42,0,0,1-.36.16l.56.88h-.36l-.52-.84h-.32Zm.36-1.12h.16a.3.3,0,0,0,.16,0s.08,0,.12-.08a.34.34,0,0,0,0-.32s-.08-.08-.12-.08-.08,0-.12,0h-.56v.56Zm0,1.92a1.8,1.8,0,1,1,1.8-1.8A1.79,1.79,0,0,1,87.28,84.8Zm0-3.28A1.48,1.48,0,1,0,88.76,83h0A1.48,1.48,0,0,0,87.28,81.52Z"/></g></g></svg>