<svg xmlns="http://www.w3.org/2000/svg" viewBox="0 0 425.12 221.67"><defs><style>.cls-1{fill:#ff4761;}.cls-2{fill:#ffabc9;}.cls-3{fill:#ffc200;}.cls-4{fill:#2470c7;}.cls-5{fill:#00a07f;}</style></defs><title>move-logo</title><g id="Layer_2" data-name="Layer 2"><g id="a"><path class="cls-1" d="M221.3,100.41a49.07,49.07,0,0,0-9.87-19.89,50.23,50.23,0,0,0-7.78-8A50.72,50.72,0,0,0,194,66.81,48.91,48.91,0,0,0,183.51,63a48.29,48.29,0,0,0-32.87,3.43,47.8,47.8,0,0,0-8.87,6l-.38.3a50.12,50.12,0,0,0-8.18,7.61,50.15,50.15,0,0,0-5.93,9.5,49,49,0,0,0-3.73,32.78,49,49,0,0,0,3.86,10.49,46.29,46.29,0,0,0,13.73,17.49,50.49,50.49,0,0,0,9.65,5.67A49.58,49.58,0,0,0,161.32,160a50.8,50.8,0,0,0,11.09,1.45,49.54,49.54,0,0,0,11.1-1.4,48.82,48.82,0,0,0,10.49-3.8,49.44,49.44,0,0,0,9.55-5.77,50.69,50.69,0,0,0,8.11-7.72,50.29,50.29,0,0,0,6-9.49,48.57,48.57,0,0,0,3.65-32.84"/><path class="cls-2" d="M336.23,47.88a2.49,2.49,0,0,0-1.89-1.54c-2.8-.51-4.23-.72-5.61-.91s-2.77-.39-5.53-.9-4.17-.75-5.56-1l-5.54-1c-2.75-.5-4.14-.82-5.48-1.12s-2.78-.63-5.57-1.14-4.23-.71-5.61-.91-2.77-.39-5.53-.9-4.13-.83-5.47-1.14-2.78-.65-5.57-1.16-4.15-.78-5.53-1-2.77-.54-5.55-1l-5.54-1c-1.39-.27-2.77-.53-5.55-1s-4.21-.74-5.58-1-2.77-.45-5.53-1a2.62,2.62,0,0,0-2.45.85,2.83,2.83,0,0,0-.62,2.68c.78,2.67,1.15,4,1.5,5.36s.73,2.71,1.52,5.41,1.21,4.06,1.62,5.38.83,2.66,1.61,5.34,1.13,4,1.48,5.36.71,2.72,1.49,5.43,1.23,4.06,1.65,5.38.86,2.65,1.64,5.32l1.56,5.37,1.56,5.38c.78,2.69,1.2,4.06,1.61,5.37s.82,2.66,1.6,5.34,1.14,4,1.48,5.36.71,2.72,1.5,5.42,1.16,4,1.54,5.37.76,2.7,1.55,5.38,1.26,4.07,1.71,5.38.9,2.62,1.68,5.28a2.65,2.65,0,0,0,2,1.92,2.28,2.28,0,0,0,.45,0,2.6,2.6,0,0,0,2.08-1.09c1.66-2.21,2.54-3.23,3.46-4.32s1.84-2.16,3.54-4.42,2.49-3.49,3.24-4.67,1.49-2.33,3.14-4.53,2.54-3.23,3.46-4.31,1.84-2.16,3.55-4.42,2.52-3.41,3.33-4.53,1.62-2.27,3.29-4.49,2.55-3.34,3.39-4.43,1.72-2.21,3.41-4.46,2.52-3.4,3.33-4.52,1.62-2.26,3.3-4.49,2.55-3.34,3.4-4.41,1.74-2.21,3.43-4.45,2.51-3.43,3.3-4.58,1.58-2.29,3.24-4.5,2.53-3.4,3.34-4.51,1.64-2.26,3.31-4.48a2.86,2.86,0,0,0,.43-2.73"/><path class="cls-3" d="M99.42,139.49c-1.12-2.47-1.63-3.76-2.12-5s-1-2.58-2.16-5.1-1.83-3.78-2.49-5-1.3-2.37-2.42-4.83-1.7-3.75-2.27-5-1.14-2.49-2.27-5-1.64-3.76-2.14-5-1-2.57-2.17-5.09-1.67-3.76-2.2-5S78.1,92,77,89.48l-2.25-5c-.57-1.26-1.13-2.51-2.27-5s-1.81-3.78-2.46-5-1.28-2.39-2.39-4.85-1.56-3.69-2-5-1-2.62-2.1-5.16A2.66,2.66,0,0,0,60.68,58a2.82,2.82,0,0,0-2.5,2.19c-.56,2.61-.92,3.92-1.26,5.19s-.71,2.63-1.28,5.3-.85,3.94-1.13,5.25-.57,2.64-1.14,5.29-.84,4-1.11,5.29-.54,2.64-1.11,5.27-.83,4-1.08,5.31-.5,2.64-1.07,5.26-.86,4-1.16,5.27-.58,2.63-1.15,5.26-.82,4-1.06,5.3c-.19,1-.38,2.06-.72,3.68-1-1.6-1.55-2.54-2.14-3.51s-1.36-2.24-2.7-4.43-2.09-3.42-2.79-4.56-1.39-2.29-2.79-4.57-2.16-3.43-2.89-4.54S30.14,98,28.74,95.73s-2-3.43-2.69-4.57-1.32-2.36-2.73-4.65S21.23,83.1,20.55,82s-1.38-2.3-2.79-4.58S15.67,74,15,72.81s-1.38-2.3-2.79-4.58a2.72,2.72,0,0,0-3-1.17A2.85,2.85,0,0,0,7,69.57c-.21,2.75-.28,4.15-.34,5.5s-.12,2.72-.33,5.43-.41,4-.62,5.36S5.24,88.62,5,91.39s-.29,4.14-.37,5.49-.16,2.72-.37,5.45-.34,4.1-.47,5.44-.26,2.74-.48,5.48-.27,4.15-.33,5.51-.12,2.72-.33,5.43-.3,4.1-.39,5.47-.18,2.73-.39,5.46-.36,4.09-.51,5.42-.3,2.74-.52,5.49-.32,4.09-.43,5.46S.22,154.22,0,157A2.75,2.75,0,0,0,1,159.18a3,3,0,0,0,2,.79,2.28,2.28,0,0,0,.45,0L8.63,159l5.21-.94c2.6-.46,3.93-.66,5.22-.86s2.64-.4,5.26-.86,4-.76,5.26-1,2.57-.57,5.16-1l5.22-.91,5.24-.91c2.59-.46,3.91-.62,5.2-.78s2.67-.33,5.31-.8l5.23-.94,5.22-.94c2.65-.47,4-.8,5.27-1.13s2.54-.64,5.12-1.1,3.85-.6,5.19-.75,2.68-.3,5.32-.77,3.91-.67,5.22-.89,2.63-.43,5.25-.89a2.62,2.62,0,0,0,1.84-1.37,3,3,0,0,0,.09-2.6"/><path class="cls-4" d="M425.12,112.3a49.63,49.63,0,0,0-3.3-11.14,50.26,50.26,0,0,0-6-9.94,54.71,54.71,0,0,0-17.89-14.44,49.27,49.27,0,0,0-10.87-3.86,50.16,50.16,0,0,0-11.45-1.35,54,54,0,0,0-16.34,2.3,52,52,0,0,0-18.71,11.71A49.53,49.53,0,0,0,333.4,94a50.69,50.69,0,0,0-5.09,9.85,49.68,49.68,0,0,0-2.87,11.29,49.11,49.11,0,0,0-.24,11.67,49.1,49.1,0,0,0,8.44,22.8,49.67,49.67,0,0,0,8.2,9,50.69,50.69,0,0,0,33.48,13.14,42,42,0,0,0,4.51-.33l.94-.1a50.48,50.48,0,0,0,10.1-2.2,51.42,51.42,0,0,0,9.44-4.17,55.54,55.54,0,0,0,20.86-22.33,2.77,2.77,0,0,0,0-2.24,2.81,2.81,0,0,0-1.59-1.58c-2.7-1-4.06-1.51-5.41-2s-2.7-1-5.4-2-4.11-1.48-5.47-1.94-2.72-.91-5.4-1.91a2.41,2.41,0,0,0-3.07,1.2c-1.47,2.67-3.82,5-7.39,7.4a21.46,21.46,0,0,1-9.73,3.49,10.45,10.45,0,0,0-1.19.23,5.11,5.11,0,0,1-1.14.19,22.25,22.25,0,0,1-18.35-9.75,21.88,21.88,0,0,1-3.37-10.14c0-.34.22-.72.42-.75,2.63-.31,4-.41,5.27-.51s2.69-.2,5.36-.52,3.87-.49,5.14-.68,2.69-.4,5.44-.7l7.8-.85,4-.43c2.95-.31,4.45-.45,5.9-.58s3-.27,5.93-.59l5.9-.61c1.48-.15,3-.29,5.92-.61s4.43-.45,5.9-.6,3-.28,5.93-.6a2.77,2.77,0,0,0,1.92-1.13,2.85,2.85,0,0,0,.54-2.2"/><path class="cls-5" d="M157.48,30.54a41.78,41.78,0,0,1,1.1,5.32,2.59,2.59,0,0,0,.5,1.26,1.29,1.29,0,0,0,.16.17l3.07.23c.4-.05.81-.1,1.62-.22a2.49,2.49,0,0,0,2.12-2.57c-.41-2.74-.62-4.11-.83-5.48s-.42-2.74-.83-5.48-.73-4.17-1-5.52-.6-2.67-1-5.37-.52-4-.65-5.44-.24-2.8-.66-5.57A2.15,2.15,0,0,0,160,.37,2.56,2.56,0,0,0,158.3,0a7.62,7.62,0,0,1-1.43.1,10.5,10.5,0,0,0-1.79.12,2.47,2.47,0,0,0-1.56,1.06A2.51,2.51,0,0,0,153,3.09l.84,5.49.84,5.46c.41,2.74.62,4.11.82,5.48s.41,2.74.82,5.48a43.89,43.89,0,0,0,1.15,5.55"/><path class="cls-5" d="M220.72,34.05c.72-1.09,1.46-2.22,2.77-4.52a2.2,2.2,0,0,0-.92-3l-1.37-.79c-.35-.21-.7-.42-1.41-.82a2.45,2.45,0,0,0-3.24.66,38.77,38.77,0,0,0-2.36,4.81A37.63,37.63,0,0,1,211.94,35c-1.29,2.27-1.93,3.41-2.58,4.54l-2.58,4.55a1.72,1.72,0,0,0,.73,2.57l1.43.79c.35.19.7.37,1.39.76a2.5,2.5,0,0,0,1.3.37.47.47,0,0,0,.16,0,1.73,1.73,0,0,0,1.28-.92c1.3-2.29,1.91-3.48,2.51-4.63s1.19-2.31,2.47-4.56,2-3.29,2.69-4.4"/><path class="cls-5" d="M187.7,191.13a42.31,42.31,0,0,1-1-5.34,2.56,2.56,0,0,0-.48-1.27l-.15-.17-3.06-.29-1.62.19h0a2.49,2.49,0,0,0-2.17,2.53l.72,5.5.72,5.49c.36,2.78.65,4.19.92,5.54s.54,2.68.89,5.39.44,4,.53,5.45.18,2.8.55,5.59a2.16,2.16,0,0,0,1.06,1.52,2.61,2.61,0,0,0,1.65.39,7.89,7.89,0,0,1,1.43-.07,10.41,10.41,0,0,0,1.79-.08,2.44,2.44,0,0,0,1.58-1,2.57,2.57,0,0,0,.55-1.78c-.36-2.75-.54-4.13-.73-5.5s-.37-2.74-.73-5.48-.53-4.12-.71-5.49-.35-2.75-.71-5.5a45.53,45.53,0,0,0-1-5.57"/><path class="cls-5" d="M126.57,190.82c-.83,1-1.69,2.05-3.24,4.2a2.2,2.2,0,0,0,.6,3c.64.46,1,.7,1.27.94s.65.49,1.32,1a2.45,2.45,0,0,0,3.29-.3,39.13,39.13,0,0,0,2.87-4.53,39.52,39.52,0,0,1,2.73-4.32l3.05-4.24,3-4.24a1.71,1.71,0,0,0-.45-2.63c-.66-.48-1-.71-1.34-.94s-.65-.45-1.3-.91a2.44,2.44,0,0,0-1.25-.51H137a1.71,1.71,0,0,0-1.37.78c-1.54,2.14-2.28,3.26-3,4.34s-1.43,2.16-2.94,4.27-2.3,3.06-3.15,4.08"/><path class="cls-5" d="M111.38,41.26c-.82-1-1.67-2.07-3.47-4a2.19,2.19,0,0,0-3.1,0c-.58.54-.88.8-1.17,1.06s-.61.54-1.21,1.1a2.45,2.45,0,0,0-.36,3.28,39.62,39.62,0,0,0,3.87,3.71,38,38,0,0,1,3.68,3.54l3.55,3.84,3.55,3.84a1.72,1.72,0,0,0,2.67.09c.6-.55.89-.84,1.18-1.12s.57-.55,1.15-1.09a2.51,2.51,0,0,0,.75-1.13l0-.16a1.75,1.75,0,0,0-.49-1.5c-1.79-1.93-2.74-2.88-3.65-3.79s-1.83-1.83-3.6-3.74-2.54-2.86-3.37-3.9"/><path class="cls-5" d="M229.56,180.58c.81,1,1.65,2.08,3.43,4a2.19,2.19,0,0,0,3.1,0c.58-.53.88-.79,1.18-1s.62-.54,1.22-1.09a2.45,2.45,0,0,0,.39-3.28,39.61,39.61,0,0,0-3.83-3.75,37.34,37.34,0,0,1-3.65-3.57c-1.76-1.93-2.63-2.9-3.51-3.87s-1.75-1.94-3.51-3.87a1.72,1.72,0,0,0-2.67-.11l-1.19,1.11c-.29.27-.57.55-1.16,1.08a2.36,2.36,0,0,0-.76,1.12c0,.05,0,.1,0,.16a1.75,1.75,0,0,0,.47,1.5c1.77,1.95,2.71,2.9,3.62,3.83s1.82,1.85,3.56,3.77,2.51,2.89,3.34,3.93"/></g></g></svg>