<svg xmlns="http://www.w3.org/2000/svg" viewBox="0 0 89.03 28.43"><defs><style>.cls-1{fill:#ffabc9;}</style></defs><title>r-2</title><g id="Layer_2" data-name="Layer 2"><g id="Layer_1-2" data-name="Layer 1"><path class="cls-1" d="M88.83,17.32c-.06-.77-.11-1.54-.2-3.07s-.12-2.31-.16-3.08-.07-1.56-.16-3.11-.16-2.37-.24-3.14-.15-1.52-.24-3A2,2,0,0,0,85.75,0c-1.61.11-2.43.2-3.22.28S81,.44,79.39.55s-2.34.13-3.15.16S74.63.76,73,.87,70.7,1,69.89,1s-1.63,0-3.25.14-2.43.19-3.22.28-1.57.17-3.13.27-2.43.19-3.22.27-1.57.15-3.14.25l-3.19.23-3.18.22c-1.6.11-2.42.18-3.2.25L43.3,3V3l-1,.1-1.07.07a27.24,27.24,0,0,1-3.09.07,29.08,29.08,0,0,0-3.29.08l.09.27-1.12.08c-1.61.1-2.43.19-3.22.26s-1.57.16-3.14.26l-3.19.23-3.18.23c-1.58.11-2.37.15-3.16.19s-1.61.08-3.21.19l-6.37.43c-1.6.11-2.41.18-3.2.25L2,5.93A2,2,0,0,0,0,8c.1,1.58.19,2.38.28,3.15s.17,1.51.26,3,.1,2.27.12,3.05,0,1.58.11,3.15.13,2.31.17,3.08S1,25,1.1,26.53a2.07,2.07,0,0,0,2.18,1.9c1.59-.11,2.38-.16,3.18-.2L9.65,28c1.61-.11,2.43-.19,3.22-.27s1.57-.16,3.14-.27,2.33-.13,3.14-.15,1.62,0,3.23-.16,2.43-.2,3.22-.28,1.57-.17,3.14-.28,2.4-.17,3.19-.23l3.17-.24c1.57-.1,2.33-.12,3.14-.14s1.62,0,3.24-.15,2.39-.17,3.19-.23l3.17-.23,0-.11,1-.08c1.61-.11,2.43-.19,3.22-.27s1.57-.16,3.14-.27,2.39-.14,3.16-.17,1.61-.08,3.21-.19,2.4-.16,3.2-.22S66.38,24,68,23.85s2.34-.13,3.15-.16,1.61-.05,3.22-.16,2.45-.21,3.24-.3,1.56-.19,3.12-.29l3.18-.21c.8,0,1.6-.09,3.2-.2a2,2,0,0,0,2-2.1c-.09-1.56-.15-2.33-.2-3.11"/></g></g></svg>