<svg xmlns="http://www.w3.org/2000/svg" xmlns:xlink="http://www.w3.org/1999/xlink" viewBox="0 0 402.51 172.86"><defs><style>.cls-1,.cls-23{fill:#eb0a1e;}.cls-2{fill:#282830;}.cls-16,.cls-17,.cls-18,.cls-19,.cls-2,.cls-20,.cls-21,.cls-22,.cls-23,.cls-25,.cls-26,.cls-28{fill-rule:evenodd;}.cls-2,.cls-27{opacity:0.1;}.cls-2,.cls-22,.cls-24,.cls-25,.cls-26,.cls-27{isolation:isolate;}.cls-18,.cls-3{fill:#30273b;}.cls-4{fill:#595262;}.cls-11,.cls-12,.cls-13,.cls-14,.cls-27,.cls-29,.cls-5,.cls-6{fill:none;stroke-miterlimit:10;}.cls-5{stroke:#335f77;}.cls-11,.cls-13,.cls-14,.cls-29,.cls-5,.cls-6{stroke-linecap:round;}.cls-11,.cls-5{stroke-width:14.12px;}.cls-13,.cls-6{stroke:#e5a97c;}.cls-6{stroke-width:12.1px;}.cls-16,.cls-7{fill:#d18715;}.cls-22,.cls-26,.cls-28,.cls-8{fill:#fff;}.cls-9{fill:#335f77;}.cls-10{fill:#3d7898;}.cls-11{stroke:#3d7898;}.cls-12{stroke:#595262;stroke-width:2.89px;}.cls-13{stroke-width:16.14px;}.cls-14{stroke:#eb9763;stroke-width:9.2px;}.cls-15{fill:#eb9763;}.cls-17{fill:#e5a97c;}.cls-19{fill:#c88c69;}.cls-20,.cls-25{fill:#ebe7e8;}.cls-21{fill:#6e6776;}.cls-22,.cls-24{opacity:0.3;}.cls-24{fill:#a3bfe4;}.cls-25{opacity:0.25;}.cls-26{opacity:0.5;}.cls-27{stroke:#282830;stroke-width:0.72px;}.cls-29{stroke:#3f3569;stroke-width:3.58px;}.cls-30{fill:url(#radial-gradient);}</style><radialGradient id="radial-gradient" cx="599.66" cy="-33506.53" r="414.27" gradientTransform="translate(489.06 -172.03) rotate(180) scale(0.48 0.01)" gradientUnits="userSpaceOnUse"><stop offset="0.25" stop-color="#282830" stop-opacity="0.5"/><stop offset="0.61" stop-color="#282830" stop-opacity="0.31"/><stop offset="1" stop-color="#282830" stop-opacity="0"/></radialGradient></defs><title>red-car</title><g id="Layer_2" data-name="Layer 2"><g id="Layer_1-2" data-name="Layer 1"><g id="Artwork"><rect class="cls-1" x="99.33" y="66.56" width="27.74" height="14.2" rx="3.55"/><path class="cls-2" d="M99.65,71.68a6.84,6.84,0,0,0-.32,2,7.12,7.12,0,0,0,7.1,7.1H120a7.12,7.12,0,0,0,7.1-7.1,6.84,6.84,0,0,0-.32-2A7.1,7.1,0,0,1,120,76.8H106.43A7.11,7.11,0,0,1,99.65,71.68Z"/><path class="cls-1" d="M188.87,72.17h9.49c0-16.73,6.07-31,14.68-37h-2.33C198.65,35.18,188.87,51.74,188.87,72.17Z"/><path class="cls-3" d="M208,32.21c-13,0-23.6,17.89-23.6,40h4.43c0-20.43,9.78-37,21.84-37h66.66c12.06,0,21.84,16.56,21.84,37h4.43c0-22.07-10.57-40-23.6-40H208Z"/><rect class="cls-4" x="178.44" y="28.31" width="38.14" height="23.6" rx="5.9"/><rect class="cls-3" x="171.28" y="28.31" width="38.14" height="23.6" rx="5.9"/><rect class="cls-4" x="173.68" y="50.86" width="61.97" height="47.19" rx="11.8"/><rect class="cls-3" x="159.37" y="50.86" width="61.97" height="47.19" rx="11.8"/><rect class="cls-3" x="221.09" y="50.86" width="119.21" height="47.19" rx="11.8"/><rect class="cls-4" x="230.92" y="50.86" width="61.97" height="47.19" rx="11.8"/><rect class="cls-4" x="235.68" y="28.31" width="38.14" height="23.6" rx="5.9"/><rect class="cls-3" x="228.52" y="28.31" width="38.14" height="23.6" rx="5.9"/><rect class="cls-3" x="216.61" y="50.86" width="61.97" height="47.19" rx="11.8"/><path class="cls-5" d="M184.8,62.91c4,6.35,9.6,13.27,16.85,14.08,11.27,1.25,19.32-2.5,24.48-13"/><path class="cls-6" d="M181,54c1.19,2,.7,4,2.5,6.83"/><circle class="cls-7" cx="240.17" cy="49" r="23"/><path class="cls-8" d="M218.44,88.27l31.07,2.4,0-.41,5.29.41,2.37-24c.78-7.84-5.55-14.74-14.13-15.4a17.35,17.35,0,0,0-4,.17c-.45-.07-.9-.13-1.37-.17-8.58-.66-16.16,5.16-16.94,13l-2.37,24Z"/><path class="cls-9" d="M230.74,51.55c-5.83,1.82-10.25,6.63-10.84,12.58L217.47,88.7l6.73.52,2.59-25.58C227.25,58.11,228.81,53.61,230.74,51.55Z"/><path class="cls-10" d="M240,66.62,238,90.3l11.29.87,0-.42,5.43.42,2.43-24.57c.8-8-5.69-15.1-14.48-15.78a17.1,17.1,0,0,0-4.06.17c-.32-.05-.64-.08-1-.12,2.48,1.64,2.86,8.29,2.25,15.74Z"/><path class="cls-11" d="M207.79,62.91c4,6.35,9.6,13.27,16.85,14.08,11.27,1.25,19.32-2.5,24.48-13"/><path class="cls-6" d="M204,54c1.19,2,.7,4,2.5,6.83"/><path class="cls-12" d="M203.78,65.57c0,9.72-6.69,17.6-14.95,17.6s-15-7.87-15-17.59S180.56,48,188.82,48,203.78,55.85,203.78,65.57Z"/><line class="cls-13" x1="200.91" y1="52.74" x2="201.98" y2="54.34"/><line class="cls-13" x1="178.23" y1="52.74" x2="177.16" y2="54.34"/><line class="cls-14" x1="234.37" y1="53.74" x2="234.37" y2="47.4"/><circle class="cls-15" cx="250.69" cy="34.35" r="5.01"/><circle class="cls-15" cx="218.28" cy="34.35" r="5.01"/><path class="cls-7" d="M246.91,30.55h0a7.64,7.64,0,0,1-10.16-3.69l-7.26-15.58a7.63,7.63,0,0,1,3.69-10.15h0a7.64,7.64,0,0,1,10.16,3.69L250.6,20.4A7.64,7.64,0,0,1,246.91,30.55Z"/><path class="cls-16" d="M234.37,9.63A18,18,0,0,1,252.16,27.7v1.8a18,18,0,0,1-17.79,18.07h0A18,18,0,0,1,216.58,29.5V27.7A18,18,0,0,1,234.37,9.63Z"/><path class="cls-17" d="M251.62,29.54v1.75a17.44,17.44,0,0,1-17.25,17.53h0a17.44,17.44,0,0,1-17.25-17.53V29.54A17.44,17.44,0,0,1,234.37,12h0A17.44,17.44,0,0,1,251.62,29.54Z"/><circle class="cls-3" cx="235.3" cy="25.43" r="1.24"/><path class="cls-18" d="M233.59,25.91a1.72,1.72,0,0,1,3.44,0"/><circle class="cls-3" cx="221.94" cy="25.43" r="1.24"/><path class="cls-18" d="M223.67,25.91a1.73,1.73,0,0,0-3.46,0"/><path class="cls-19" d="M228.56,39.8a3.32,3.32,0,0,0,3.32-3.32h-6.63a3.32,3.32,0,0,0,3.32,3.32Z"/><path class="cls-19" d="M230.06,31.24a1.9,1.9,0,0,0-1.9,1.9H232a1.9,1.9,0,0,0-1.9-1.9Z"/><path class="cls-19" d="M227.33,31.24a1.9,1.9,0,0,0-1.9,1.9h3.8a1.9,1.9,0,0,0-1.9-1.9Z"/><path class="cls-20" d="M233.45,32.61h-9.63a1.15,1.15,0,0,0-1.09,1.5,6.15,6.15,0,0,0,11.8,0,1.15,1.15,0,0,0-1.09-1.5Z"/><rect class="cls-3" x="108.09" y="62.66" width="97.76" height="23.6" rx="5.9"/><path class="cls-18" d="M58.64,96.87c-16.2,0-29.33,15.46-29.33,34.52S42.46,165.9,58.66,165.9H70.82c16.2,0,29.33-15.46,29.33-34.52S87,96.88,70.81,96.88H58.64Z"/><path class="cls-18" d="M255.15,96.87c-16.2,0-29.33,15.46-29.33,34.52S239,165.9,255.17,165.9h12.16c16.2,0,29.33-15.46,29.33-34.52s-13.14-34.5-29.34-34.5H255.15Z"/><path class="cls-18" d="M267.34,96.89c16.2,0,29.34,15.44,29.34,34.5s-13.13,34.52-29.33,34.52S238,150.46,238,131.4s13.13-34.52,29.33-34.52Z"/><path class="cls-21" d="M267.33,103c13.34,0,24.16,12.72,24.16,28.41s-10.81,28.43-24.15,28.43-24.16-12.72-24.16-28.42S254,103,267.33,103Z"/><path class="cls-22" d="M250.24,111.31l34.17,40.18c-9.43,11.09-24.72,11.1-34.16,0s-9.43-29.09,0-40.19Z"/><path class="cls-18" d="M267.33,108.13c10.92,0,19.78,10.41,19.78,23.26s-8.85,23.27-19.77,23.27-19.78-10.41-19.78-23.26,8.85-23.27,19.77-23.27Z"/><path class="cls-21" d="M254.28,117.15l17.21,11.68,12.86,8.73L283,140.32,252.93,119.9l1.35-2.76Zm-2.61,5.31-1.35,2.76,30.08,20.42,1.35-2.76-30.08-20.42Z"/><path class="cls-21" d="M263.18,128.82l17.21-11.68,1.35,2.76-30.07,20.42-1.35-2.76,12.86-8.73ZM283,122.46l-30.08,20.42,1.35,2.76,30.08-20.42Z"/><path class="cls-21" d="M271.3,111v40.85h-2.72V111h2.72Zm-5.23,0v40.85h-2.72V111h2.72Z"/><path class="cls-18" d="M266.42,121.35c4.71-.6,8.94,3.41,9.45,9s-2.9,10.52-7.62,11.12-8.95-3.41-9.46-9,2.91-10.52,7.62-11.12Z"/><path class="cls-21" d="M273.16,130.66c.34,3.78-2,7.18-5.2,7.59s-6.1-2.34-6.45-6.12,2-7.18,5.2-7.59S272.81,126.87,273.16,130.66Z"/><path class="cls-18" d="M70.82,96.89c16.2,0,29.34,15.44,29.34,34.5S87,165.91,70.83,165.91,41.48,150.46,41.48,131.4,54.61,96.88,70.81,96.88Z"/><path class="cls-21" d="M95,131.38c0,15.7-10.81,28.43-24.15,28.43s-24.16-12.72-24.16-28.42S57.47,103,70.81,103,95,115.69,95,131.38Z"/><path class="cls-22" d="M53.72,111.31l34.17,40.18c-9.43,11.09-24.72,11.1-34.16,0s-9.43-29.09,0-40.19Z"/><path class="cls-18" d="M70.81,108.13c10.92,0,19.78,10.41,19.78,23.26s-8.85,23.27-19.77,23.27S51,144.25,51,131.4s8.85-23.27,19.77-23.27Z"/><path class="cls-21" d="M57.76,117.15,75,128.83l12.86,8.73-1.35,2.76L56.41,119.9l1.35-2.76Zm-4,8.07,30.08,20.42,1.35-2.76L55.15,122.46Z"/><path class="cls-21" d="M66.66,128.82l17.21-11.68,1.35,2.76L55.15,140.32l-1.35-2.76,12.86-8.73Zm19.82-6.36L56.4,142.88l1.35,2.76,30.08-20.42Z"/><path class="cls-21" d="M74.79,111v40.85H72.07V111h2.72Zm-5.23,0v40.85H66.84V111h2.72Z"/><path class="cls-18" d="M69.91,121.35c4.71-.6,8.94,3.41,9.45,9s-2.9,10.52-7.62,11.12-8.95-3.41-9.46-9S65.19,122,69.9,121.35Z"/><path class="cls-21" d="M76.64,130.66c.34,3.78-2,7.18-5.2,7.59s-6.1-2.34-6.45-6.12,2-7.18,5.2-7.59S76.29,126.87,76.64,130.66Z"/><path class="cls-18" d="M144.5,96.87c-16.2,0-29.33,15.46-29.33,34.52s13.15,34.51,29.35,34.51h12.16c16.2,0,29.33-15.46,29.33-34.52s-13.14-34.5-29.34-34.5H144.5Z"/><path class="cls-18" d="M341,96.87c-16.2,0-29.33,15.46-29.33,34.52S324.83,165.9,341,165.9h12.16c16.2,0,29.33-15.46,29.33-34.52s-13.14-34.5-29.34-34.5H341Z"/><path class="cls-18" d="M263.26,145.05h0a6.74,6.74,0,0,1-6.72,6.72l-236.4,0a6.74,6.74,0,0,1-6.72-6.72h0a6.75,6.75,0,0,1,6.72-6.72l236.4,0A6.74,6.74,0,0,1,263.26,145.05Z"/><path class="cls-18" d="M266,133.37a6.74,6.74,0,0,1,6.72,6.72h0a6.74,6.74,0,0,1-6.72,6.72L8,146.86a6.74,6.74,0,0,1-6.72-6.72h0A6.75,6.75,0,0,1,8,133.42l258.06,0Z"/><path class="cls-18" d="M384.2,145.05h0a6.74,6.74,0,0,1-6.72,6.72l-236.4,0a6.74,6.74,0,0,1-6.72-6.72h0a6.75,6.75,0,0,1,6.72-6.72l236.4,0A6.74,6.74,0,0,1,384.2,145.05Z"/><path class="cls-18" d="M387,133.37a6.74,6.74,0,0,1,6.72,6.72h0a6.74,6.74,0,0,1-6.72,6.72l-258.06.05a6.74,6.74,0,0,1-6.72-6.72h0a6.75,6.75,0,0,1,6.72-6.72l258.06,0Z"/><path class="cls-23" d="M2.78,111.53C.53,119.15-.68,129,.42,137a13.64,13.64,0,0,0,.84,3.18l306.57-.07a14.07,14.07,0,0,0,.6-1.87c5.4-22.66,5.48-46.18-4.79-66l-239.56.06c-20.68,0-40.57,9-53.39,25.25-3.61,4.57-6.53,9.38-7.92,14.08Z"/><path class="cls-2" d="M273.35,138.39a11.26,11.26,0,0,1-11,8.45l-250.77.06A11.29,11.29,0,0,1,.41,137.27,42,42,0,0,1,0,129.42l275.31-.06c-.55,3-1.22,6-2,9Z"/><path class="cls-23" d="M88.64,111.54C86.39,119.16,85.18,129,86.28,137a13.64,13.64,0,0,0,.84,3.18l306.57-.07a14.07,14.07,0,0,0,.6-1.87,133.72,133.72,0,0,0,3.22-19.67c2.11-25-18-46.36-43.09-46.36l-230.07,0-.88.4c-16.4,7.28-29.29,20.12-34.84,38.92Z"/><path class="cls-3" d="M164.46,65.15c-1.72,2.37-3.39,4.74-5,7.08h195c-.57-2.37-1.2-4.73-1.82-7.08Z"/><path class="cls-3" d="M159.43,72.23H293.14c-.68-2.82-1-4.24-1.53-7.08H210.8c-14.12,0-24.06-16.83-14.56-27.24,1.34-1.47,2.5-2.7,3.35-3.58A203.19,203.19,0,0,1,236.84,3.68,2,2,0,0,0,235.78,0h-5.1C202.13,21,180.5,43.77,159.43,72.23Z"/><path class="cls-3" d="M151.88,0,146,4.41c28.36.21,53.47.43,81.83.65l3.47-1.17A2,2,0,0,0,230.66,0H151.88Z"/><path class="cls-3" d="M104.24,34.33c-5.91,6.12-29.4,36.15-30.66,37.9H207.29c-.68-2.82-1-4.24-1.53-7.08H88.27c1.26-1.75,13-18.17,25.47-30.82C126.81,21.08,141.48,8.92,157.11,0h-7.32a8,8,0,0,0-4.07,1.09,199.26,199.26,0,0,0-41.49,33.24Z"/><path class="cls-24" d="M155,65.15h9.51C184.22,39.6,204.55,19,230.69,0H149.77a8,8,0,0,0-4.05,1.09,199.26,199.26,0,0,0-41.49,33.24C98.32,40.45,80,63.4,78.76,65.15Z"/><rect class="cls-1" x="200.23" y="66.56" width="27.74" height="14.2" rx="3.55"/><path class="cls-2" d="M200.55,71.68a6.84,6.84,0,0,0-.32,2,7.12,7.12,0,0,0,7.1,7.1h13.54a7.12,7.12,0,0,0,7.1-7.1,6.84,6.84,0,0,0-.32-2,7.1,7.1,0,0,1-6.78,5.12H207.33A7.11,7.11,0,0,1,200.55,71.68Z"/><path class="cls-25" d="M120.48,140.15l69.54,0a49.18,49.18,0,0,0,.79-8.75c0-23.1-15.93-41.82-35.57-41.82s-35.55,18.74-35.55,41.84a49.1,49.1,0,0,0,.79,8.75Z"/><path class="cls-25" d="M317,140.12l69.54,0a49.38,49.38,0,0,0,.79-8.76c0-23.1-15.93-41.82-35.57-41.82s-35.55,18.74-35.55,41.84a49.18,49.18,0,0,0,.79,8.75Z"/><path class="cls-26" d="M184.74,79.34c9.15,0,16.57,1.06,16.57,2.36s-7.42,2.36-16.56,2.36S168.19,83,168.19,81.7s7.41-2.36,16.56-2.36Z"/><path class="cls-27" d="M304.26,71.5c1.94,12.29,6.06,47.3-4.32,75.43"/><path class="cls-2" d="M394.29,138.39a11.26,11.26,0,0,1-11,8.45L97.2,146.9A11.29,11.29,0,0,1,86,137.27a42,42,0,0,1-.37-7.85l310.67-.06c-.55,3-1.22,6-2,9Z"/><path class="cls-2" d="M104.5,90.5c8-7.46,16.4-11.39,18.86-8.77s-2,10.8-10,18.27S97,111.39,94.54,108.77s2-10.8,9.95-18.27Z"/><path class="cls-28" d="M117.12,85.11c1.87,2-1.51,8.2-7.55,13.87s-12.45,8.65-14.32,6.66,1.51-8.2,7.55-13.87S115.25,83.12,117.12,85.11Z"/><path class="cls-23" d="M17.78,90.5c8-7.46,16.4-11.39,18.86-8.77s-2,10.8-9.95,18.27-16.41,11.39-18.87,8.77,2-10.8,10-18.27Z"/><path class="cls-2" d="M17.78,90.5c8-7.46,16.4-11.39,18.86-8.77s-2,10.8-9.95,18.27-16.41,11.39-18.87,8.77,2-10.8,10-18.27Z"/><path class="cls-28" d="M30.39,85.11c1.87,2-1.51,8.2-7.55,13.87s-12.45,8.65-14.32,6.66,1.51-8.2,7.55-13.87S28.52,83.12,30.39,85.11Z"/><line class="cls-29" x1="288.52" y1="88.31" x2="294.72" y2="88.31"/><path class="cls-18" d="M353.2,96.89c16.2,0,29.34,15.44,29.34,34.5s-13.13,34.52-29.33,34.52-29.35-15.45-29.35-34.51S337,96.88,353.19,96.88Z"/><path class="cls-21" d="M377.35,131.38c0,15.7-10.81,28.43-24.15,28.43S329,147.09,329,131.39,339.85,103,353.19,103,377.35,115.69,377.35,131.38Z"/><path class="cls-22" d="M336.1,111.31l34.17,40.18c-9.43,11.09-24.72,11.1-34.16,0s-9.43-29.09,0-40.19Z"/><path class="cls-18" d="M353.19,108.13c10.92,0,19.78,10.41,19.78,23.26s-8.85,23.27-19.77,23.27-19.78-10.41-19.78-23.26,8.85-23.27,19.77-23.27Z"/><path class="cls-21" d="M340.14,117.15l17.21,11.68,12.86,8.73-1.35,2.76L338.79,119.9l1.35-2.76Zm-4,8.07,30.08,20.42,1.35-2.76-30.08-20.42Z"/><path class="cls-21" d="M349,128.82l17.21-11.68,1.35,2.76-30.07,20.42-1.35-2.76L349,128.83Zm19.82-6.36-30.08,20.42,1.35,2.76,30.08-20.42Z"/><path class="cls-21" d="M357.16,111v40.85h-2.72V111h2.72Zm-5.23,0v40.85h-2.72V111h2.72Z"/><path class="cls-18" d="M352.29,121.35c4.71-.6,8.94,3.41,9.45,9s-2.9,10.52-7.62,11.12-8.95-3.41-9.46-9,2.91-10.52,7.62-11.12Z"/><path class="cls-21" d="M359,130.66c.34,3.78-2,7.18-5.2,7.59s-6.1-2.34-6.45-6.12,2-7.18,5.2-7.59S358.67,126.87,359,130.66Z"/><path class="cls-18" d="M156.68,96.89c16.2,0,29.34,15.44,29.34,34.5s-13.13,34.52-29.33,34.52-29.35-15.45-29.35-34.51,13.13-34.52,29.33-34.52Z"/><path class="cls-21" d="M180.83,131.38c0,15.7-10.81,28.43-24.15,28.43s-24.16-12.72-24.16-28.42S143.33,103,156.67,103,180.83,115.69,180.83,131.38Z"/><path class="cls-22" d="M139.58,111.31l34.17,40.18c-9.43,11.09-24.72,11.1-34.16,0s-9.43-29.09,0-40.19Z"/><path class="cls-18" d="M156.67,108.13c10.92,0,19.78,10.41,19.78,23.26s-8.85,23.27-19.77,23.27S136.9,144.25,136.9,131.4s8.85-23.27,19.77-23.27Z"/><path class="cls-21" d="M143.62,117.15l17.21,11.68,12.86,8.73-1.35,2.76L142.27,119.9l1.35-2.76Zm-4,8.07,30.08,20.42,1.35-2.76L141,122.46Z"/><path class="cls-21" d="M152.52,128.82l17.21-11.68,1.35,2.76L141,140.32l-1.35-2.76,12.86-8.73Zm21.17-3.6-1.35-2.76-30.08,20.42,1.35,2.76,30.08-20.42Z"/><path class="cls-21" d="M160.65,111v40.85h-2.72V111h2.72Zm-5.23,0v40.85H152.7V111h2.72Z"/><path class="cls-18" d="M155.77,121.35c4.71-.6,8.94,3.41,9.45,9s-2.9,10.52-7.62,11.12-8.95-3.42-9.46-9,2.91-10.52,7.62-11.12Z"/><path class="cls-21" d="M162.5,130.66c.34,3.78-2,7.18-5.2,7.59s-6.1-2.34-6.45-6.12,2-7.18,5.2-7.59S162.15,126.87,162.5,130.66Z"/><path class="cls-1" d="M303.64,72.17H318c0-22.07-10.57-40-23.6-40H280C293.08,32.21,303.64,50.1,303.64,72.17Z"/><rect class="cls-30" x="2.51" y="157.67" width="400" height="15.19"/></g></g></g></svg>