<svg xmlns="http://www.w3.org/2000/svg" viewBox="0 0 93.88 54.92"><defs><style>.cls-1{fill:#ffc200;}</style></defs><title>sc-6</title><g id="Layer_2" data-name="Layer 2"><g id="Layer_1-2" data-name="Layer 1"><path class="cls-1" d="M3.67,27.15A48.22,48.22,0,0,0,10.2,37.44a48.45,48.45,0,0,0,8.88,8.31,49,49,0,0,0,10.64,5.84,47.3,47.3,0,0,0,11.71,2.94,46.79,46.79,0,0,0,23.62-3,46.42,46.42,0,0,0,10.42-5.9,46.67,46.67,0,0,0,8.47-8.45,46.93,46.93,0,0,0,6.21-10.25,46.26,46.26,0,0,0,3.3-11.59,46.84,46.84,0,0,0,.09-12.1A3.73,3.73,0,0,0,92.16.74,3.36,3.36,0,0,0,89.62,0c-3.08.41-4.42.59-6,.82l-4.86.67c-2.87.4-4.22.55-5.67.72-1.28.16-2.63.32-5.17.65l-5.43.73c-1.35.19-2.7.38-5.41.74l-5.43.73c-1.35.19-2.7.38-5.4.74s-4.08.54-5.43.73-2.7.38-5.41.73-4.05.5-5.38.65-2.74.29-5.48.65-4.11.58-5.45.78-2.68.41-5.37.77-4,.5-5.39.66-2.74.31-5.46.67A3.27,3.27,0,0,0,.66,12.8a3.6,3.6,0,0,0-.6,2.75,47.9,47.9,0,0,0,3.61,11.6"/></g></g></svg>