<?xml version="1.0" encoding="utf-8"?>
<!-- Generator: Adobe Illustrator 27.7.0, SVG Export Plug-In . SVG Version: 6.00 Build 0)  -->
<svg version="1.1" id="Layer_1" xmlns="http://www.w3.org/2000/svg" xmlns:xlink="http://www.w3.org/1999/xlink" x="0px" y="0px"
	 viewBox="0 0 500 500" style="enable-background:new 0 0 500 500;" xml:space="preserve">
<style type="text/css">
	.st0{fill:none;}
	.st1{fill:#1D3154;}
	.st2{fill:#E9A6C6;}
	.st3{fill:#F3BE40;}
	.st4{fill:#2F6EB6;}
	.st5{fill:#D94C65;}
</style>
<g>
	<polygon class="st0" points="500,0.41 500,191.47 500,191.47 500,0.41 149.08,0.41 149.08,0.41 	"/>
	<polygon class="st0" points="99.14,0.41 0,0.41 0,0.41 99.14,0.41 	"/>
	<polygon class="st0" points="500,313.5 500,313.5 500,272.86 500,272.86 	"/>
	<polygon class="st0" points="500,375.03 500,500.41 500,500.41 500,375.03 	"/>
	<path class="st1" d="M480.21,274.88c-7.02,0.75-10.59,1.07-14.05,1.39c-3.44,0.31-7,0.64-13.98,1.38l-9.51,1.01
		c-5.73,0.6-8.65,0.91-18.48,2.01c-6.54,0.73-9.63,1.19-12.9,1.67c-3.03,0.44-6.16,0.91-12.18,1.62c-6.34,0.75-9.58,0.99-12.71,1.23
		c-3.08,0.23-6.26,0.47-12.49,1.2c-0.48,0.06-1.08,0.96-1.01,1.77c0.8,9.04,3.56,17.35,7.99,24.04
		c4.58,6.93,11.11,12.79,18.89,16.95c7.55,4.04,16.05,6.17,24.59,6.17c0.8,0,1.73-0.23,2.71-0.46c0.89-0.22,1.82-0.44,2.82-0.55
		c8.41-0.9,16.17-3.68,23.06-8.26c8.47-5.64,14.04-11.22,17.52-17.54c1.54-2.8,4.39-3.92,7.27-2.84c6.35,2.38,9.62,3.47,12.78,4.53
		c2.57,0.86,5.23,1.75,9.48,3.31v-40.64c-2.24,0.23-4.02,0.4-5.8,0.58C490.7,273.79,487.2,274.13,480.21,274.88z"/>
	<path class="st1" d="M1.31,58.84c2.15,3.86,4.38,7.85,9.1,15.5c4.73,7.67,7.24,11.5,9.67,15.2c2.46,3.75,5.01,7.62,9.79,15.38
		c4.76,7.72,7.11,11.61,9.46,15.49c2.35,3.87,4.69,7.74,9.44,15.45c4.55,7.39,6.9,11.27,9.15,14.99c2,3.31,3.92,6.49,7.26,11.91
		c1.15-5.49,1.78-8.91,2.43-12.48c0.81-4.43,1.66-9.02,3.59-17.95c1.93-8.92,2.92-13.38,3.91-17.83c0.99-4.46,1.98-8.92,3.92-17.86
		c1.92-8.89,2.79-13.43,3.63-17.82c0.84-4.43,1.72-9.02,3.66-17.99c1.93-8.92,2.84-13.38,3.76-17.85c0.92-4.48,1.84-8.97,3.77-17.91
		c1.95-8.98,2.9-13.45,3.87-17.94c0.44-2.08,0.89-4.18,1.44-6.71H0v56.1C0.45,57.3,0.88,58.08,1.31,58.84z"/>
	<polygon class="st1" points="0,56.51 0,0.41 0,0.41 0,500.41 0,500.41 0,278.83 	"/>
	<path class="st1" d="M483.32,386.18c-7.34,4.15-14.87,7.48-22.37,9.88c-8.36,2.68-16.18,4.38-23.92,5.21l-2.22,0.24
		c-3.49,0.39-7.1,0.79-10.69,0.79c-8.89,0-18.31-1.25-28.8-3.83c-8.51-2.09-17.07-5.48-26.93-10.68
		c-8.15-4.29-16.1-9.88-23.64-16.62c-8.45-7.55-14.62-14.36-19.43-21.44c-5.72-8.42-10.23-17.08-13.39-25.74
		c-3.36-9.21-5.59-18.72-6.61-28.28c-0.91-8.53-0.72-17.57,0.58-27.64c1.15-8.9,3.43-17.9,6.8-26.76
		c3.01-7.91,7.06-15.77,12.05-23.35c4.52-6.87,10.06-13.43,16.94-20.05c7.02-6.76,13.77-12.07,20.64-16.22
		c9.14-5.53,16.45-9.08,23.69-11.51c8.57-2.87,17.48-4.09,25.84-4.98c4.45-0.47,8.92-0.47,12.87-0.47c9.02,0,18.15,1.08,27.13,3.2
		c9.46,2.24,17.89,5.23,25.75,9.15c8.21,4.09,15.72,8.93,22.39,14.36V0.41H149.08c0.36,0.69,0.72,1.36,1.09,2.04
		c2.18,4.09,4.44,8.31,8.32,16.88c3.86,8.52,5.78,12.75,7.71,17.01c1.9,4.2,3.81,8.43,7.62,16.83c3.86,8.49,5.72,12.86,7.53,17.07
		c1.79,4.18,3.64,8.5,7.46,16.91c3.87,8.53,5.65,12.96,7.37,17.24c1.69,4.2,3.43,8.55,7.24,16.94c3.84,8.46,5.76,12.68,7.68,16.91
		c1.93,4.23,3.85,8.46,7.69,16.92c3.78,8.33,5.93,12.24,8.2,16.37c2.24,4.08,4.56,8.29,8.45,16.88c3.88,8.54,5.63,12.98,7.33,17.27
		c1.67,4.21,3.39,8.57,7.19,16.94c1.26,2.77,1.14,6.06-0.3,8.8c-1.31,2.49-3.58,4.19-6.22,4.65c-8.88,1.56-13.33,2.29-17.78,3.02
		c-4.43,0.72-8.85,1.45-17.69,3c-8.97,1.58-13.58,2.1-18.03,2.6c-4.55,0.52-8.84,1-17.58,2.54c-8.72,1.54-12.91,2.59-17.33,3.72
		c-4.36,1.1-8.87,2.24-17.86,3.83c-8.86,1.56-13.28,2.37-17.7,3.18c-4.42,0.81-8.85,1.63-17.71,3.18
		c-8.95,1.58-13.54,2.14-17.98,2.69c-4.35,0.54-8.84,1.09-17.61,2.64c-8.87,1.56-13.3,2.33-17.74,3.09
		c-4.42,0.76-8.85,1.53-17.7,3.08c-8.78,1.54-13.21,2.53-17.49,3.47c-3.53,0.78-7.21,1.59-13.22,2.71v221.58h102.7
		c-0.37-1.37-0.69-2.61-1.01-3.82c-0.93-3.55-1.89-7.22-3.98-14.38c-2.09-7.18-3.21-10.82-4.3-14.33
		c-1.09-3.53-2.22-7.19-4.32-14.41c-2.1-7.21-3.14-10.81-4.18-14.42c-1.04-3.6-2.08-7.2-4.18-14.4c-2.09-7.17-3.25-10.77-4.39-14.27
		c-1.14-3.53-2.32-7.18-4.43-14.42c-2.11-7.25-3.07-10.96-4-14.55c-0.92-3.55-1.87-7.22-3.96-14.38
		c-2.09-7.18-3.22-10.81-4.31-14.33c-1.1-3.54-2.23-7.19-4.33-14.42c-2.11-7.24-3.11-10.93-4.07-14.51
		c-0.96-3.55-1.95-7.22-4.04-14.39c-0.73-2.49-0.08-5.25,1.67-7.19c1.69-1.88,4.15-2.73,6.58-2.29c7.41,1.36,11.19,1.97,14.85,2.56
		c3.69,0.6,7.5,1.22,14.97,2.58c7.45,1.36,11.17,2.08,14.89,2.79c3.71,0.71,7.42,1.42,14.85,2.78c7.46,1.36,11.18,2.09,14.9,2.82
		c3.7,0.73,7.41,1.45,14.83,2.81c7.51,1.37,11.29,2.25,14.95,3.11c3.59,0.84,7.31,1.7,14.68,3.05c7.38,1.35,11.16,1.89,14.82,2.4
		c3.71,0.53,7.56,1.07,15.05,2.44c7.5,1.37,11.29,2.23,14.95,3.06c3.6,0.82,7.32,1.66,14.7,3.01c7.43,1.36,11.15,2.02,14.87,2.67
		c3.73,0.66,7.46,1.32,14.91,2.68c7.39,1.35,11.17,1.89,14.82,2.41c3.71,0.53,7.56,1.07,15.06,2.44c2.37,0.44,4.22,1.94,5.07,4.12
		c0.92,2.36,0.48,5.16-1.15,7.32c-4.5,5.97-6.73,9.05-8.89,12.02c-2.17,3-4.42,6.09-8.95,12.1c-4.48,5.94-6.63,9.06-8.7,12.07
		c-2.11,3.07-4.29,6.23-8.85,12.27c-4.53,6.02-6.9,9.02-9.2,11.93c-2.28,2.88-4.63,5.87-9.12,11.83c-4.5,5.97-6.71,9.05-8.86,12.04
		c-2.16,3.01-4.4,6.12-8.93,12.14c-4.53,6.01-6.88,9.03-9.15,11.95c-2.26,2.9-4.59,5.9-9.09,11.87c-4.49,5.96-6.7,9.05-8.83,12.04
		c-2.15,3.02-4.38,6.14-8.92,12.16c-0.28,0.37-0.52,0.69-0.78,1.03H500V375.03C495.14,378.91,489.67,382.59,483.32,386.18z
		 M295.13,157.52c-5.06-2.43-10.38-5.17-14.98-8.81c-4.41-3.49-8.56-7.63-12.33-12.3c-3.89-4.83-6.73-10.22-9-14.86
		c-2.86-5.87-4.83-11.2-6-16.29c-1.33-5.75-2-11.56-2-17.26c0-6.23,0.61-12.06,1.82-17.31c1.2-5.22,3.16-10.57,5.98-16.34
		c2.74-5.61,5.84-10.58,9.21-14.75c3.66-4.53,8.09-8.18,12.7-11.83l0.59-0.47c4.27-3.38,8.68-6.87,13.77-9.31
		c5.36-2.57,10.9-4.51,16.47-5.76c5.8-1.31,11.76-1.49,17.34-1.49c5.78,0,11.58,0.65,17.24,1.93c5.18,1.17,10.36,3.04,16.3,5.89
		c5.06,2.42,10.37,5.16,14.96,8.8c4.89,3.87,8.85,8.48,12.08,12.48c3.96,4.91,7.04,9.67,9.43,14.55c2.69,5.51,4.68,11.01,5.91,16.34
		c1.41,6.13,2.1,11.78,2.1,17.27c0,5.46-0.69,11.11-2.11,17.27c-1.43,6.21-3.28,11.59-5.66,16.46c-2.65,5.42-5.77,10.38-9.29,14.74
		c-4,4.95-8.83,9.01-12.6,11.99c-4.06,3.21-8.77,6.06-14.83,8.96c-6,2.87-11.18,4.75-16.29,5.9c-6.58,1.49-12.06,2.18-17.24,2.18
		c-6.39,0-12.56-1.21-17.22-2.26C305.95,161.99,300.45,160.07,295.13,157.52z"/>
	<path class="st2" d="M198.93,487.22c2.13-2.99,4.34-6.08,8.83-12.04c4.5-5.97,6.83-8.97,9.09-11.87c2.27-2.92,4.62-5.94,9.15-11.95
		c4.53-6.01,6.77-9.13,8.93-12.14c2.14-2.98,4.36-6.07,8.86-12.04c4.5-5.97,6.85-8.95,9.12-11.83c2.29-2.91,4.67-5.91,9.2-11.93
		c4.55-6.04,6.73-9.21,8.85-12.27c2.08-3.01,4.22-6.13,8.7-12.07c4.53-6.01,6.78-9.11,8.95-12.1c2.16-2.97,4.39-6.05,8.89-12.02
		c1.63-2.16,2.07-4.97,1.15-7.32c-0.85-2.18-2.7-3.68-5.07-4.12c-7.5-1.37-11.34-1.92-15.06-2.44c-3.66-0.52-7.44-1.06-14.82-2.41
		c-7.45-1.36-11.18-2.02-14.91-2.68c-3.72-0.66-7.44-1.31-14.87-2.67c-7.38-1.35-11.1-2.2-14.7-3.01
		c-3.66-0.83-7.44-1.69-14.95-3.06c-7.5-1.37-11.34-1.92-15.05-2.44c-3.66-0.52-7.44-1.05-14.82-2.4
		c-7.37-1.35-11.09-2.22-14.68-3.05c-3.66-0.85-7.44-1.73-14.95-3.11c-7.42-1.36-11.13-2.08-14.83-2.81
		c-3.72-0.73-7.44-1.46-14.9-2.82c-7.43-1.36-11.14-2.07-14.85-2.78c-3.72-0.71-7.44-1.42-14.89-2.79
		c-7.47-1.37-11.28-1.99-14.97-2.58c-3.66-0.59-7.44-1.2-14.85-2.56c-2.43-0.45-4.89,0.41-6.58,2.29c-1.76,1.95-2.4,4.7-1.67,7.19
		c2.09,7.17,3.08,10.84,4.04,14.39c0.96,3.58,1.96,7.28,4.07,14.51c2.11,7.23,3.24,10.88,4.33,14.42c1.09,3.51,2.21,7.14,4.31,14.33
		c2.09,7.16,3.04,10.83,3.96,14.38c0.93,3.59,1.89,7.31,4,14.55c2.11,7.24,3.29,10.89,4.43,14.42c1.13,3.49,2.3,7.1,4.39,14.27
		c2.1,7.2,3.14,10.8,4.18,14.4c1.04,3.61,2.08,7.21,4.18,14.42c2.1,7.22,3.23,10.88,4.32,14.41c1.08,3.52,2.2,7.15,4.3,14.33
		c2.09,7.16,3.05,10.83,3.98,14.38c0.32,1.21,0.64,2.45,1.01,3.82h86.52c0.26-0.34,0.51-0.67,0.78-1.03
		C194.54,493.35,196.77,490.23,198.93,487.22z"/>
	<polygon class="st3" points="149.08,0.41 149.08,0.41 99.14,0.41 99.14,0.41 	"/>
	<path class="st3" d="M97.7,7.12c-0.96,4.49-1.92,8.96-3.87,17.94c-1.93,8.94-2.85,13.43-3.77,17.91
		c-0.91,4.47-1.83,8.94-3.76,17.85c-1.94,8.97-2.81,13.56-3.66,17.99c-0.84,4.39-1.7,8.94-3.63,17.82
		c-1.94,8.94-2.92,13.39-3.92,17.86c-0.99,4.45-1.98,8.92-3.91,17.83c-1.93,8.93-2.78,13.51-3.59,17.95
		c-0.66,3.57-1.29,6.99-2.43,12.48c-3.34-5.42-5.26-8.6-7.26-11.91c-2.25-3.72-4.59-7.6-9.15-14.99c-4.75-7.71-7.1-11.58-9.44-15.45
		c-2.35-3.88-4.7-7.76-9.46-15.49c-4.78-7.76-7.33-11.63-9.79-15.38c-2.43-3.7-4.95-7.53-9.67-15.2c-4.72-7.65-6.94-11.64-9.1-15.5
		C0.88,58.08,0.45,57.3,0,56.51v222.33c6.01-1.11,9.68-1.92,13.22-2.71c4.28-0.95,8.71-1.93,17.49-3.47
		c8.85-1.56,13.28-2.32,17.7-3.08c4.44-0.76,8.87-1.53,17.74-3.09c8.77-1.54,13.26-2.1,17.61-2.64c4.44-0.55,9.03-1.12,17.98-2.69
		c8.86-1.56,13.29-2.37,17.71-3.18c4.42-0.81,8.84-1.62,17.7-3.18c8.99-1.58,13.5-2.73,17.86-3.83c4.43-1.12,8.61-2.18,17.33-3.72
		c8.74-1.54,13.04-2.02,17.58-2.54c4.46-0.5,9.07-1.03,18.03-2.6c8.83-1.56,13.26-2.28,17.69-3c4.45-0.73,8.9-1.45,17.78-3.02
		c2.64-0.46,4.91-2.16,6.22-4.65c1.45-2.74,1.56-6.03,0.3-8.8c-3.8-8.38-5.53-12.73-7.19-16.94c-1.7-4.29-3.46-8.73-7.33-17.27
		c-3.9-8.59-6.21-12.8-8.45-16.88c-2.27-4.13-4.42-8.04-8.2-16.37c-3.84-8.46-5.76-12.69-7.69-16.92
		c-1.92-4.22-3.85-8.45-7.68-16.91c-3.8-8.39-5.55-12.73-7.24-16.94c-1.72-4.28-3.5-8.7-7.37-17.24
		c-3.82-8.42-5.67-12.74-7.46-16.91c-1.81-4.22-3.67-8.58-7.53-17.07c-3.81-8.4-5.72-12.63-7.62-16.83
		c-1.93-4.26-3.84-8.5-7.71-17.01c-3.89-8.57-6.14-12.79-8.32-16.88c-0.36-0.68-0.72-1.36-1.09-2.04H99.14
		C98.6,2.95,98.15,5.05,97.7,7.12z"/>
	<polygon class="st4" points="500,375.03 500,375.03 500,313.5 500,313.5 	"/>
	<polygon class="st4" points="500,272.86 500,272.86 500,191.47 500,191.47 	"/>
	<path class="st4" d="M490.52,310.19c-3.16-1.06-6.43-2.15-12.78-4.53c-2.88-1.08-5.73,0.04-7.27,2.84
		c-3.48,6.32-9.04,11.9-17.52,17.54c-6.88,4.59-14.64,7.37-23.06,8.26c-1,0.11-1.93,0.33-2.82,0.55c-0.98,0.24-1.91,0.46-2.71,0.46
		c-8.54,0-17.04-2.14-24.59-6.17c-7.77-4.16-14.3-10.02-18.89-16.95c-4.42-6.69-7.18-15-7.99-24.04c-0.07-0.81,0.53-1.71,1.01-1.77
		c6.23-0.73,9.42-0.97,12.49-1.2c3.13-0.24,6.37-0.48,12.71-1.23c6.03-0.71,9.16-1.17,12.18-1.62c3.27-0.48,6.36-0.94,12.9-1.67
		c9.83-1.1,12.76-1.41,18.48-2.01l9.51-1.01c6.99-0.74,10.55-1.07,13.98-1.38c3.46-0.31,7.03-0.64,14.05-1.39
		c6.99-0.75,10.49-1.09,13.99-1.44c1.78-0.18,3.56-0.35,5.8-0.58v-81.39c-6.66-5.43-14.18-10.27-22.39-14.36
		c-7.87-3.92-16.29-6.92-25.75-9.15c-8.98-2.12-18.11-3.2-27.13-3.2c-3.95,0-8.42,0-12.87,0.47c-8.36,0.89-17.28,2.11-25.84,4.98
		c-7.24,2.43-14.55,5.98-23.69,11.51c-6.87,4.16-13.62,9.46-20.64,16.22c-6.88,6.62-12.42,13.18-16.94,20.05
		c-4.99,7.58-9.05,15.44-12.05,23.35c-3.36,8.86-5.65,17.86-6.8,26.76c-1.3,10.07-1.49,19.11-0.58,27.64
		c1.02,9.56,3.24,19.07,6.61,28.28c3.17,8.66,7.67,17.32,13.39,25.74c4.81,7.08,10.99,13.89,19.43,21.44
		c7.54,6.73,15.49,12.32,23.64,16.62c9.86,5.19,18.41,8.59,26.93,10.68c10.49,2.58,19.91,3.83,28.8,3.83c3.59,0,7.2-0.4,10.69-0.79
		l2.22-0.24c7.74-0.83,15.57-2.53,23.92-5.21c7.5-2.4,15.03-5.73,22.37-9.88c6.35-3.59,11.82-7.27,16.68-11.15V313.5
		C495.75,311.95,493.08,311.05,490.52,310.19z"/>
	<path class="st5" d="M328.7,165.5c5.19,0,10.67-0.69,17.24-2.18c5.11-1.15,10.29-3.03,16.29-5.9c6.06-2.9,10.77-5.75,14.83-8.96
		c3.77-2.98,8.6-7.04,12.6-11.99c3.51-4.36,6.64-9.32,9.29-14.74c2.38-4.87,4.23-10.25,5.66-16.46c1.42-6.16,2.11-11.81,2.11-17.27
		c0-5.49-0.69-11.14-2.1-17.27c-1.23-5.33-3.21-10.82-5.91-16.34c-2.39-4.89-5.47-9.65-9.43-14.55c-3.23-4-7.19-8.61-12.08-12.48
		c-4.59-3.63-9.91-6.38-14.96-8.8c-5.94-2.85-11.12-4.72-16.3-5.89c-5.67-1.28-11.47-1.93-17.24-1.93c-5.58,0-11.55,0.18-17.34,1.49
		c-5.57,1.26-11.11,3.2-16.47,5.76c-5.09,2.44-9.5,5.93-13.77,9.31l-0.59,0.47c-4.61,3.64-9.04,7.29-12.7,11.83
		c-3.37,4.18-6.47,9.14-9.21,14.75c-2.82,5.77-4.77,11.12-5.98,16.34c-1.21,5.25-1.82,11.07-1.82,17.31c0,5.7,0.67,11.51,2,17.26
		c1.17,5.09,3.13,10.42,6,16.29c2.26,4.64,5.11,10.03,9,14.86c3.77,4.67,7.92,8.81,12.33,12.3c4.6,3.64,9.91,6.38,14.98,8.81
		c5.32,2.54,10.82,4.47,16.36,5.72C316.14,164.29,322.31,165.5,328.7,165.5z"/>
</g>
</svg>
