<svg xmlns="http://www.w3.org/2000/svg" viewBox="0 0 112.44 112.92"><defs><style>.cls-1{fill:#fff;}</style></defs><title>toyota-white</title><g id="Layer_2" data-name="Layer 2"><g id="Layer_1-2" data-name="Layer 1"><path class="cls-1" d="M99.2,104.56l2.6-6.88,2.68,6.88Zm5.4-10.84H99.16l-7.64,18.72h4.8l1.76-4.52h7.8l1.76,4.52h4.8ZM66,109.28c-3.12,0-5.56-2.76-5.56-6.2s2.52-6.32,5.56-6.32,5.56,2.76,5.56,6.32-2.56,6.2-5.56,6.2m0-16.2A9.92,9.92,0,1,0,75.88,103h0A10,10,0,0,0,66,93.08M26.8,109.28c-3.12,0-5.56-2.76-5.56-6.2s2.44-6.32,5.56-6.32,5.56,2.76,5.56,6.32a5.81,5.81,0,0,1-5.56,6.2m0-16.2A9.92,9.92,0,1,0,36.72,103h0a9.94,9.94,0,0,0-9.92-9.92m24.52.64-4.88,7.56-4.88-7.56h-4.8l7.56,11.76v7h4.2v-7l7.56-11.76Zm41.08,0h-16v3.6h6v15.2h4.2V97.32H92.4ZM0,97.36H6v15.2h4.2V97.36H16v-3.6H0Z"/><path class="cls-1" d="M56,37.8c-1.44,0-2.84-.08-4.28-.16.08,5.72,1.92,10.24,4.28,10.24s4.2-4.52,4.28-10.24C59,37.72,57.56,37.8,56,37.8Z"/><path class="cls-1" d="M49.16,38.2v-.92c-8.16-1.28-14-4.52-14-8.4v-.52a13.18,13.18,0,0,0-3.28,8.48c0,8.72,9.64,16,22,16.72C51.16,51.48,49.16,45.44,49.16,38.2Z"/><path class="cls-1" d="M56,26.2c-1.84,0-3.36,2.84-4,6.88a32.47,32.47,0,0,0,4,.16c1.44,0,2.76-.08,4-.16C59.4,29,57.88,26.2,56,26.2Z"/><path class="cls-1" d="M18.48,0V75h75V0ZM56,55.68c-15.56,0-28.16-8.16-28.16-18.24,0-7.16,6.4-13.36,15.64-16.28A43.16,43.16,0,0,1,56,19.4a42.75,42.75,0,0,1,12.52,1.76c9.32,3,15.64,9.16,15.64,16.28C84.08,47.52,71.48,55.68,56,55.68Z"/><path class="cls-1" d="M49.56,32.84C50.48,26.52,53,22,56,22s5.56,4.52,6.48,10.84c5.72-.92,9.64-3,9.76-5.28,0-3.2-7.24-5.8-16.2-5.8s-16.2,2.6-16.2,5.8C39.8,29.88,43.84,31.92,49.56,32.84Z"/><path class="cls-1" d="M76.88,28.88c0,3.88-5.8,7.24-14,8.4v.92c0,7.16-2,13.28-4.8,15.36,12.28-.76,21.84-8,22-16.72a13,13,0,0,0-3.28-8.48A2.46,2.46,0,0,1,76.88,28.88Z"/></g></g></svg>