<svg xmlns="http://www.w3.org/2000/svg" viewBox="0 0 69.51 75.53"><defs><style>.cls-1{fill:#ff4761;}</style></defs><title>tr1-7</title><g id="Layer_2" data-name="Layer 2"><g id="Layer_1-2" data-name="Layer 1"><path class="cls-1" d="M69.38,13.19A1.84,1.84,0,0,0,68,12.05c-2.07-.38-3.13-.53-4.15-.67s-2-.29-4.09-.66-3.08-.56-4.11-.74l-4.1-.74c-2-.37-3.06-.61-4.05-.83s-2-.47-4.12-.84S40.24,7,39.21,6.89s-2.05-.29-4.08-.66-3.06-.61-4.05-.84S29,4.91,27,4.54l-4.08-.78L18.77,3c-2.05-.37-3.07-.57-4.09-.76l-4.11-.77C8.51,1.07,7.46.9,6.45.74S4.4.41,2.36,0A2,2,0,0,0,.54.66a2.11,2.11,0,0,0-.46,2c.58,2,.85,3,1.11,4s.54,2,1.13,4,.89,3,1.19,4,.61,2,1.19,4,.83,3,1.09,4,.52,2,1.1,4,.91,3,1.22,4,.64,2,1.21,3.93.87,3,1.15,4l1.16,4c.58,2,.89,3,1.19,4s.61,2,1.18,4,.84,3,1.1,4,.53,2,1.11,4,.86,3,1.14,4,.56,2,1.14,4,.93,3,1.26,4,.67,1.94,1.24,3.91a2,2,0,0,0,1.5,1.42c.11,0,.22,0,.33,0a1.93,1.93,0,0,0,1.54-.81c1.23-1.63,1.87-2.39,2.56-3.19s1.36-1.59,2.62-3.26,1.84-2.58,2.39-3.46,1.1-1.72,2.33-3.35,1.87-2.38,2.56-3.19,1.36-1.59,2.62-3.26,1.86-2.52,2.45-3.35,1.2-1.68,2.44-3.32,1.88-2.47,2.5-3.27,1.28-1.64,2.53-3.29,1.86-2.52,2.46-3.35,1.2-1.67,2.44-3.32,1.88-2.46,2.51-3.26,1.29-1.63,2.54-3.29,1.85-2.53,2.43-3.38,1.17-1.69,2.4-3.33,1.87-2.51,2.47-3.33,1.21-1.67,2.45-3.31a2.12,2.12,0,0,0,.32-2"/></g></g></svg>