<svg xmlns="http://www.w3.org/2000/svg" xmlns:xlink="http://www.w3.org/1999/xlink" viewBox="0 0 260 300.51"><defs><style>.cls-1,.cls-10,.cls-11,.cls-14,.cls-15,.cls-2,.cls-27,.cls-33,.cls-36,.cls-37{fill:none;stroke-miterlimit:10;}.cls-1{stroke:#335f77;}.cls-1,.cls-2,.cls-27,.cls-33,.cls-36,.cls-37{stroke-linecap:round;}.cls-1,.cls-36{stroke-width:24.24px;}.cls-10,.cls-2,.cls-37{stroke:#e5a97c;}.cls-2{stroke-width:20.78px;}.cls-3{fill:#595262;}.cls-32,.cls-4{fill:#30273b;}.cls-5{fill:url(#radial-gradient);}.cls-6{fill:#eb0a1e;}.cls-7{fill:#ffb446;}.cls-8{opacity:0.2;}.cls-20,.cls-22,.cls-26,.cls-8,.cls-9{isolation:isolate;}.cls-9{fill:#282830;}.cls-18,.cls-22,.cls-9{opacity:0.1;}.cls-10{stroke-width:13.41px;}.cls-11{stroke:#c9c6c7;stroke-width:16.09px;}.cls-12{fill:#ede9ea;}.cls-13{fill:#335f77;}.cls-14,.cls-33{stroke:#30273b;}.cls-14,.cls-15{stroke-width:20px;}.cls-15{stroke:#595262;}.cls-16{fill:#6e6776;}.cls-17{fill:#aca8b1;}.cls-19{fill:#231a2c;}.cls-20{fill:#ebe7e8;}.cls-20,.cls-26{opacity:0.25;}.cls-21{fill:#1b2241;}.cls-23,.cls-31{fill:#e5a97c;}.cls-23,.cls-26,.cls-29,.cls-30,.cls-32,.cls-34,.cls-35{fill-rule:evenodd;}.cls-24,.cls-26,.cls-34{fill:#fff;}.cls-25{fill:#e5f3ec;}.cls-27{stroke:#eb9763;stroke-width:20.9px;}.cls-28{fill:#3d7898;}.cls-29{fill:#d18715;}.cls-30{fill:#eb9763;}.cls-33{stroke-width:4.22px;}.cls-35{fill:#ffb931;}.cls-36{stroke:#3d7898;}.cls-37{stroke-width:23px;}</style><radialGradient id="radial-gradient" cx="-3254.9" cy="1993.8" r="258.55" gradientTransform="translate(-1394.67 334.42) rotate(180) scale(0.47 0.02)" gradientUnits="userSpaceOnUse"><stop offset="0.25" stop-color="#282830" stop-opacity="0.5"/><stop offset="0.61" stop-color="#282830" stop-opacity="0.31"/><stop offset="1" stop-color="#282830" stop-opacity="0"/></radialGradient></defs><title>vespa</title><g id="Layer_2" data-name="Layer 2"><g id="Layer_1-2" data-name="Layer 1"><g id="Artwork"><path class="cls-1" d="M65.6,132.08c5.46,3,23.52,17.13,41.13,16S143.06,134.9,147,109.8"/><path class="cls-2" d="M50.36,131.38c4,.08,5.26.79,11,.73"/><path class="cls-3" d="M31.35,134.62c0-2.77,1.67-5,3.73-5H37c2.06,0,3.73,2.25,3.73,5s-1.67,5-3.73,5H35.08C33,139.64,31.35,137.39,31.35,134.62Z"/><path class="cls-4" d="M35.08,134.55h0a3.68,3.68,0,0,0,3.68,3.68H58.85c2,0,2-7.36,0-7.36H38.76a3.68,3.68,0,0,0-3.68,3.68Z"/><rect class="cls-5" x="1.13" y="288.06" width="243.92" height="12.45"/><path class="cls-6" d="M240.86,224.3c4.76,0,.09-15.62-4.67-15.62h-16c-3.1,0-4.86,2.51-3.93,5.6l1.32,4.41a8.16,8.16,0,0,0,7.28,5.6h16Z"/><path class="cls-7" d="M236.57,226.63c6.18,0,.12-20.27-6.06-20.27H209.77c-4,0-6.3,3.25-5.1,7.27l1.71,5.72a10.59,10.59,0,0,0,9.45,7.27h20.74Z"/><path class="cls-3" d="M84.35,169.61l4.32-24a6.31,6.31,0,0,0-5.09-7.31h0a6.3,6.3,0,0,0-7.31,5.08l-4.32,24A6.3,6.3,0,0,0,77,174.7h0a6.3,6.3,0,0,0,7.31-5.09Z"/><path class="cls-7" d="M124.37,249.2v4.29l5.07-.35v6.59h70.82v-18c0-.29,0-.57,0-.86L223,235.1l-3.47-18.28c-2.15-11.29-13-20.44-24.32-20.44H152c-11.29,0-18.7,9.15-16.55,20.44l.79,4.14a35.2,35.2,0,0,0-6.76,20.79v6.88a21.33,21.33,0,0,1-5.07.57Z"/><path class="cls-8" d="M124.38,249.19v4.29s11.64-.74,17.74-1.41l.65,3.42L223,235.09l-3.47-18.28c-2.15-11.29-13-20.44-24.32-20.44H152c-11.29,0-18.7,9.15-16.55,20.44l3.37,17.73c1.38,9.41-4.87,14.66-14.41,14.66Z"/><path class="cls-8" d="M76.19,155.54c.43,0,.85,0,1.28,0h3.09c17.79,0,30.1,14.42,27.49,32.21l-5.67,38.65-.64,4.4c-1.49,10.18,5.55,18.43,15.72,18.43h-5.63c-10.17,0-17.21-8.25-15.72-18.43l.65-4.4,5.66-38.65C105,170.35,93.3,156.2,76.19,155.54Z"/><path class="cls-8" d="M54.53,215.26c21.68,0,39.3,20.73,39.3,46.22,0,.1,0,.21,0,.32H81.66a1.67,1.67,0,0,1,0-.32,42.85,42.85,0,0,0-.28-4.85A9,9,0,0,0,79,251.7c-3.68-17-14.61-30.7-28.69-36.17a33.33,33.33,0,0,1,4.25-.27Z"/><path class="cls-8" d="M230.34,240.18a1.25,1.25,0,0,0-1.25-1.25h-19a1.25,1.25,0,0,0-1.25,1.25h0a1.25,1.25,0,0,0,1.25,1.25h19a1.25,1.25,0,0,0,1.25-1.25Z"/><path class="cls-8" d="M230.34,245.91a1.25,1.25,0,0,0-1.25-1.25h-19a1.25,1.25,0,0,0-1.25,1.25h0a1.25,1.25,0,0,0,1.25,1.25h19a1.25,1.25,0,0,0,1.25-1.25Z"/><path class="cls-8" d="M230.34,251.64a1.25,1.25,0,0,0-1.25-1.25h-19a1.25,1.25,0,0,0-1.25,1.25h0a1.25,1.25,0,0,0,1.25,1.25h19a1.25,1.25,0,0,0,1.25-1.25Z"/><path class="cls-8" d="M91.69,128.89h9.44c2.6,5.38,1,11.79-4.34,16.14h-5.1C87.7,145,87.7,128.89,91.69,128.89Z"/><path class="cls-9" d="M124.38,249.19v4.29s11.64-.74,17.74-1.41l.65,3.42L223,235.09l-3.47-18.28c-2.15-11.29-13-20.44-24.32-20.44H152c-11.29,0-18.7,9.15-16.55,20.44l3.37,17.73c1.38,9.41-4.87,14.66-14.41,14.66Z"/><line class="cls-10" x1="145.56" y1="245.73" x2="133.99" y2="224.31"/><line class="cls-11" x1="145.56" y1="245.73" x2="138.62" y2="232.88"/><path class="cls-12" d="M126.69,245.74h26.8c0-5.38-6-9.74-13.4-9.74S126.69,240.36,126.69,245.74Z"/><path class="cls-13" d="M134.4,113.81l-.59,50.42h69.13l-.6-42.1c-.19-16.49-15.4-38.32-34-38.5-18.56.18-33.78,13.7-34,30.19Z"/><path class="cls-14" d="M134,224.31,112.21,184.1A10,10,0,0,1,121,169.35h55.92"/><line class="cls-15" x1="133.99" y1="224.31" x2="129.36" y2="215.75"/><line class="cls-10" x1="121.56" y1="245.73" x2="109.99" y2="224.31"/><line class="cls-11" x1="121.56" y1="245.73" x2="114.62" y2="232.88"/><path class="cls-12" d="M116.09,236c-7.4,0-13.4,4.36-13.4,9.74h26.8c0-5.38-6-9.74-13.4-9.74Z"/><path class="cls-14" d="M110,224.31,88.21,184.1A10,10,0,0,1,97,169.35h55.92"/><line class="cls-15" x1="109.99" y1="224.31" x2="105.36" y2="215.75"/><path class="cls-4" d="M155,249.2a3.37,3.37,0,0,0-3.37-3.37H97.11a3.37,3.37,0,0,0-3.37,3.37h0a3.37,3.37,0,0,0,3.37,3.37h54.54A3.37,3.37,0,0,0,155,249.2Z"/><path class="cls-4" d="M222,260.18c0,19.13-12.06,34.64-26.93,34.64h-4.5c-14.87,0-26.93-15.5-26.93-34.64s12.06-34.65,26.93-34.65h4.5C210,225.53,222,241.05,222,260.18Z"/><path class="cls-16" d="M199.9,237.09c-8.69,0-15.72,10.34-15.72,23.09s7,23.09,15.72,23.09,15.72-10.34,15.72-23.09S208.59,237.09,199.9,237.09Z"/><path class="cls-17" d="M199.9,237.09c8.68,0,15.72,10.34,15.72,23.09s-7,23.09-15.72,23.09a10.87,10.87,0,0,1-2.73-.35c7.38-1.9,13-11.34,13-22.73s-5.61-20.84-13-22.74a10.88,10.88,0,0,1,2.73-.36Z"/><path class="cls-4" d="M197.17,252.16c-3,0-5.46,3.59-5.46,8s2.44,8,5.46,8,5.46-3.6,5.46-8S200.19,252.16,197.17,252.16Z"/><path class="cls-7" d="M27.75,255.53h1.77v0H75.71a6.3,6.3,0,0,0,6.3,6.26H189.27a6.3,6.3,0,1,0,0-12.6h-1.7l46.78-14.1-3.48-18.28c-2.15-11.29-13-20.44-24.32-20.44h-30.7c-11.29,0-18.7,9.15-16.55,20.44l3.37,17.72c1.4,9.42-4.88,14.67-14.42,14.67H116.39l-.34,0h1.39c-10.17,0-17.21-8.25-15.72-18.43l.64-4.4L108,187.72c2.61-17.79-9.69-32.21-27.49-32.21H74.63c-17.79,0-34.33,14.42-36.93,32.21l-9.94,67.83Z"/><g class="cls-18"><path class="cls-19" d="M85.11,156.4c-14.67,3.38-27.07,16.11-29.3,31.32l-9.94,67.83H27.77l9.94-67.83c2.6-17.79,19.14-32.21,36.93-32.21h3.09a30.87,30.87,0,0,1,7.37.89Z"/></g><path class="cls-20" d="M76.19,155.54c.43,0,.85,0,1.28,0h3.09c17.79,0,30.1,14.42,27.49,32.21l-5.67,38.65-.64,4.4c-1.49,10.18,5.55,18.43,15.72,18.43h-5.63c-10.17,0-17.21-8.25-15.72-18.43l.65-4.4,5.66-38.65C105,170.35,93.3,156.2,76.19,155.54Z"/><polygon class="cls-21" points="45.5 261.81 79.69 261.81 68.84 225.53 45.5 225.53 45.5 261.81"/><path class="cls-4" d="M69.4,260.18c0,19.13-12.06,34.64-26.93,34.64H38C23.1,294.82,11,279.32,11,260.18S23.1,225.53,38,225.53h4.5C57.35,225.53,69.4,241.05,69.4,260.18Z"/><path class="cls-16" d="M47.29,237.09c-8.68,0-15.72,10.34-15.72,23.09s7,23.09,15.72,23.09S63,272.93,63,260.18,56,237.09,47.29,237.09Z"/><path class="cls-17" d="M47.29,237.09C56,237.09,63,247.43,63,260.18s-7,23.09-15.72,23.09a10.75,10.75,0,0,1-2.73-.35c7.38-1.9,13-11.34,13-22.73s-5.61-20.84-13-22.74a10.88,10.88,0,0,1,2.73-.36Z"/><path class="cls-3" d="M44.56,251.72c-3.19,0-5.76,3.8-5.76,8.46s2.58,8.45,5.76,8.45,5.76-3.78,5.76-8.45S47.75,251.72,44.56,251.72Z"/><path class="cls-4" d="M46.2,253.75c-2,0-3.64,2.89-3.64,6.43s1.62,6.42,3.64,6.42,3.65-2.87,3.65-6.42S48.21,253.75,46.2,253.75Z"/><path class="cls-7" d="M49.73,221.26a32.57,32.57,0,0,1,2.64,2.08H36.24v3.33a19.25,19.25,0,0,0-10,.2v7.93H24.26v10.34H5.17a5.41,5.41,0,0,1-4.71-7.58c6-13.75,17.94-22.3,31.11-22.3H51.13v6h-1.4Z"/><g class="cls-18"><path d="M51.12,215.26h-1c.34,0,.66.05,1,.06Z"/><path d="M.45,237.55a5.42,5.42,0,0,0,2.8,7.14,5.66,5.66,0,0,0,1.91.45H22.58a1.78,1.78,0,0,0,.08-.16,5.07,5.07,0,0,1-.83-.28,5.42,5.42,0,0,1-2.8-7.14c6-13.75,17.93-22.3,31.11-22.3H31.57c-13.17,0-25.1,8.55-31.11,22.3Z"/></g><path class="cls-8" d="M54.53,215.26c21.68,0,39.3,20.73,39.3,46.22,0,.1,0,.21,0,.32H81.66a1.67,1.67,0,0,1,0-.32,42.85,42.85,0,0,0-.28-4.85A9,9,0,0,0,79,251.7c-3.68-17-14.61-30.7-28.69-36.17a33.33,33.33,0,0,1,4.25-.27Z"/><path class="cls-7" d="M50.16,215.26c19.28,0,35,18.45,35,41.13a5.42,5.42,0,0,1-10.84,0,38.27,38.27,0,0,0-.25-4.32c-.76-4.21-3.67-6.93-9.76-6.93H22.58a1.78,1.78,0,0,0,.08-.16,5.07,5.07,0,0,1-.83-.28,5.42,5.42,0,0,1-2.8-7.14c6-13.75,17.93-22.3,31.11-22.3Z"/><path class="cls-6" d="M65.09,232.77a2.56,2.56,0,0,0-2.56-2.56H49.85a2.56,2.56,0,0,0-2.56,2.56h0a2.56,2.56,0,0,0,2.56,2.56H62.53a2.56,2.56,0,0,0,2.56-2.56Z"/><path class="cls-22" d="M229.29,220.71l2.74,14.4-46.78,14.1H187a6.3,6.3,0,1,1,0,12.6H173.76V245.6c0-19.89,15-36,33.39-36,10.73,0,16.31,5.75,22.14,11.12Z"/><path class="cls-7" d="M209.87,211.65c-17,0-30.85,14.89-30.85,33.27v16.9h61.7v-16.9c0-18.38-13.81-33.27-30.85-33.27Z"/><path class="cls-20" d="M209.88,211.65c-17,0-30.85,14.89-30.85,33.27v16.9h18.5v-12c0-13.07,9.66-23.66,21.59-23.66s21.6,10.6,21.6,23.66v-4.88c0-18.38-13.81-33.27-30.85-33.27Z"/><path class="cls-4" d="M197.54,190.71v8.48a3.86,3.86,0,0,1-3.86,3.86H137a3.86,3.86,0,0,1-3.86-3.86v-8.48a12.34,12.34,0,0,1,12.34-12.34H185.2A12.34,12.34,0,0,1,197.54,190.71Z"/><path class="cls-3" d="M223,190.71v8.48a3.86,3.86,0,0,1-3.86,3.86H162.43a3.86,3.86,0,0,1-3.86-3.86v-8.48a12.33,12.33,0,0,1,12.34-12.34h39.75A12.34,12.34,0,0,1,223,190.71Z"/><path class="cls-16" d="M200.77,191.51h-6.44V178.69a1.06,1.06,0,0,1,1.06-1.06h4.31a1.06,1.06,0,0,1,1.06,1.06v12.82Z"/><path class="cls-17" d="M197.54,187.42a5.35,5.35,0,1,0,5.35,5.35A5.35,5.35,0,0,0,197.54,187.42Z"/><path class="cls-4" d="M197.54,190.45a2.32,2.32,0,1,0,2.32,2.32A2.32,2.32,0,0,0,197.54,190.45Z"/><path class="cls-8" d="M230.34,240.18a1.25,1.25,0,0,0-1.25-1.25h-19a1.25,1.25,0,0,0-1.25,1.25h0a1.25,1.25,0,0,0,1.25,1.25h19a1.25,1.25,0,0,0,1.25-1.25Z"/><path class="cls-8" d="M230.34,245.91a1.25,1.25,0,0,0-1.25-1.25h-19a1.25,1.25,0,0,0-1.25,1.25h0a1.25,1.25,0,0,0,1.25,1.25h19a1.25,1.25,0,0,0,1.25-1.25Z"/><path class="cls-8" d="M230.34,251.64a1.25,1.25,0,0,0-1.25-1.25h-19a1.25,1.25,0,0,0-1.25,1.25h0a1.25,1.25,0,0,0,1.25,1.25h19a1.25,1.25,0,0,0,1.25-1.25Z"/><path class="cls-4" d="M54.59,192.92c-3.38,0-6.48,3.39-6.93,7.6s1.93,7.59,5.31,7.59,6.48-3.39,6.93-7.59S58,192.92,54.59,192.92Z"/><path class="cls-3" d="M31.34,134.62c0-2.72,1.64-4.93,3.67-4.93h1.86c2,0,3.67,2.21,3.67,4.93s-1.64,4.93-3.67,4.93H35C33,139.55,31.34,137.34,31.34,134.62Z"/><path class="cls-4" d="M35,134.55a3.61,3.61,0,0,0,3.61,3.62H58.35c2,0,2-7.23,0-7.23H38.62A3.61,3.61,0,0,0,35,134.55Z"/><path class="cls-23" d="M38.22,131.31c-.18,3.65,2.88,5.42,5.7,5.1l5.23-.78a4.9,4.9,0,0,0,4.34-4.34l1.4-10a9.89,9.89,0,0,0-5.76.67,9.76,9.76,0,0,0-10.82,8.42c-.05.31-.07.62-.09.93Z"/><path class="cls-7" d="M55.7,134.55a7.23,7.23,0,0,0,7.23,7.22H77c4,0,4-14.45,0-14.45H62.93a7.23,7.23,0,0,0-7.23,7.23Z"/><path class="cls-7" d="M84.32,119.25c24.82,2.66,23.29,27.92,0,30.59l-11.8,1a8.66,8.66,0,0,1-1.44.13c-6.5,0-11.76-7.38-11.76-16.47s5.27-16.46,11.76-16.46a8.57,8.57,0,0,1,1.44.12l11.8,1Z"/><path class="cls-24" d="M70.69,123.29c4.21,0,7.62,5,7.62,11.26s-3.41,11.26-7.62,11.26-7.62-5-7.62-11.26S66.48,123.29,70.69,123.29Z"/><path class="cls-25" d="M70.69,123.29c-4.21,0-7.62,5-7.62,11.26s3.41,11.26,7.62,11.26a5.35,5.35,0,0,0,2.36-.55c-3-1.47-5.26-5.71-5.26-10.71s2.21-9.24,5.26-10.71a5.55,5.55,0,0,0-2.36-.55Z"/><path class="cls-8" d="M91.69,128.89h9.44c2.6,5.38,1,11.79-4.34,16.14h-5.1C87.7,145,87.7,128.89,91.69,128.89Z"/><path class="cls-7" d="M113,134.55a7.23,7.23,0,0,0-7.22-7.23h-14c-4,0-4,14.45,0,14.45h14a7.22,7.22,0,0,0,7.22-7.22Z"/><path class="cls-4" d="M133.66,134.55a3.61,3.61,0,0,0-3.61-3.61H110.32c-2,0-2,7.23,0,7.23h19.73a3.61,3.61,0,0,0,3.61-3.62Z"/><path class="cls-3" d="M137.33,134.48c0,2.73-1.64,4.93-3.67,4.93H131.8c-2,0-3.67-2.21-3.67-4.93s1.65-4.93,3.67-4.93h1.86C135.69,129.55,137.33,131.75,137.33,134.48Z"/><path class="cls-16" d="M133.74,131c-1.31,0-2.37,1.57-2.37,3.51s1.06,3.51,2.37,3.51,2.37-1.57,2.37-3.51S135.05,131,133.74,131Z"/><path class="cls-24" d="M105.65,133.17a1.81,1.81,0,0,0-1.81-1.81H94.38a1.81,1.81,0,0,0-1.81,1.81h0a1.81,1.81,0,0,0,1.81,1.8h9.46a1.81,1.81,0,0,0,1.81-1.8Z"/><path class="cls-24" d="M231.67,209.58a1.53,1.53,0,0,0-1.53-1.52h-8a1.52,1.52,0,0,0-1.52,1.52h0a1.53,1.53,0,0,0,1.52,1.53h8a1.53,1.53,0,0,0,1.53-1.53Z"/><path class="cls-26" d="M57.83,293.65q9.56-.93,19.4-1.58c-.24-3.38-2.74-5.71-6.75-5.69C65.9,286.4,60.79,289.46,57.83,293.65Z"/><path class="cls-26" d="M96.89,280.62c-8.29,0-17.54,5.51-23,13q17.31-1.23,35.42-1.57c0-6.75-4.68-11.49-12.43-11.46Z"/><path class="cls-26" d="M117.41,292.82h1.71c12.44-.05,24.67.24,36.61.84.66-8.2-4.64-14.1-13.74-14.06C133.25,279.63,123.55,285.11,117.41,292.82Z"/><path class="cls-26" d="M117.39,287c-4.78,0-10,2.72-13.77,6.67q7.68-.21,15.49-.24c2.21,0,4.4,0,6.59,0-.55-3.86-3.59-6.47-8.31-6.45Z"/><path class="cls-26" d="M74.2,293.65q6.42-.47,13-.79c-.61-1.87-2.33-3.06-4.83-3.06A12.19,12.19,0,0,0,74.2,293.65Z"/><path class="cls-26" d="M71.9,291a8.65,8.65,0,0,0-5.69,2.62c3-.25,6-.48,9-.69A3.37,3.37,0,0,0,71.9,291Z"/><path class="cls-26" d="M55.78,289.39a9.06,9.06,0,0,0-7,4.26c3.52-.4,7.06-.76,10.64-1.1-.08-1.87-1.43-3.16-3.62-3.16Z"/><path class="cls-26" d="M133.94,293.53c1.83,0,3.65.07,5.47.12a3.87,3.87,0,0,0-2.54-.82A7.14,7.14,0,0,0,133.94,293.53Z"/><path class="cls-26" d="M160.62,282.3c-6.63,0-14,4.08-18.78,9.83q15,.44,29.47,1.52c.71-6.6-3.45-11.38-10.69-11.35Z"/><path class="cls-26" d="M185.21,293.64h30.27c1.74-7.24-2.31-12.75-9.9-12.75S189.42,286.4,185.21,293.64Z"/><path class="cls-26" d="M220.67,293.64h13.06c.75-3.12-1-5.5-4.27-5.5S222.49,290.51,220.67,293.64Z"/><path class="cls-26" d="M220.69,293.65h38.8c2.22-9.28-3-16.35-12.69-16.35S226.09,284.37,220.69,293.65Z"/><path class="cls-24" d="M147.13,108.21l-.48,41h56.28l-.48-21.83c-.15-13.42-8.87-43.78-34.08-43.78-15.11,0-21.06,11.15-21.22,24.57Z"/><line class="cls-27" x1="159.57" y1="88.28" x2="153.84" y2="82"/><path class="cls-28" d="M163.7,83c-.64,0-1.28,0-1.93-.06,5.23,2.43,7.15,13.74,7.23,26.58l.26,69,17.55-.1a16.73,16.73,0,0,0,16.62-16.72V132c0-29.28-14.19-49.08-39.73-49.08Z"/><path class="cls-29" d="M121.55,33H107.41V49.69c0,11.43,12.59,17,20.88,11.8a13.35,13.35,0,0,1-6.74-11.8Z"/><rect class="cls-4" x="116.14" y="2.42" width="42.15" height="63.23" rx="21.07"/><path class="cls-4" d="M170.93,30.81V47.67a16.86,16.86,0,0,1-16.86,16.86h0a16.86,16.86,0,0,1-16.86-16.86V30.81A16.86,16.86,0,0,1,154.07,14h0A16.86,16.86,0,0,1,170.93,30.81Z"/><path class="cls-30" d="M165.46,66.49A8.54,8.54,0,1,0,156.92,58,8.54,8.54,0,0,0,165.46,66.49Z"/><path class="cls-31" d="M168.53,63.43v2.84a28.47,28.47,0,0,1-28.45,28.45h0a28.47,28.47,0,0,1-28.45-28.45V63.43A28.47,28.47,0,0,1,140.08,35h0A28.47,28.47,0,0,1,168.53,63.43Z"/><path class="cls-31" d="M167.48,40.61v19A27.42,27.42,0,0,1,140.08,87h0a27.42,27.42,0,0,1-27.4-27.4v-19a27.42,27.42,0,0,1,27.4-27.4h0A27.42,27.42,0,0,1,167.48,40.61Z"/><path class="cls-32" d="M140.56,15.6l.46,0a11.62,11.62,0,0,1-11.59,11.59h0a11.62,11.62,0,0,1-11.59-11.59l-.46,0A11.62,11.62,0,0,1,129,4h0A11.62,11.62,0,0,1,140.56,15.6Z"/><line class="cls-33" x1="137.03" y1="39.38" x2="142.99" y2="42.4"/><line class="cls-33" x1="126.34" y1="40.51" x2="119.85" y2="42.1"/><path class="cls-34" d="M119.49,61.12a1.66,1.66,0,0,1,2.16-1.65,34.32,34.32,0,0,0,19.54,0,1.61,1.61,0,0,1,1.51.26,1.63,1.63,0,0,1,.65,1.39,11.94,11.94,0,0,1-23.86,0Z"/><path class="cls-32" d="M137.48,49.05a2.11,2.11,0,1,1,2.11,2.11A2.11,2.11,0,0,1,137.48,49.05Zm-14.23,2.11a2.11,2.11,0,1,0-2.11-2.11A2.1,2.1,0,0,0,123.25,51.16Z"/><path class="cls-32" d="M143.08,94.72a26.55,26.55,0,0,0,2.83.15h0a26.13,26.13,0,0,0,26.25-27.25L171.1,39.83h-5.65l1.06,27.79A26.1,26.1,0,0,1,143.08,94.72Z"/><path class="cls-35" d="M153.36,52.77c0,13.8,18.37,19,25.34,7.14a37.89,37.89,0,0,0,5.12-20.7A41.09,41.09,0,0,0,143.11,0a37.43,37.43,0,0,0-37.7,36h48Z"/><path class="cls-29" d="M167.49,36H153.35V52.77c0,11.43,12.59,17,20.88,11.8a13.35,13.35,0,0,1-6.74-11.8Z"/><path class="cls-29" d="M105.4,36h14.14A37.38,37.38,0,0,1,150.19.65,39.42,39.42,0,0,0,143.11,0,37.44,37.44,0,0,0,105.4,36Z"/><path class="cls-7" d="M179.17,81.8h0Z"/><path class="cls-36" d="M131.14,141.45c11.78,5.24,22.22,9.81,33.34,4.06,12.78-6.2,19.16-17.13,16.54-37"/><path class="cls-2" d="M117.22,132.37c3.6,1.74,4.8,5,10.07,7.37"/><line class="cls-37" x1="116.76" y1="133.48" x2="120.62" y2="133.48"/><path class="cls-4" d="M135.66,134.55a3.61,3.61,0,0,0-3.61-3.61h-7.73c-2,0-2,7.23,0,7.23h7.73a3.61,3.61,0,0,0,3.61-3.62Z"/><path class="cls-3" d="M137.33,134.48c0,2.73-1.64,4.93-3.67,4.93H131.8c-2,0-3.67-2.21-3.67-4.93s1.65-4.93,3.67-4.93h1.86C135.69,129.55,137.33,131.75,137.33,134.48Z"/><path class="cls-16" d="M133.74,131c-1.31,0-2.37,1.57-2.37,3.51s1.06,3.51,2.37,3.51,2.37-1.57,2.37-3.51S135.05,131,133.74,131Z"/></g></g></g></svg>