<svg xmlns="http://www.w3.org/2000/svg" viewBox="0 0 63.11 63.11"><defs><style>.cls-1{fill:#213052;}</style></defs><title>vimeo-logo</title><g id="Layer_2" data-name="Layer 2"><g id="Layer_1-2" data-name="Layer 1"><path class="cls-1" d="M56.8,0H6.31A6.32,6.32,0,0,0,0,6.31V56.8a6.32,6.32,0,0,0,6.31,6.31H56.8a6.32,6.32,0,0,0,6.31-6.31V6.31A6.32,6.32,0,0,0,56.8,0ZM53.11,21q-.3,6.66-9.3,18.23c-6.19,8.06-11.45,12.09-15.73,12.09-2.67,0-4.91-2.45-6.75-7.37-3.59-13.14-5.13-20.85-8.09-20.85-.34,0-1.53.72-3.58,2.14L7.52,22.44c5.26-4.62,10.27-9.75,13.41-10q5.34-.51,6.56,7.29C30.4,38.18,31.7,41,37,32.6c1.9-3,2.93-5.31,3.07-6.89.49-4.68-3.65-4.35-6.45-3.15q3.36-11,12.85-10.71C51.17,12,53.38,15,53.11,21Z"/></g></g></svg>