<svg xmlns="http://www.w3.org/2000/svg" viewBox="0 0 74.04 80.06"><defs><style>.cls-1,.cls-2{fill:#ffc200;}.cls-2{opacity:0;}</style></defs><title>yellow-triangle</title><g id="Layer_2" data-name="Layer 2"><g id="Layer_1-2" data-name="Layer 1"><path class="cls-1" d="M71.26,15.07a1.8,1.8,0,0,0-1.4-1.13c-2.06-.38-3.12-.53-4.15-.67s-2-.3-4.08-.67l-4.11-.74-4.1-.73c-2-.38-3.06-.61-4.05-.83s-2-.47-4.12-.85-3.13-.53-4.15-.67S39.05,8.49,37,8.12s-3-.61-4-.84-2-.48-4.12-.86-3.07-.57-4.09-.77-2.05-.4-4.11-.78L16.56,4.1l-4.1-.76C10.4,3,9.35,2.79,8.33,2.62s-2-.33-4.09-.7a1.92,1.92,0,0,0-1.81.63,2.08,2.08,0,0,0-.46,2c.57,2,.85,3,1.11,4s.54,2,1.12,4,.89,3,1.2,4,.61,2,1.18,4,.84,3,1.09,4,.53,2,1.11,4,.9,3,1.22,4,.63,2,1.21,3.93.86,3,1.15,4,.57,2,1.15,4,.89,3,1.19,4,.61,2,1.19,3.95.84,3,1.09,4,.53,2,1.11,4,.86,3,1.14,4,.57,2,1.15,4,.93,3,1.26,4S22.31,74,22.88,76a1.94,1.94,0,0,0,1.5,1.41,1.84,1.84,0,0,0,.33,0,1.93,1.93,0,0,0,1.53-.8c1.23-1.64,1.88-2.39,2.56-3.19s1.36-1.6,2.62-3.27,1.84-2.58,2.4-3.45,1.1-1.73,2.32-3.35S38,61,38.7,60.16s1.36-1.59,2.62-3.26,1.87-2.52,2.46-3.36,1.2-1.67,2.43-3.31S48.1,47.75,48.72,47s1.27-1.63,2.52-3.29,1.87-2.51,2.46-3.34,1.2-1.68,2.44-3.32,1.89-2.47,2.52-3.26,1.28-1.63,2.53-3.29,1.86-2.54,2.44-3.38,1.16-1.69,2.4-3.33,1.87-2.51,2.47-3.33,1.21-1.67,2.45-3.32a2.14,2.14,0,0,0,.31-2"/><circle class="cls-2" cx="1.33" cy="1.33" r="1.33"/><circle class="cls-2" cx="72.72" cy="14.87" r="1.33"/><circle class="cls-2" cx="24.46" cy="78.74" r="1.33"/></g></g></svg>